<svg xmlns="http://www.w3.org/2000/svg" xmlns:xlink="http://www.w3.org/1999/xlink" width="600" height="400" viewBox="0 0 2400 1600">
<defs>
  <clipPath id="clip640">
    <rect x="0" y="0" width="2400" height="1600"></rect>
  </clipPath>
</defs>
<path clip-path="url(#clip640)" d="M0 1600 L2400 1600 L2400 0 L0 0  Z" fill="#ffffff" fill-rule="evenodd" fill-opacity="1"></path>
<defs>
  <clipPath id="clip641">
    <rect x="480" y="0" width="1681" height="1600"></rect>
  </clipPath>
</defs>
<path clip-path="url(#clip640)" d="M205.121 1423.18 L2352.76 1423.18 L2352.76 47.2441 L205.121 47.2441  Z" fill="#ffffff" fill-rule="evenodd" fill-opacity="1"></path>
<defs>
  <clipPath id="clip642">
    <rect x="205" y="47" width="2149" height="1377"></rect>
  </clipPath>
</defs>
<polyline clip-path="url(#clip642)" style="stroke:#000000; stroke-linecap:round; stroke-linejoin:round; stroke-width:2; stroke-opacity:0.1; fill:none" points="265.903,1423.18 265.903,47.2441 "></polyline>
<polyline clip-path="url(#clip642)" style="stroke:#000000; stroke-linecap:round; stroke-linejoin:round; stroke-width:2; stroke-opacity:0.1; fill:none" points="772.421,1423.18 772.421,47.2441 "></polyline>
<polyline clip-path="url(#clip642)" style="stroke:#000000; stroke-linecap:round; stroke-linejoin:round; stroke-width:2; stroke-opacity:0.1; fill:none" points="1278.94,1423.18 1278.94,47.2441 "></polyline>
<polyline clip-path="url(#clip642)" style="stroke:#000000; stroke-linecap:round; stroke-linejoin:round; stroke-width:2; stroke-opacity:0.1; fill:none" points="1785.46,1423.18 1785.46,47.2441 "></polyline>
<polyline clip-path="url(#clip642)" style="stroke:#000000; stroke-linecap:round; stroke-linejoin:round; stroke-width:2; stroke-opacity:0.1; fill:none" points="2291.97,1423.18 2291.97,47.2441 "></polyline>
<polyline clip-path="url(#clip640)" style="stroke:#000000; stroke-linecap:round; stroke-linejoin:round; stroke-width:4; stroke-opacity:1; fill:none" points="205.121,1423.18 2352.76,1423.18 "></polyline>
<polyline clip-path="url(#clip640)" style="stroke:#000000; stroke-linecap:round; stroke-linejoin:round; stroke-width:4; stroke-opacity:1; fill:none" points="265.903,1423.18 265.903,1404.28 "></polyline>
<polyline clip-path="url(#clip640)" style="stroke:#000000; stroke-linecap:round; stroke-linejoin:round; stroke-width:4; stroke-opacity:1; fill:none" points="772.421,1423.18 772.421,1404.28 "></polyline>
<polyline clip-path="url(#clip640)" style="stroke:#000000; stroke-linecap:round; stroke-linejoin:round; stroke-width:4; stroke-opacity:1; fill:none" points="1278.94,1423.18 1278.94,1404.28 "></polyline>
<polyline clip-path="url(#clip640)" style="stroke:#000000; stroke-linecap:round; stroke-linejoin:round; stroke-width:4; stroke-opacity:1; fill:none" points="1785.46,1423.18 1785.46,1404.28 "></polyline>
<polyline clip-path="url(#clip640)" style="stroke:#000000; stroke-linecap:round; stroke-linejoin:round; stroke-width:4; stroke-opacity:1; fill:none" points="2291.97,1423.18 2291.97,1404.28 "></polyline>
<path clip-path="url(#clip640)" d="M195.348 1481.64 L202.987 1481.64 L202.987 1455.28 L194.677 1456.95 L194.677 1452.69 L202.94 1451.02 L207.616 1451.02 L207.616 1481.64 L215.255 1481.64 L215.255 1485.58 L195.348 1485.58 L195.348 1481.64 Z" fill="#000000" fill-rule="nonzero" fill-opacity="1"></path><path clip-path="url(#clip640)" d="M224.839 1484.86 L224.839 1480.6 Q226.598 1481.44 228.403 1481.88 Q230.209 1482.32 231.945 1482.32 Q236.575 1482.32 239.005 1479.21 Q241.459 1476.09 241.806 1469.75 Q240.463 1471.74 238.403 1472.8 Q236.343 1473.87 233.843 1473.87 Q228.658 1473.87 225.626 1470.74 Q222.616 1467.59 222.616 1462.15 Q222.616 1456.83 225.764 1453.61 Q228.913 1450.39 234.144 1450.39 Q240.139 1450.39 243.287 1455 Q246.459 1459.58 246.459 1468.33 Q246.459 1476.51 242.57 1481.39 Q238.704 1486.25 232.153 1486.25 Q230.394 1486.25 228.588 1485.9 Q226.783 1485.56 224.839 1484.86 M234.144 1470.21 Q237.292 1470.21 239.121 1468.06 Q240.973 1465.9 240.973 1462.15 Q240.973 1458.43 239.121 1456.27 Q237.292 1454.1 234.144 1454.1 Q230.996 1454.1 229.144 1456.27 Q227.315 1458.43 227.315 1462.15 Q227.315 1465.9 229.144 1468.06 Q230.996 1470.21 234.144 1470.21 Z" fill="#000000" fill-rule="nonzero" fill-opacity="1"></path><path clip-path="url(#clip640)" d="M264.861 1454.1 Q261.25 1454.1 259.422 1457.66 Q257.616 1461.2 257.616 1468.33 Q257.616 1475.44 259.422 1479.01 Q261.25 1482.55 264.861 1482.55 Q268.496 1482.55 270.301 1479.01 Q272.13 1475.44 272.13 1468.33 Q272.13 1461.2 270.301 1457.66 Q268.496 1454.1 264.861 1454.1 M264.861 1450.39 Q270.672 1450.39 273.727 1455 Q276.806 1459.58 276.806 1468.33 Q276.806 1477.06 273.727 1481.67 Q270.672 1486.25 264.861 1486.25 Q259.051 1486.25 255.973 1481.67 Q252.917 1477.06 252.917 1468.33 Q252.917 1459.58 255.973 1455 Q259.051 1450.39 264.861 1450.39 Z" fill="#000000" fill-rule="nonzero" fill-opacity="1"></path><path clip-path="url(#clip640)" d="M295.023 1454.1 Q291.412 1454.1 289.584 1457.66 Q287.778 1461.2 287.778 1468.33 Q287.778 1475.44 289.584 1479.01 Q291.412 1482.55 295.023 1482.55 Q298.658 1482.55 300.463 1479.01 Q302.292 1475.44 302.292 1468.33 Q302.292 1461.2 300.463 1457.66 Q298.658 1454.1 295.023 1454.1 M295.023 1450.39 Q300.833 1450.39 303.889 1455 Q306.968 1459.58 306.968 1468.33 Q306.968 1477.06 303.889 1481.67 Q300.833 1486.25 295.023 1486.25 Q289.213 1486.25 286.134 1481.67 Q283.079 1477.06 283.079 1468.33 Q283.079 1459.58 286.134 1455 Q289.213 1450.39 295.023 1450.39 Z" fill="#000000" fill-rule="nonzero" fill-opacity="1"></path><path clip-path="url(#clip640)" d="M325.185 1454.1 Q321.574 1454.1 319.745 1457.66 Q317.94 1461.2 317.94 1468.33 Q317.94 1475.44 319.745 1479.01 Q321.574 1482.55 325.185 1482.55 Q328.819 1482.55 330.625 1479.01 Q332.454 1475.44 332.454 1468.33 Q332.454 1461.2 330.625 1457.66 Q328.819 1454.1 325.185 1454.1 M325.185 1450.39 Q330.995 1450.39 334.051 1455 Q337.13 1459.58 337.13 1468.33 Q337.13 1477.06 334.051 1481.67 Q330.995 1486.25 325.185 1486.25 Q319.375 1486.25 316.296 1481.67 Q313.241 1477.06 313.241 1468.33 Q313.241 1459.58 316.296 1455 Q319.375 1450.39 325.185 1450.39 Z" fill="#000000" fill-rule="nonzero" fill-opacity="1"></path><path clip-path="url(#clip640)" d="M701.866 1481.64 L709.504 1481.64 L709.504 1455.28 L701.194 1456.95 L701.194 1452.69 L709.458 1451.02 L714.134 1451.02 L714.134 1481.64 L721.773 1481.64 L721.773 1485.58 L701.866 1485.58 L701.866 1481.64 Z" fill="#000000" fill-rule="nonzero" fill-opacity="1"></path><path clip-path="url(#clip640)" d="M731.356 1484.86 L731.356 1480.6 Q733.115 1481.44 734.921 1481.88 Q736.727 1482.32 738.463 1482.32 Q743.092 1482.32 745.523 1479.21 Q747.976 1476.09 748.324 1469.75 Q746.981 1471.74 744.921 1472.8 Q742.861 1473.87 740.361 1473.87 Q735.176 1473.87 732.143 1470.74 Q729.134 1467.59 729.134 1462.15 Q729.134 1456.83 732.282 1453.61 Q735.43 1450.39 740.662 1450.39 Q746.657 1450.39 749.805 1455 Q752.976 1459.58 752.976 1468.33 Q752.976 1476.51 749.088 1481.39 Q745.222 1486.25 738.671 1486.25 Q736.912 1486.25 735.106 1485.9 Q733.301 1485.56 731.356 1484.86 M740.662 1470.21 Q743.81 1470.21 745.639 1468.06 Q747.49 1465.9 747.49 1462.15 Q747.49 1458.43 745.639 1456.27 Q743.81 1454.1 740.662 1454.1 Q737.514 1454.1 735.662 1456.27 Q733.833 1458.43 733.833 1462.15 Q733.833 1465.9 735.662 1468.06 Q737.514 1470.21 740.662 1470.21 Z" fill="#000000" fill-rule="nonzero" fill-opacity="1"></path><path clip-path="url(#clip640)" d="M765.407 1481.64 L781.726 1481.64 L781.726 1485.58 L759.782 1485.58 L759.782 1481.64 Q762.444 1478.89 767.027 1474.26 Q771.634 1469.61 772.814 1468.27 Q775.06 1465.74 775.939 1464.01 Q776.842 1462.25 776.842 1460.56 Q776.842 1457.8 774.898 1456.07 Q772.976 1454.33 769.874 1454.33 Q767.675 1454.33 765.222 1455.09 Q762.791 1455.86 760.013 1457.41 L760.013 1452.69 Q762.837 1451.55 765.291 1450.97 Q767.745 1450.39 769.782 1450.39 Q775.152 1450.39 778.347 1453.08 Q781.541 1455.77 781.541 1460.26 Q781.541 1462.39 780.731 1464.31 Q779.944 1466.2 777.837 1468.8 Q777.259 1469.47 774.157 1472.69 Q771.055 1475.88 765.407 1481.64 Z" fill="#000000" fill-rule="nonzero" fill-opacity="1"></path><path clip-path="url(#clip640)" d="M791.587 1451.02 L809.944 1451.02 L809.944 1454.96 L795.87 1454.96 L795.87 1463.43 Q796.888 1463.08 797.907 1462.92 Q798.925 1462.73 799.944 1462.73 Q805.731 1462.73 809.11 1465.9 Q812.49 1469.08 812.49 1474.49 Q812.49 1480.07 809.018 1483.17 Q805.546 1486.25 799.226 1486.25 Q797.05 1486.25 794.782 1485.88 Q792.536 1485.51 790.129 1484.77 L790.129 1480.07 Q792.212 1481.2 794.435 1481.76 Q796.657 1482.32 799.134 1482.32 Q803.138 1482.32 805.476 1480.21 Q807.814 1478.1 807.814 1474.49 Q807.814 1470.88 805.476 1468.77 Q803.138 1466.67 799.134 1466.67 Q797.259 1466.67 795.384 1467.08 Q793.532 1467.5 791.587 1468.38 L791.587 1451.02 Z" fill="#000000" fill-rule="nonzero" fill-opacity="1"></path><path clip-path="url(#clip640)" d="M831.703 1454.1 Q828.092 1454.1 826.263 1457.66 Q824.458 1461.2 824.458 1468.33 Q824.458 1475.44 826.263 1479.01 Q828.092 1482.55 831.703 1482.55 Q835.337 1482.55 837.143 1479.01 Q838.971 1475.44 838.971 1468.33 Q838.971 1461.2 837.143 1457.66 Q835.337 1454.1 831.703 1454.1 M831.703 1450.39 Q837.513 1450.39 840.569 1455 Q843.647 1459.58 843.647 1468.33 Q843.647 1477.06 840.569 1481.67 Q837.513 1486.25 831.703 1486.25 Q825.893 1486.25 822.814 1481.67 Q819.758 1477.06 819.758 1468.33 Q819.758 1459.58 822.814 1455 Q825.893 1450.39 831.703 1450.39 Z" fill="#000000" fill-rule="nonzero" fill-opacity="1"></path><path clip-path="url(#clip640)" d="M1208.38 1481.64 L1216.02 1481.64 L1216.02 1455.28 L1207.71 1456.95 L1207.71 1452.69 L1215.98 1451.02 L1220.65 1451.02 L1220.65 1481.64 L1228.29 1481.64 L1228.29 1485.58 L1208.38 1485.58 L1208.38 1481.64 Z" fill="#000000" fill-rule="nonzero" fill-opacity="1"></path><path clip-path="url(#clip640)" d="M1237.87 1484.86 L1237.87 1480.6 Q1239.63 1481.44 1241.44 1481.88 Q1243.24 1482.32 1244.98 1482.32 Q1249.61 1482.32 1252.04 1479.21 Q1254.49 1476.09 1254.84 1469.75 Q1253.5 1471.74 1251.44 1472.8 Q1249.38 1473.87 1246.88 1473.87 Q1241.69 1473.87 1238.66 1470.74 Q1235.65 1467.59 1235.65 1462.15 Q1235.65 1456.83 1238.8 1453.61 Q1241.95 1450.39 1247.18 1450.39 Q1253.17 1450.39 1256.32 1455 Q1259.49 1459.58 1259.49 1468.33 Q1259.49 1476.51 1255.61 1481.39 Q1251.74 1486.25 1245.19 1486.25 Q1243.43 1486.25 1241.62 1485.9 Q1239.82 1485.56 1237.87 1484.86 M1247.18 1470.21 Q1250.33 1470.21 1252.16 1468.06 Q1254.01 1465.9 1254.01 1462.15 Q1254.01 1458.43 1252.16 1456.27 Q1250.33 1454.1 1247.18 1454.1 Q1244.03 1454.1 1242.18 1456.27 Q1240.35 1458.43 1240.35 1462.15 Q1240.35 1465.9 1242.18 1468.06 Q1244.03 1470.21 1247.18 1470.21 Z" fill="#000000" fill-rule="nonzero" fill-opacity="1"></path><path clip-path="url(#clip640)" d="M1267.94 1451.02 L1286.3 1451.02 L1286.3 1454.96 L1272.23 1454.96 L1272.23 1463.43 Q1273.24 1463.08 1274.26 1462.92 Q1275.28 1462.73 1276.3 1462.73 Q1282.09 1462.73 1285.47 1465.9 Q1288.85 1469.08 1288.85 1474.49 Q1288.85 1480.07 1285.37 1483.17 Q1281.9 1486.25 1275.58 1486.25 Q1273.41 1486.25 1271.14 1485.88 Q1268.89 1485.51 1266.48 1484.77 L1266.48 1480.07 Q1268.57 1481.2 1270.79 1481.76 Q1273.01 1482.32 1275.49 1482.32 Q1279.49 1482.32 1281.83 1480.21 Q1284.17 1478.1 1284.17 1474.49 Q1284.17 1470.88 1281.83 1468.77 Q1279.49 1466.67 1275.49 1466.67 Q1273.61 1466.67 1271.74 1467.08 Q1269.89 1467.5 1267.94 1468.38 L1267.94 1451.02 Z" fill="#000000" fill-rule="nonzero" fill-opacity="1"></path><path clip-path="url(#clip640)" d="M1308.06 1454.1 Q1304.45 1454.1 1302.62 1457.66 Q1300.81 1461.2 1300.81 1468.33 Q1300.81 1475.44 1302.62 1479.01 Q1304.45 1482.55 1308.06 1482.55 Q1311.69 1482.55 1313.5 1479.01 Q1315.33 1475.44 1315.33 1468.33 Q1315.33 1461.2 1313.5 1457.66 Q1311.69 1454.1 1308.06 1454.1 M1308.06 1450.39 Q1313.87 1450.39 1316.92 1455 Q1320 1459.58 1320 1468.33 Q1320 1477.06 1316.92 1481.67 Q1313.87 1486.25 1308.06 1486.25 Q1302.25 1486.25 1299.17 1481.67 Q1296.11 1477.06 1296.11 1468.33 Q1296.11 1459.58 1299.17 1455 Q1302.25 1450.39 1308.06 1450.39 Z" fill="#000000" fill-rule="nonzero" fill-opacity="1"></path><path clip-path="url(#clip640)" d="M1338.22 1454.1 Q1334.61 1454.1 1332.78 1457.66 Q1330.98 1461.2 1330.98 1468.33 Q1330.98 1475.44 1332.78 1479.01 Q1334.61 1482.55 1338.22 1482.55 Q1341.85 1482.55 1343.66 1479.01 Q1345.49 1475.44 1345.49 1468.33 Q1345.49 1461.2 1343.66 1457.66 Q1341.85 1454.1 1338.22 1454.1 M1338.22 1450.39 Q1344.03 1450.39 1347.09 1455 Q1350.16 1459.58 1350.16 1468.33 Q1350.16 1477.06 1347.09 1481.67 Q1344.03 1486.25 1338.22 1486.25 Q1332.41 1486.25 1329.33 1481.67 Q1326.28 1477.06 1326.28 1468.33 Q1326.28 1459.58 1329.33 1455 Q1332.41 1450.39 1338.22 1450.39 Z" fill="#000000" fill-rule="nonzero" fill-opacity="1"></path><path clip-path="url(#clip640)" d="M1714.9 1481.64 L1722.54 1481.64 L1722.54 1455.28 L1714.23 1456.95 L1714.23 1452.69 L1722.49 1451.02 L1727.17 1451.02 L1727.17 1481.64 L1734.81 1481.64 L1734.81 1485.58 L1714.9 1485.58 L1714.9 1481.64 Z" fill="#000000" fill-rule="nonzero" fill-opacity="1"></path><path clip-path="url(#clip640)" d="M1744.39 1484.86 L1744.39 1480.6 Q1746.15 1481.44 1747.96 1481.88 Q1749.76 1482.32 1751.5 1482.32 Q1756.13 1482.32 1758.56 1479.21 Q1761.01 1476.09 1761.36 1469.75 Q1760.02 1471.74 1757.96 1472.8 Q1755.9 1473.87 1753.4 1473.87 Q1748.21 1473.87 1745.18 1470.74 Q1742.17 1467.59 1742.17 1462.15 Q1742.17 1456.83 1745.32 1453.61 Q1748.47 1450.39 1753.7 1450.39 Q1759.69 1450.39 1762.84 1455 Q1766.01 1459.58 1766.01 1468.33 Q1766.01 1476.51 1762.12 1481.39 Q1758.26 1486.25 1751.71 1486.25 Q1749.95 1486.25 1748.14 1485.9 Q1746.34 1485.56 1744.39 1484.86 M1753.7 1470.21 Q1756.85 1470.21 1758.67 1468.06 Q1760.53 1465.9 1760.53 1462.15 Q1760.53 1458.43 1758.67 1456.27 Q1756.85 1454.1 1753.7 1454.1 Q1750.55 1454.1 1748.7 1456.27 Q1746.87 1458.43 1746.87 1462.15 Q1746.87 1465.9 1748.7 1468.06 Q1750.55 1470.21 1753.7 1470.21 Z" fill="#000000" fill-rule="nonzero" fill-opacity="1"></path><path clip-path="url(#clip640)" d="M1773.23 1451.02 L1795.46 1451.02 L1795.46 1453.01 L1782.91 1485.58 L1778.03 1485.58 L1789.83 1454.96 L1773.23 1454.96 L1773.23 1451.02 Z" fill="#000000" fill-rule="nonzero" fill-opacity="1"></path><path clip-path="url(#clip640)" d="M1804.62 1451.02 L1822.98 1451.02 L1822.98 1454.96 L1808.91 1454.96 L1808.91 1463.43 Q1809.92 1463.08 1810.94 1462.92 Q1811.96 1462.73 1812.98 1462.73 Q1818.77 1462.73 1822.15 1465.9 Q1825.53 1469.08 1825.53 1474.49 Q1825.53 1480.07 1822.05 1483.17 Q1818.58 1486.25 1812.26 1486.25 Q1810.09 1486.25 1807.82 1485.88 Q1805.57 1485.51 1803.16 1484.77 L1803.16 1480.07 Q1805.25 1481.2 1807.47 1481.76 Q1809.69 1482.32 1812.17 1482.32 Q1816.17 1482.32 1818.51 1480.21 Q1820.85 1478.1 1820.85 1474.49 Q1820.85 1470.88 1818.51 1468.77 Q1816.17 1466.67 1812.17 1466.67 Q1810.29 1466.67 1808.42 1467.08 Q1806.57 1467.5 1804.62 1468.38 L1804.62 1451.02 Z" fill="#000000" fill-rule="nonzero" fill-opacity="1"></path><path clip-path="url(#clip640)" d="M1844.74 1454.1 Q1841.13 1454.1 1839.3 1457.66 Q1837.49 1461.2 1837.49 1468.33 Q1837.49 1475.44 1839.3 1479.01 Q1841.13 1482.55 1844.74 1482.55 Q1848.37 1482.55 1850.18 1479.01 Q1852.01 1475.44 1852.01 1468.33 Q1852.01 1461.2 1850.18 1457.66 Q1848.37 1454.1 1844.74 1454.1 M1844.74 1450.39 Q1850.55 1450.39 1853.6 1455 Q1856.68 1459.58 1856.68 1468.33 Q1856.68 1477.06 1853.6 1481.67 Q1850.55 1486.25 1844.74 1486.25 Q1838.93 1486.25 1835.85 1481.67 Q1832.79 1477.06 1832.79 1468.33 Q1832.79 1459.58 1835.85 1455 Q1838.93 1450.39 1844.74 1450.39 Z" fill="#000000" fill-rule="nonzero" fill-opacity="1"></path><path clip-path="url(#clip640)" d="M2225.5 1481.64 L2241.82 1481.64 L2241.82 1485.58 L2219.88 1485.58 L2219.88 1481.64 Q2222.54 1478.89 2227.12 1474.26 Q2231.73 1469.61 2232.91 1468.27 Q2235.16 1465.74 2236.04 1464.01 Q2236.94 1462.25 2236.94 1460.56 Q2236.94 1457.8 2234.99 1456.07 Q2233.07 1454.33 2229.97 1454.33 Q2227.77 1454.33 2225.32 1455.09 Q2222.89 1455.86 2220.11 1457.41 L2220.11 1452.69 Q2222.93 1451.55 2225.39 1450.97 Q2227.84 1450.39 2229.88 1450.39 Q2235.25 1450.39 2238.44 1453.08 Q2241.64 1455.77 2241.64 1460.26 Q2241.64 1462.39 2240.83 1464.31 Q2240.04 1466.2 2237.93 1468.8 Q2237.36 1469.47 2234.25 1472.69 Q2231.15 1475.88 2225.5 1481.64 Z" fill="#000000" fill-rule="nonzero" fill-opacity="1"></path><path clip-path="url(#clip640)" d="M2261.64 1454.1 Q2258.03 1454.1 2256.2 1457.66 Q2254.39 1461.2 2254.39 1468.33 Q2254.39 1475.44 2256.2 1479.01 Q2258.03 1482.55 2261.64 1482.55 Q2265.27 1482.55 2267.08 1479.01 Q2268.91 1475.44 2268.91 1468.33 Q2268.91 1461.2 2267.08 1457.66 Q2265.27 1454.1 2261.64 1454.1 M2261.64 1450.39 Q2267.45 1450.39 2270.5 1455 Q2273.58 1459.58 2273.58 1468.33 Q2273.58 1477.06 2270.5 1481.67 Q2267.45 1486.25 2261.64 1486.25 Q2255.83 1486.25 2252.75 1481.67 Q2249.69 1477.06 2249.69 1468.33 Q2249.69 1459.58 2252.75 1455 Q2255.83 1450.39 2261.64 1450.39 Z" fill="#000000" fill-rule="nonzero" fill-opacity="1"></path><path clip-path="url(#clip640)" d="M2291.8 1454.1 Q2288.19 1454.1 2286.36 1457.66 Q2284.55 1461.2 2284.55 1468.33 Q2284.55 1475.44 2286.36 1479.01 Q2288.19 1482.55 2291.8 1482.55 Q2295.43 1482.55 2297.24 1479.01 Q2299.07 1475.44 2299.07 1468.33 Q2299.07 1461.2 2297.24 1457.66 Q2295.43 1454.1 2291.8 1454.1 M2291.8 1450.39 Q2297.61 1450.39 2300.67 1455 Q2303.74 1459.58 2303.74 1468.33 Q2303.74 1477.06 2300.67 1481.67 Q2297.61 1486.25 2291.8 1486.25 Q2285.99 1486.25 2282.91 1481.67 Q2279.86 1477.06 2279.86 1468.33 Q2279.86 1459.58 2282.91 1455 Q2285.99 1450.39 2291.8 1450.39 Z" fill="#000000" fill-rule="nonzero" fill-opacity="1"></path><path clip-path="url(#clip640)" d="M2321.96 1454.1 Q2318.35 1454.1 2316.52 1457.66 Q2314.72 1461.2 2314.72 1468.33 Q2314.72 1475.44 2316.52 1479.01 Q2318.35 1482.55 2321.96 1482.55 Q2325.6 1482.55 2327.4 1479.01 Q2329.23 1475.44 2329.23 1468.33 Q2329.23 1461.2 2327.4 1457.66 Q2325.6 1454.1 2321.96 1454.1 M2321.96 1450.39 Q2327.77 1450.39 2330.83 1455 Q2333.91 1459.58 2333.91 1468.33 Q2333.91 1477.06 2330.83 1481.67 Q2327.77 1486.25 2321.96 1486.25 Q2316.15 1486.25 2313.07 1481.67 Q2310.02 1477.06 2310.02 1468.33 Q2310.02 1459.58 2313.07 1455 Q2316.15 1450.39 2321.96 1450.39 Z" fill="#000000" fill-rule="nonzero" fill-opacity="1"></path><path clip-path="url(#clip640)" d="M2352.12 1454.1 Q2348.51 1454.1 2346.68 1457.66 Q2344.88 1461.2 2344.88 1468.33 Q2344.88 1475.44 2346.68 1479.01 Q2348.51 1482.55 2352.12 1482.55 Q2355.76 1482.55 2357.56 1479.01 Q2359.39 1475.44 2359.39 1468.33 Q2359.39 1461.2 2357.56 1457.66 Q2355.76 1454.1 2352.12 1454.1 M2352.12 1450.39 Q2357.93 1450.39 2360.99 1455 Q2364.07 1459.58 2364.07 1468.33 Q2364.07 1477.06 2360.99 1481.67 Q2357.93 1486.25 2352.12 1486.25 Q2346.31 1486.25 2343.24 1481.67 Q2340.18 1477.06 2340.18 1468.33 Q2340.18 1459.58 2343.24 1455 Q2346.31 1450.39 2352.12 1450.39 Z" fill="#000000" fill-rule="nonzero" fill-opacity="1"></path><path clip-path="url(#clip640)" d="M1223.41 1520.52 L1229.84 1520.52 L1229.84 1564.73 Q1229.84 1573.33 1226.56 1577.21 Q1223.32 1581.09 1216.09 1581.09 L1213.64 1581.09 L1213.64 1575.68 L1215.65 1575.68 Q1219.91 1575.68 1221.66 1573.3 Q1223.41 1570.91 1223.41 1564.73 L1223.41 1520.52 Z" fill="#000000" fill-rule="nonzero" fill-opacity="1"></path><path clip-path="url(#clip640)" d="M1256.2 1536.5 Q1251.49 1536.5 1248.75 1540.19 Q1246.01 1543.85 1246.01 1550.25 Q1246.01 1556.65 1248.72 1560.34 Q1251.45 1564 1256.2 1564 Q1260.88 1564 1263.61 1560.31 Q1266.35 1556.62 1266.35 1550.25 Q1266.35 1543.92 1263.61 1540.23 Q1260.88 1536.5 1256.2 1536.5 M1256.2 1531.54 Q1263.84 1531.54 1268.2 1536.5 Q1272.56 1541.47 1272.56 1550.25 Q1272.56 1559 1268.2 1564 Q1263.84 1568.97 1256.2 1568.97 Q1248.53 1568.97 1244.17 1564 Q1239.84 1559 1239.84 1550.25 Q1239.84 1541.47 1244.17 1536.5 Q1248.53 1531.54 1256.2 1531.54 Z" fill="#000000" fill-rule="nonzero" fill-opacity="1"></path><path clip-path="url(#clip640)" d="M1281.66 1553.98 L1281.66 1532.4 L1287.52 1532.4 L1287.52 1553.75 Q1287.52 1558.81 1289.49 1561.36 Q1291.46 1563.87 1295.41 1563.87 Q1300.15 1563.87 1302.89 1560.85 Q1305.66 1557.83 1305.66 1552.61 L1305.66 1532.4 L1311.51 1532.4 L1311.51 1568.04 L1305.66 1568.04 L1305.66 1562.57 Q1303.53 1565.82 1300.69 1567.41 Q1297.89 1568.97 1294.17 1568.97 Q1288.03 1568.97 1284.84 1565.15 Q1281.66 1561.33 1281.66 1553.98 M1296.4 1531.54 L1296.4 1531.54 Z" fill="#000000" fill-rule="nonzero" fill-opacity="1"></path><path clip-path="url(#clip640)" d="M1344.23 1537.87 Q1343.25 1537.3 1342.07 1537.04 Q1340.92 1536.76 1339.52 1536.76 Q1334.56 1536.76 1331.89 1540 Q1329.24 1543.22 1329.24 1549.27 L1329.24 1568.04 L1323.36 1568.04 L1323.36 1532.4 L1329.24 1532.4 L1329.24 1537.93 Q1331.09 1534.69 1334.05 1533.13 Q1337.01 1531.54 1341.24 1531.54 Q1341.85 1531.54 1342.58 1531.63 Q1343.31 1531.7 1344.2 1531.85 L1344.23 1537.87 Z" fill="#000000" fill-rule="nonzero" fill-opacity="1"></path><polyline clip-path="url(#clip642)" style="stroke:#000000; stroke-linecap:round; stroke-linejoin:round; stroke-width:2; stroke-opacity:0.1; fill:none" points="205.121,1228.47 2352.76,1228.47 "></polyline>
<polyline clip-path="url(#clip642)" style="stroke:#000000; stroke-linecap:round; stroke-linejoin:round; stroke-width:2; stroke-opacity:0.1; fill:none" points="205.121,882.325 2352.76,882.325 "></polyline>
<polyline clip-path="url(#clip642)" style="stroke:#000000; stroke-linecap:round; stroke-linejoin:round; stroke-width:2; stroke-opacity:0.1; fill:none" points="205.121,536.177 2352.76,536.177 "></polyline>
<polyline clip-path="url(#clip642)" style="stroke:#000000; stroke-linecap:round; stroke-linejoin:round; stroke-width:2; stroke-opacity:0.1; fill:none" points="205.121,190.03 2352.76,190.03 "></polyline>
<polyline clip-path="url(#clip640)" style="stroke:#000000; stroke-linecap:round; stroke-linejoin:round; stroke-width:4; stroke-opacity:1; fill:none" points="205.121,1423.18 205.121,47.2441 "></polyline>
<polyline clip-path="url(#clip640)" style="stroke:#000000; stroke-linecap:round; stroke-linejoin:round; stroke-width:4; stroke-opacity:1; fill:none" points="205.121,1228.47 224.019,1228.47 "></polyline>
<polyline clip-path="url(#clip640)" style="stroke:#000000; stroke-linecap:round; stroke-linejoin:round; stroke-width:4; stroke-opacity:1; fill:none" points="205.121,882.325 224.019,882.325 "></polyline>
<polyline clip-path="url(#clip640)" style="stroke:#000000; stroke-linecap:round; stroke-linejoin:round; stroke-width:4; stroke-opacity:1; fill:none" points="205.121,536.177 224.019,536.177 "></polyline>
<polyline clip-path="url(#clip640)" style="stroke:#000000; stroke-linecap:round; stroke-linejoin:round; stroke-width:4; stroke-opacity:1; fill:none" points="205.121,190.03 224.019,190.03 "></polyline>
<path clip-path="url(#clip640)" d="M121.043 1241.82 L137.362 1241.82 L137.362 1245.75 L115.418 1245.75 L115.418 1241.82 Q118.08 1239.06 122.663 1234.43 Q127.269 1229.78 128.45 1228.44 Q130.695 1225.91 131.575 1224.18 Q132.478 1222.42 132.478 1220.73 Q132.478 1217.97 130.533 1216.24 Q128.612 1214.5 125.51 1214.5 Q123.311 1214.5 120.857 1215.27 Q118.427 1216.03 115.649 1217.58 L115.649 1212.86 Q118.473 1211.72 120.927 1211.15 Q123.38 1210.57 125.418 1210.57 Q130.788 1210.57 133.982 1213.25 Q137.177 1215.94 137.177 1220.43 Q137.177 1222.56 136.367 1224.48 Q135.579 1226.38 133.473 1228.97 Q132.894 1229.64 129.792 1232.86 Q126.691 1236.05 121.043 1241.82 Z" fill="#000000" fill-rule="nonzero" fill-opacity="1"></path><path clip-path="url(#clip640)" d="M157.177 1214.27 Q153.566 1214.27 151.737 1217.84 Q149.931 1221.38 149.931 1228.51 Q149.931 1235.61 151.737 1239.18 Q153.566 1242.72 157.177 1242.72 Q160.811 1242.72 162.616 1239.18 Q164.445 1235.61 164.445 1228.51 Q164.445 1221.38 162.616 1217.84 Q160.811 1214.27 157.177 1214.27 M157.177 1210.57 Q162.987 1210.57 166.042 1215.17 Q169.121 1219.76 169.121 1228.51 Q169.121 1237.23 166.042 1241.84 Q162.987 1246.42 157.177 1246.42 Q151.366 1246.42 148.288 1241.84 Q145.232 1237.23 145.232 1228.51 Q145.232 1219.76 148.288 1215.17 Q151.366 1210.57 157.177 1210.57 Z" fill="#000000" fill-rule="nonzero" fill-opacity="1"></path><path clip-path="url(#clip640)" d="M129.862 869.119 L118.056 887.568 L129.862 887.568 L129.862 869.119 M128.635 865.045 L134.515 865.045 L134.515 887.568 L139.445 887.568 L139.445 891.456 L134.515 891.456 L134.515 899.605 L129.862 899.605 L129.862 891.456 L114.26 891.456 L114.26 886.943 L128.635 865.045 Z" fill="#000000" fill-rule="nonzero" fill-opacity="1"></path><path clip-path="url(#clip640)" d="M157.177 868.123 Q153.566 868.123 151.737 871.688 Q149.931 875.23 149.931 882.359 Q149.931 889.466 151.737 893.031 Q153.566 896.572 157.177 896.572 Q160.811 896.572 162.616 893.031 Q164.445 889.466 164.445 882.359 Q164.445 875.23 162.616 871.688 Q160.811 868.123 157.177 868.123 M157.177 864.42 Q162.987 864.42 166.042 869.026 Q169.121 873.609 169.121 882.359 Q169.121 891.086 166.042 895.693 Q162.987 900.276 157.177 900.276 Q151.366 900.276 148.288 895.693 Q145.232 891.086 145.232 882.359 Q145.232 873.609 148.288 869.026 Q151.366 864.42 157.177 864.42 Z" fill="#000000" fill-rule="nonzero" fill-opacity="1"></path><path clip-path="url(#clip640)" d="M127.593 534.314 Q124.445 534.314 122.593 536.467 Q120.765 538.619 120.765 542.369 Q120.765 546.096 122.593 548.272 Q124.445 550.425 127.593 550.425 Q130.742 550.425 132.57 548.272 Q134.422 546.096 134.422 542.369 Q134.422 538.619 132.57 536.467 Q130.742 534.314 127.593 534.314 M136.876 519.661 L136.876 523.92 Q135.117 523.087 133.311 522.647 Q131.529 522.207 129.769 522.207 Q125.14 522.207 122.686 525.332 Q120.255 528.457 119.908 534.777 Q121.274 532.763 123.334 531.698 Q125.394 530.61 127.871 530.61 Q133.08 530.61 136.089 533.781 Q139.121 536.93 139.121 542.369 Q139.121 547.693 135.973 550.911 Q132.825 554.129 127.593 554.129 Q121.598 554.129 118.427 549.545 Q115.256 544.939 115.256 536.212 Q115.256 528.018 119.144 523.156 Q123.033 518.272 129.584 518.272 Q131.343 518.272 133.126 518.619 Q134.931 518.967 136.876 519.661 Z" fill="#000000" fill-rule="nonzero" fill-opacity="1"></path><path clip-path="url(#clip640)" d="M157.177 521.976 Q153.566 521.976 151.737 525.541 Q149.931 529.082 149.931 536.212 Q149.931 543.318 151.737 546.883 Q153.566 550.425 157.177 550.425 Q160.811 550.425 162.616 546.883 Q164.445 543.318 164.445 536.212 Q164.445 529.082 162.616 525.541 Q160.811 521.976 157.177 521.976 M157.177 518.272 Q162.987 518.272 166.042 522.879 Q169.121 527.462 169.121 536.212 Q169.121 544.939 166.042 549.545 Q162.987 554.129 157.177 554.129 Q151.366 554.129 148.288 549.545 Q145.232 544.939 145.232 536.212 Q145.232 527.462 148.288 522.879 Q151.366 518.272 157.177 518.272 Z" fill="#000000" fill-rule="nonzero" fill-opacity="1"></path><path clip-path="url(#clip640)" d="M127.015 190.898 Q123.681 190.898 121.76 192.68 Q119.862 194.463 119.862 197.588 Q119.862 200.713 121.76 202.495 Q123.681 204.277 127.015 204.277 Q130.348 204.277 132.269 202.495 Q134.191 200.69 134.191 197.588 Q134.191 194.463 132.269 192.68 Q130.371 190.898 127.015 190.898 M122.339 188.907 Q119.33 188.166 117.64 186.106 Q115.973 184.046 115.973 181.083 Q115.973 176.94 118.913 174.532 Q121.876 172.125 127.015 172.125 Q132.177 172.125 135.117 174.532 Q138.056 176.94 138.056 181.083 Q138.056 184.046 136.367 186.106 Q134.7 188.166 131.714 188.907 Q135.093 189.694 136.968 191.986 Q138.867 194.278 138.867 197.588 Q138.867 202.611 135.788 205.296 Q132.732 207.981 127.015 207.981 Q121.297 207.981 118.218 205.296 Q115.163 202.611 115.163 197.588 Q115.163 194.278 117.061 191.986 Q118.959 189.694 122.339 188.907 M120.626 181.523 Q120.626 184.208 122.293 185.713 Q123.982 187.217 127.015 187.217 Q130.024 187.217 131.714 185.713 Q133.427 184.208 133.427 181.523 Q133.427 178.838 131.714 177.333 Q130.024 175.829 127.015 175.829 Q123.982 175.829 122.293 177.333 Q120.626 178.838 120.626 181.523 Z" fill="#000000" fill-rule="nonzero" fill-opacity="1"></path><path clip-path="url(#clip640)" d="M157.177 175.829 Q153.566 175.829 151.737 179.393 Q149.931 182.935 149.931 190.065 Q149.931 197.171 151.737 200.736 Q153.566 204.277 157.177 204.277 Q160.811 204.277 162.616 200.736 Q164.445 197.171 164.445 190.065 Q164.445 182.935 162.616 179.393 Q160.811 175.829 157.177 175.829 M157.177 172.125 Q162.987 172.125 166.042 176.731 Q169.121 181.315 169.121 190.065 Q169.121 198.791 166.042 203.398 Q162.987 207.981 157.177 207.981 Q151.366 207.981 148.288 203.398 Q145.232 198.791 145.232 190.065 Q145.232 181.315 148.288 176.731 Q151.366 172.125 157.177 172.125 Z" fill="#000000" fill-rule="nonzero" fill-opacity="1"></path><path clip-path="url(#clip640)" d="M16.4842 940.029 L16.4842 899.829 L21.895 899.829 L21.895 916.698 L64.0042 916.698 L64.0042 923.159 L21.895 923.159 L21.895 940.029 L16.4842 940.029 Z" fill="#000000" fill-rule="nonzero" fill-opacity="1"></path><path clip-path="url(#clip640)" d="M44.7161 874.462 L47.5806 874.462 L47.5806 901.389 Q53.6281 901.007 56.8109 897.76 Q59.9619 894.482 59.9619 888.657 Q59.9619 885.284 59.1344 882.132 Q58.3069 878.95 56.6518 875.83 L62.1899 875.83 Q63.5267 878.981 64.227 882.292 Q64.9272 885.602 64.9272 889.007 Q64.9272 897.537 59.9619 902.535 Q54.9967 907.5 46.5303 907.5 Q37.7774 907.5 32.6531 902.789 Q27.4968 898.047 27.4968 890.026 Q27.4968 882.833 32.1438 878.663 Q36.7589 874.462 44.7161 874.462 M42.9973 880.318 Q38.1912 880.382 35.3266 883.024 Q32.4621 885.634 32.4621 889.962 Q32.4621 894.864 35.2312 897.824 Q38.0002 900.752 43.0292 901.198 L42.9973 880.318 Z" fill="#000000" fill-rule="nonzero" fill-opacity="1"></path><path clip-path="url(#clip640)" d="M35.1993 837.095 Q31.2526 834.899 29.3747 831.843 Q27.4968 828.788 27.4968 824.65 Q27.4968 819.08 31.4117 816.056 Q35.2948 813.033 42.4881 813.033 L64.0042 813.033 L64.0042 818.921 L42.679 818.921 Q37.5546 818.921 35.072 820.735 Q32.5894 822.549 32.5894 826.273 Q32.5894 830.825 35.6131 833.467 Q38.6368 836.108 43.8567 836.108 L64.0042 836.108 L64.0042 841.997 L42.679 841.997 Q37.5228 841.997 35.072 843.811 Q32.5894 845.625 32.5894 849.413 Q32.5894 853.901 35.6449 856.542 Q38.6686 859.184 43.8567 859.184 L64.0042 859.184 L64.0042 865.072 L28.3562 865.072 L28.3562 859.184 L33.8944 859.184 Q30.616 857.179 29.0564 854.378 Q27.4968 851.577 27.4968 847.726 Q27.4968 843.843 29.4702 841.137 Q31.4436 838.4 35.1993 837.095 Z" fill="#000000" fill-rule="nonzero" fill-opacity="1"></path><path clip-path="url(#clip640)" d="M58.657 795.686 L77.5631 795.686 L77.5631 801.574 L28.3562 801.574 L28.3562 795.686 L33.7671 795.686 Q30.5842 793.84 29.0564 791.039 Q27.4968 788.206 27.4968 784.292 Q27.4968 777.799 32.6531 773.756 Q37.8093 769.682 46.212 769.682 Q54.6147 769.682 59.771 773.756 Q64.9272 777.799 64.9272 784.292 Q64.9272 788.206 63.3994 791.039 Q61.8398 793.84 58.657 795.686 M46.212 775.762 Q39.7508 775.762 36.0905 778.435 Q32.3984 781.077 32.3984 785.724 Q32.3984 790.371 36.0905 793.044 Q39.7508 795.686 46.212 795.686 Q52.6732 795.686 56.3653 793.044 Q60.0256 790.371 60.0256 785.724 Q60.0256 781.077 56.3653 778.435 Q52.6732 775.762 46.212 775.762 Z" fill="#000000" fill-rule="nonzero" fill-opacity="1"></path><path clip-path="url(#clip640)" d="M44.7161 729.483 L47.5806 729.483 L47.5806 756.41 Q53.6281 756.028 56.8109 752.781 Q59.9619 749.503 59.9619 743.678 Q59.9619 740.305 59.1344 737.154 Q58.3069 733.971 56.6518 730.851 L62.1899 730.851 Q63.5267 734.002 64.227 737.313 Q64.9272 740.623 64.9272 744.028 Q64.9272 752.559 59.9619 757.556 Q54.9967 762.521 46.5303 762.521 Q37.7774 762.521 32.6531 757.81 Q27.4968 753.068 27.4968 745.047 Q27.4968 737.854 32.1438 733.684 Q36.7589 729.483 44.7161 729.483 M42.9973 735.339 Q38.1912 735.403 35.3266 738.045 Q32.4621 740.655 32.4621 744.983 Q32.4621 749.885 35.2312 752.845 Q38.0002 755.773 43.0292 756.219 L42.9973 735.339 M11.869 740.973 L11.869 734.639 L23.8365 745.015 L23.8365 749.885 L11.869 740.973 Z" fill="#000000" fill-rule="nonzero" fill-opacity="1"></path><path clip-path="url(#clip640)" d="M33.8307 699.214 Q33.2578 700.201 33.0032 701.378 Q32.7167 702.524 32.7167 703.925 Q32.7167 708.89 35.9632 711.563 Q39.1779 714.205 45.2253 714.205 L64.0042 714.205 L64.0042 720.093 L28.3562 720.093 L28.3562 714.205 L33.8944 714.205 Q30.6479 712.359 29.0883 709.399 Q27.4968 706.439 27.4968 702.206 Q27.4968 701.601 27.5923 700.869 Q27.656 700.137 27.8151 699.246 L33.8307 699.214 Z" fill="#000000" fill-rule="nonzero" fill-opacity="1"></path><path clip-path="url(#clip640)" d="M46.0847 676.87 Q46.0847 683.968 47.7079 686.705 Q49.3312 689.443 53.2461 689.443 Q56.3653 689.443 58.2114 687.406 Q60.0256 685.337 60.0256 681.804 Q60.0256 676.934 56.5881 674.006 Q53.1188 671.046 47.3897 671.046 L46.0847 671.046 L46.0847 676.87 M43.6657 665.189 L64.0042 665.189 L64.0042 671.046 L58.5933 671.046 Q61.8398 673.051 63.3994 676.043 Q64.9272 679.035 64.9272 683.363 Q64.9272 688.838 61.8716 692.084 Q58.7843 695.299 53.6281 695.299 Q47.6125 695.299 44.5569 691.289 Q41.5014 687.246 41.5014 679.257 L41.5014 671.046 L40.9285 671.046 Q36.8862 671.046 34.6901 673.719 Q32.4621 676.361 32.4621 681.167 Q32.4621 684.223 33.1941 687.119 Q33.9262 690.015 35.3903 692.689 L29.9795 692.689 Q28.7381 689.474 28.1334 686.451 Q27.4968 683.427 27.4968 680.562 Q27.4968 672.828 31.5072 669.009 Q35.5176 665.189 43.6657 665.189 Z" fill="#000000" fill-rule="nonzero" fill-opacity="1"></path><path clip-path="url(#clip640)" d="M18.2347 647.333 L28.3562 647.333 L28.3562 635.27 L32.9077 635.27 L32.9077 647.333 L52.2594 647.333 Q56.6199 647.333 57.8613 646.156 Q59.1026 644.946 59.1026 641.286 L59.1026 635.27 L64.0042 635.27 L64.0042 641.286 Q64.0042 648.065 61.4897 650.644 Q58.9434 653.222 52.2594 653.222 L32.9077 653.222 L32.9077 657.519 L28.3562 657.519 L28.3562 653.222 L18.2347 653.222 L18.2347 647.333 Z" fill="#000000" fill-rule="nonzero" fill-opacity="1"></path><path clip-path="url(#clip640)" d="M49.9359 628.173 L28.3562 628.173 L28.3562 622.316 L49.7131 622.316 Q54.7739 622.316 57.3202 620.343 Q59.8346 618.369 59.8346 614.423 Q59.8346 609.68 56.8109 606.943 Q53.7872 604.174 48.5673 604.174 L28.3562 604.174 L28.3562 598.317 L64.0042 598.317 L64.0042 604.174 L58.5296 604.174 Q61.7762 606.306 63.3676 609.139 Q64.9272 611.94 64.9272 615.664 Q64.9272 621.807 61.1078 624.99 Q57.2883 628.173 49.9359 628.173 M27.4968 613.436 L27.4968 613.436 Z" fill="#000000" fill-rule="nonzero" fill-opacity="1"></path><path clip-path="url(#clip640)" d="M33.8307 565.598 Q33.2578 566.584 33.0032 567.762 Q32.7167 568.908 32.7167 570.308 Q32.7167 575.274 35.9632 577.947 Q39.1779 580.589 45.2253 580.589 L64.0042 580.589 L64.0042 586.477 L28.3562 586.477 L28.3562 580.589 L33.8944 580.589 Q30.6479 578.743 29.0883 575.783 Q27.4968 572.823 27.4968 568.59 Q27.4968 567.985 27.5923 567.253 Q27.656 566.521 27.8151 565.63 L33.8307 565.598 Z" fill="#000000" fill-rule="nonzero" fill-opacity="1"></path><path clip-path="url(#clip640)" d="M44.7161 530.395 L47.5806 530.395 L47.5806 557.322 Q53.6281 556.94 56.8109 553.694 Q59.9619 550.416 59.9619 544.591 Q59.9619 541.217 59.1344 538.066 Q58.3069 534.883 56.6518 531.764 L62.1899 531.764 Q63.5267 534.915 64.227 538.225 Q64.9272 541.535 64.9272 544.941 Q64.9272 553.471 59.9619 558.468 Q54.9967 563.433 46.5303 563.433 Q37.7774 563.433 32.6531 558.723 Q27.4968 553.98 27.4968 545.96 Q27.4968 538.766 32.1438 534.597 Q36.7589 530.395 44.7161 530.395 M42.9973 536.252 Q38.1912 536.315 35.3266 538.957 Q32.4621 541.567 32.4621 545.896 Q32.4621 550.797 35.2312 553.758 Q38.0002 556.686 43.0292 557.131 L42.9973 536.252 Z" fill="#000000" fill-rule="nonzero" fill-opacity="1"></path><polyline clip-path="url(#clip642)" style="stroke:#d3d3d3; stroke-linecap:round; stroke-linejoin:round; stroke-width:4; stroke-opacity:1; fill:none" points="265.903,1067.51 267.929,903.093 269.955,672.905 271.981,709.251 274.007,724.828 276.033,693.674 278.06,1133.28 280.086,1135.01 282.112,970.592 284.138,1022.51 286.164,1164.43 288.19,1115.97 290.216,1003.48 292.242,1012.13 294.268,1045.01 296.294,1264.82 298.32,1084.82 300.346,937.708 302.372,1098.67 304.398,1135.01 306.425,1079.63 308.451,1109.05 310.477,1005.21 312.503,1058.86 314.529,1167.9 316.555,1309.82 318.581,1325.39 320.607,1259.63 322.633,1230.2 324.659,1181.74 326.685,1119.44 328.711,1164.43 330.737,1050.21 332.763,1067.51 334.789,1086.55 336.816,1261.36 338.842,1250.97 340.868,1138.47 342.894,1046.74 344.92,1212.9 346.946,920.401 348.972,840.787 350.998,982.707 353.024,961.938 355.05,1079.63 357.076,1039.82 359.102,1003.48 361.128,930.785 363.154,897.901 365.181,937.708 367.207,674.636 369.233,851.171 371.259,922.132 373.285,967.131 375.311,1185.2 377.337,1271.74 379.363,1216.36 381.389,1114.24 383.415,882.325 385.441,736.943 387.467,842.518 389.493,749.058 391.519,558.677 393.546,541.369 395.572,955.016 397.598,1055.4 399.624,1025.98 401.65,955.016 403.676,749.058 405.702,958.477 407.728,712.712 409.754,570.792 411.78,721.366 413.806,764.634 415.832,828.672 417.858,534.447 419.884,550.023 421.911,743.866 423.937,740.404 425.963,738.673 427.989,814.826 430.015,724.828 432.041,743.866 434.067,833.864 436.093,873.671 438.119,944.631 440.145,960.208 442.171,967.131 444.197,910.016 446.223,861.556 448.249,877.132 450.276,813.095 452.302,775.019 454.328,794.057 456.354,740.404 458.38,852.902 460.406,821.749 462.432,799.249 464.458,755.981 466.484,665.982 468.51,619.253 470.536,475.601 472.562,446.179 474.588,331.95 476.614,556.946 478.641,698.866 480.667,671.175 482.693,524.062 484.719,546.562 486.745,477.332 488.771,510.216 490.797,541.369 492.823,446.179 494.849,598.484 496.875,570.792 498.901,614.06 500.927,724.828 502.953,633.098 504.979,451.371 507.006,378.68 509.032,389.065 511.058,411.564 513.084,546.562 515.11,581.176 517.136,444.448 519.162,290.413 521.188,506.755 523.214,665.982 525.24,655.598 527.266,510.216 529.292,527.524 531.318,534.447 533.344,499.832 535.37,451.371 537.397,337.143 539.423,259.259 541.449,281.759 543.475,321.566 545.501,368.296 547.527,401.18 549.553,276.567 551.579,240.221 553.605,274.836 555.631,373.488 557.657,432.333 559.683,318.104 561.709,425.41 563.735,470.409 565.762,307.72 567.788,226.375 569.814,425.41 571.84,344.065 573.866,325.027 575.892,444.448 577.918,563.869 579.944,492.909 581.97,394.257 583.996,283.49 586.022,235.029 588.048,305.989 590.074,311.181 592.1,349.258 594.127,354.45 596.153,456.563 598.179,397.718 600.205,357.911 602.231,214.26 604.257,151.954 606.283,193.491 608.309,328.489 610.335,357.911 612.361,404.641 614.387,465.217 616.413,415.026 618.439,406.372 620.465,335.412 622.492,267.913 624.518,286.951 626.544,212.529 628.57,145.031 630.596,155.415 632.622,210.799 634.648,283.49 636.674,286.951 638.7,300.797 640.726,202.145 642.752,241.952 644.778,262.721 646.804,278.297 648.83,250.606 650.857,257.529 652.883,354.45 654.909,314.643 656.935,440.987 658.961,390.795 660.987,318.104 663.013,276.567 665.039,266.182 667.065,241.952 669.091,309.451 671.117,300.797 673.143,231.568 675.169,221.183 677.195,170.992 679.222,184.838 681.248,193.491 683.274,285.22 685.3,273.105 687.326,176.184 689.352,115.608 691.378,205.607 693.404,316.374 695.43,437.525 697.456,280.028 699.482,221.183 701.508,305.989 703.534,264.452 705.56,214.26 707.587,215.991 709.613,395.988 711.639,466.948 713.665,484.255 715.691,527.524 717.717,529.254 719.743,439.256 721.769,331.95 723.795,226.375 725.821,222.914 727.847,311.181 729.873,331.95 731.899,347.527 733.925,330.22 735.951,359.642 737.978,425.41 740.004,392.526 742.03,382.142 744.056,389.065 746.082,347.527 748.108,267.913 750.134,252.336 752.16,280.028 754.186,222.914 756.212,321.566 758.238,383.872 760.264,473.871 762.29,418.487 764.316,447.91 766.343,614.06 768.369,612.33 770.395,588.099 772.421,520.601 774.447,477.332 776.473,404.641 778.499,378.68 780.525,333.681 782.551,420.218 784.577,404.641 786.603,286.951 788.629,297.336 790.655,325.027 792.681,447.91 794.708,505.024 796.734,511.947 798.76,508.485 800.786,356.181 802.812,307.72 804.838,349.258 806.864,380.411 808.89,302.528 810.916,286.951 812.942,305.989 814.968,418.487 816.994,496.37 819.02,600.214 821.046,688.482 823.073,641.752 825.099,615.791 827.125,537.908 829.151,492.909 831.177,430.602 833.203,342.335 835.229,434.064 837.255,508.485 839.281,485.986 841.307,363.104 843.333,409.833 845.359,640.021 847.385,607.137 849.411,432.333 851.438,640.021 853.464,816.557 855.49,747.327 857.516,705.789 859.542,581.176 861.568,761.173 863.594,733.481 865.62,736.943 867.646,771.557 869.672,707.52 871.698,851.171 873.724,923.862 875.75,930.785 877.776,885.786 879.803,920.401 881.829,840.787 883.855,695.405 885.881,768.096 887.907,633.098 889.933,830.402 891.959,897.901 893.985,871.94 896.011,844.248 898.037,814.826 900.063,681.559 902.089,550.023 904.115,873.671 906.141,1058.86 908.168,975.784 910.194,794.057 912.22,596.753 914.246,892.709 916.272,903.093 918.298,901.363 920.324,996.553 922.35,1081.36 924.376,823.48 926.402,989.63 928.428,1074.44 930.454,1121.17 932.48,1140.2 934.506,934.247 936.532,965.4 938.559,884.055 940.585,901.363 942.611,716.174 944.637,987.9 946.663,946.362 948.689,1013.86 950.715,887.517 952.741,993.092 954.767,1032.9 956.793,982.707 958.819,930.785 960.845,967.131 962.871,913.478 964.897,726.558 966.924,780.211 968.95,899.632 970.976,1034.63 973.002,934.247 975.028,918.67 977.054,736.943 979.08,951.554 981.106,890.978 983.132,922.132 985.158,993.092 987.184,1235.39 989.21,1188.67 991.236,1022.51 993.262,899.632 995.289,752.519 997.315,636.56 999.341,539.639 1001.37,795.788 1003.39,726.558 1005.42,800.98 1007.44,927.324 1009.47,913.478 1011.5,993.092 1013.52,1005.21 1015.55,1043.28 1017.58,877.132 1019.6,977.515 1021.63,1088.28 1023.65,1228.47 1025.68,1140.2 1027.71,960.208 1029.73,1122.9 1031.76,1117.7 1033.78,1095.21 1035.81,1043.28 1037.84,1027.71 1039.86,1012.13 1041.89,842.518 1043.91,1020.78 1045.94,946.362 1047.97,830.402 1049.99,977.515 1052.02,910.016 1054.04,726.558 1056.07,560.408 1058.1,646.944 1060.12,887.517 1062.15,939.439 1064.17,892.709 1066.2,1297.7 1068.23,1225.01 1070.25,783.673 1072.28,970.592 1074.31,922.132 1076.33,1003.48 1078.36,1005.21 1080.38,567.33 1082.41,908.286 1084.44,1086.55 1086.46,1133.28 1088.49,1077.9 1090.51,1012.13 1092.54,1058.86 1094.57,955.016 1096.59,897.901 1098.62,858.094 1100.64,1129.82 1102.67,1154.05 1104.7,941.17 1106.72,963.669 1108.75,849.441 1110.77,570.792 1112.8,620.983 1114.83,873.671 1116.85,925.593 1118.88,683.29 1120.9,935.977 1122.93,953.285 1124.96,861.556 1126.98,839.056 1129.01,906.555 1131.04,799.249 1133.06,755.981 1135.09,826.941 1137.11,890.978 1139.14,889.248 1141.17,816.557 1143.19,683.29 1145.22,884.055 1147.24,840.787 1149.27,925.593 1151.3,935.977 1153.32,925.593 1155.35,707.52 1157.37,807.903 1159.4,740.404 1161.43,884.055 1163.45,951.554 1165.48,814.826 1167.5,520.601 1169.53,690.213 1171.56,887.517 1173.58,762.904 1175.61,641.752 1177.63,768.096 1179.66,823.48 1181.69,787.134 1183.71,781.942 1185.74,593.292 1187.77,506.755 1189.79,460.025 1191.82,619.253 1193.84,766.365 1195.87,766.365 1197.9,762.904 1199.92,653.867 1201.95,525.793 1203.97,456.563 1206,534.447 1208.03,636.56 1210.05,615.791 1212.08,527.524 1214.1,423.679 1216.13,524.062 1218.16,570.792 1220.18,698.866 1222.21,650.406 1224.23,638.291 1226.26,742.135 1228.29,712.712 1230.31,570.792 1232.34,659.06 1234.36,596.753 1236.39,511.947 1238.42,513.678 1240.44,461.756 1242.47,363.104 1244.5,591.561 1246.52,659.06 1248.55,648.675 1250.57,754.25 1252.6,626.176 1254.63,577.715 1256.65,485.986 1258.68,562.138 1260.7,579.446 1262.73,499.832 1264.76,641.752 1266.78,731.75 1268.81,620.983 1270.83,622.714 1272.86,577.715 1274.89,517.139 1276.91,489.447 1278.94,435.795 1280.96,319.835 1282.99,498.101 1285.02,541.369 1287.04,420.218 1289.07,371.757 1291.09,316.374 1293.12,397.718 1295.15,354.45 1297.17,395.988 1299.2,418.487 1301.23,406.372 1303.25,257.529 1305.28,112.147 1307.3,86.1857 1309.33,87.9164 1311.36,222.914 1313.38,250.606 1315.41,316.374 1317.43,259.259 1319.46,269.644 1321.49,286.951 1323.51,361.373 1325.54,423.679 1327.56,463.486 1329.59,389.065 1331.62,299.066 1333.64,276.567 1335.67,276.567 1337.69,316.374 1339.72,292.143 1341.75,250.606 1343.77,183.107 1345.8,250.606 1347.82,172.723 1349.85,240.221 1351.88,257.529 1353.9,250.606 1355.93,236.76 1357.96,271.375 1359.98,323.297 1362.01,342.335 1364.03,302.528 1366.06,212.529 1368.09,235.029 1370.11,259.259 1372.14,297.336 1374.16,264.452 1376.19,262.721 1378.22,312.912 1380.24,271.375 1382.27,254.067 1384.29,210.799 1386.32,186.568 1388.35,146.761 1390.37,129.454 1392.4,151.954 1394.42,170.992 1396.45,214.26 1398.48,299.066 1400.5,281.759 1402.53,269.644 1404.55,314.643 1406.58,342.335 1408.61,236.76 1410.63,224.645 1412.66,200.414 1414.69,212.529 1416.71,267.913 1418.74,311.181 1420.76,269.644 1422.79,269.644 1424.82,241.952 1426.84,254.067 1428.87,328.489 1430.89,347.527 1432.92,430.602 1434.95,453.102 1436.97,394.257 1439,364.834 1441.02,292.143 1443.05,383.872 1445.08,347.527 1447.1,316.374 1449.13,278.297 1451.15,250.606 1453.18,428.872 1455.21,390.795 1457.23,375.219 1459.26,380.411 1461.28,337.143 1463.31,286.951 1465.34,383.872 1467.36,447.91 1469.39,408.103 1471.42,333.681 1473.44,278.297 1475.47,281.759 1477.49,338.873 1479.52,295.605 1481.55,304.259 1483.57,245.413 1485.6,238.491 1487.62,259.259 1489.65,307.72 1491.68,342.335 1493.7,371.757 1495.73,409.833 1497.75,487.717 1499.78,444.448 1501.81,292.143 1503.83,214.26 1505.86,188.299 1507.88,432.333 1509.91,479.063 1511.94,456.563 1513.96,572.523 1515.99,575.984 1518.01,522.331 1520.04,477.332 1522.07,544.831 1524.09,562.138 1526.12,577.715 1528.15,484.255 1530.17,383.872 1532.2,383.872 1534.22,411.564 1536.25,492.909 1538.28,470.409 1540.3,562.138 1542.33,619.253 1544.35,619.253 1546.38,575.984 1548.41,607.137 1550.43,705.789 1552.46,678.098 1554.48,444.448 1556.51,477.332 1558.54,582.907 1560.56,575.984 1562.59,487.717 1564.61,492.909 1566.64,444.448 1568.67,406.372 1570.69,614.06 1572.72,726.558 1574.74,773.288 1576.77,799.249 1578.8,717.905 1580.82,754.25 1582.85,800.98 1584.88,847.71 1586.9,560.408 1588.93,624.445 1590.95,719.635 1592.98,880.594 1595.01,804.441 1597.03,875.402 1599.06,811.364 1601.08,638.291 1603.11,733.481 1605.14,736.943 1607.16,672.905 1609.19,593.292 1611.21,544.831 1613.24,539.639 1615.27,569.061 1617.29,707.52 1619.32,773.288 1621.34,880.594 1623.37,849.441 1625.4,780.211 1627.42,633.098 1629.45,551.754 1631.47,702.328 1633.5,871.94 1635.53,942.9 1637.55,1053.67 1639.58,1017.32 1641.61,1000.01 1643.63,1084.82 1645.66,1084.82 1647.68,1013.86 1649.71,811.364 1651.74,927.324 1653.76,922.132 1655.79,923.862 1657.81,946.362 1659.84,935.977 1661.87,679.828 1663.89,889.248 1665.92,1000.01 1667.94,865.017 1669.97,911.747 1672,1076.17 1674.02,1015.59 1676.05,1190.4 1678.07,935.977 1680.1,530.985 1682.13,818.287 1684.15,818.287 1686.18,1025.98 1688.2,1027.71 1690.23,653.867 1692.26,773.288 1694.28,929.054 1696.31,956.746 1698.34,977.515 1700.36,1057.13 1702.39,1065.78 1704.41,1174.82 1706.44,1185.2 1708.47,937.708 1710.49,742.135 1712.52,998.284 1714.54,845.979 1716.57,567.33 1718.6,797.518 1720.62,885.786 1722.65,1010.4 1724.67,1197.32 1726.7,1122.9 1728.73,1008.67 1730.75,1034.63 1732.78,859.825 1734.8,953.285 1736.83,892.709 1738.86,923.862 1740.88,1055.4 1742.91,1069.24 1744.93,1001.75 1746.96,1109.05 1748.99,1107.32 1751.01,1114.24 1753.04,1204.24 1755.07,1330.59 1757.09,1384.24 1759.12,1098.67 1761.14,1005.21 1763.17,1180.01 1765.2,1216.36 1767.22,1128.09 1769.25,993.092 1771.27,913.478 1773.3,1205.97 1775.33,1174.82 1777.35,1100.4 1779.38,930.785 1781.4,1039.82 1783.43,1154.05 1785.46,1167.9 1787.48,958.477 1789.51,835.595 1791.53,975.784 1793.56,1057.13 1795.59,1261.36 1797.61,1219.82 1799.64,1046.74 1801.66,671.175 1803.69,916.939 1805.72,878.863 1807.74,650.406 1809.77,631.368 1811.8,833.864 1813.82,975.784 1815.85,982.707 1817.87,1032.9 1819.9,1043.28 1821.93,1039.82 1823.95,814.826 1825.98,1090.01 1828,1031.17 1830.03,974.054 1832.06,1038.09 1834.08,1096.94 1836.11,1043.28 1838.13,927.324 1840.16,709.251 1842.19,800.98 1844.21,968.861 1846.24,1022.51 1848.26,1270.01 1850.29,1195.59 1852.32,1096.94 1854.34,833.864 1856.37,615.791 1858.39,513.678 1860.42,679.828 1862.45,835.595 1864.47,717.905 1866.5,828.672 1868.53,972.323 1870.55,935.977 1872.58,852.902 1874.6,811.364 1876.63,807.903 1878.66,794.057 1880.68,768.096 1882.71,908.286 1884.73,968.861 1886.76,873.671 1888.79,916.939 1890.81,975.784 1892.84,906.555 1894.86,859.825 1896.89,705.789 1898.92,733.481 1900.94,695.405 1902.97,717.905 1904.99,781.942 1907.02,814.826 1909.05,674.636 1911.07,645.214 1913.1,619.253 1915.12,655.598 1917.15,693.674 1919.18,806.172 1921.2,863.286 1923.23,750.789 1925.25,695.405 1927.28,750.789 1929.31,842.518 1931.33,842.518 1933.36,804.441 1935.39,823.48 1937.41,785.403 1939.44,724.828 1941.46,511.947 1943.49,572.523 1945.52,768.096 1947.54,660.79 1949.57,695.405 1951.59,735.212 1953.62,627.906 1955.65,446.179 1957.67,240.221 1959.7,222.914 1961.72,247.144 1963.75,529.254 1965.78,695.405 1967.8,556.946 1969.83,506.755 1971.85,629.637 1973.88,691.944 1975.91,730.02 1977.93,669.444 1979.96,550.023 1981.98,468.679 1984.01,331.95 1986.04,415.026 1988.06,581.176 1990.09,567.33 1992.12,608.868 1994.14,508.485 1996.17,475.601 1998.19,518.87 2000.22,503.293 2002.25,652.137 2004.27,646.944 2006.3,525.793 2008.32,421.949 2010.35,390.795 2012.38,370.027 2014.4,363.104 2016.43,331.95 2018.45,575.984 2020.48,574.253 2022.51,582.907 2024.53,569.061 2026.56,409.833 2028.58,460.025 2030.61,511.947 2032.64,397.718 2034.66,454.833 2036.69,586.369 2038.71,629.637 2040.74,505.024 2042.77,356.181 2044.79,390.795 2046.82,565.6 2048.85,477.332 2050.87,513.678 2052.9,418.487 2054.92,349.258 2056.95,463.486 2058.98,484.255 2061,522.331 2063.03,546.562 2065.05,501.563 2067.08,428.872 2069.11,425.41 2071.13,411.564 2073.16,383.872 2075.18,352.719 2077.21,390.795 2079.24,468.679 2081.26,274.836 2083.29,460.025 2085.31,328.489 2087.34,305.989 2089.37,305.989 2091.39,352.719 2093.42,380.411 2095.44,326.758 2097.47,323.297 2099.5,342.335 2101.52,342.335 2103.55,311.181 2105.58,368.296 2107.6,425.41 2109.63,446.179 2111.65,385.603 2113.68,271.375 2115.71,366.565 2117.73,383.872 2119.76,349.258 2121.78,254.067 2123.81,238.491 2125.84,266.182 2127.86,338.873 2129.89,338.873 2131.91,375.219 2133.94,359.642 2135.97,466.948 2137.99,359.642 2140.02,302.528 2142.04,217.722 2144.07,238.491 2146.1,238.491 2148.12,203.876 2150.15,233.298 2152.17,250.606 2154.2,295.605 2156.23,383.872 2158.25,307.72 2160.28,276.567 2162.31,278.297 2164.33,349.258 2166.36,357.911 2168.38,373.488 2170.41,325.027 2172.44,186.568 2174.46,165.8 2176.49,262.721 2178.51,338.873 2180.54,350.988 2182.57,271.375 2184.59,238.491 2186.62,202.145 2188.64,255.798 2190.67,214.26 2192.7,179.645 2194.72,170.992 2196.75,274.836 2198.77,248.875 2200.8,269.644 2202.83,290.413 2204.85,257.529 2206.88,312.912 2208.9,415.026 2210.93,345.796 2212.96,354.45 2214.98,416.756 2217.01,485.986 2219.04,479.063 2221.06,463.486 2223.09,364.834 2225.11,304.259 2227.14,416.756 2229.17,420.218 2231.19,447.91 2233.22,418.487 2235.24,473.871 2237.27,506.755 2239.3,477.332 2241.32,370.027 2243.35,371.757 2245.37,402.911 2247.4,468.679 2249.43,524.062 2251.45,503.293 2253.48,498.101 2255.5,574.253 2257.53,520.601 2259.56,468.679 2261.58,350.988 2263.61,300.797 2265.63,434.064 2267.66,582.907 2269.69,475.601 2271.71,437.525 2273.74,551.754 2275.77,586.369 2277.79,683.29 2279.82,685.021 2281.84,420.218 2283.87,541.369 2285.9,560.408 2287.92,617.522 2289.95,470.409 2291.97,574.253 "></polyline>
<polyline clip-path="url(#clip642)" style="stroke:#ff0000; stroke-linecap:round; stroke-linejoin:round; stroke-width:4; stroke-opacity:1; fill:none" points="265.903,1086.91 267.929,1088.61 269.955,1090.19 271.981,1091.67 274.007,1093.03 276.033,1094.28 278.06,1095.43 280.086,1096.46 282.112,1097.37 284.138,1098.18 286.164,1098.88 288.19,1099.46 290.216,1099.93 292.242,1100.29 294.268,1100.53 296.294,1100.66 298.32,1100.68 300.346,1100.59 302.372,1100.38 304.398,1100.06 306.425,1099.62 308.451,1099.08 310.477,1098.42 312.503,1097.65 314.529,1096.77 316.555,1095.77 318.581,1094.67 320.607,1093.45 322.633,1092.12 324.659,1090.68 326.685,1089.13 328.711,1087.48 330.737,1085.71 332.763,1083.83 334.789,1081.85 336.816,1079.76 338.842,1077.56 340.868,1075.26 342.894,1072.85 344.92,1070.33 346.946,1067.72 348.972,1064.99 350.998,1062.17 353.024,1059.24 355.05,1056.22 357.076,1053.09 359.102,1049.87 361.128,1046.54 363.154,1043.13 365.181,1039.61 367.207,1036 369.233,1032.29 371.259,1028.5 373.285,1024.61 375.311,1020.63 377.337,1016.56 379.363,1012.4 381.389,1008.16 383.415,1003.83 385.441,999.415 387.467,994.918 389.493,990.339 391.519,985.68 393.546,980.942 395.572,976.127 397.598,971.235 399.624,966.268 401.65,961.229 403.676,956.117 405.702,950.936 407.728,945.685 409.754,940.368 411.78,934.984 413.806,929.537 415.832,924.028 417.858,918.457 419.884,912.828 421.911,907.141 423.937,901.398 425.963,895.601 427.989,889.752 430.015,883.852 432.041,877.904 434.067,871.908 436.093,865.867 438.119,859.782 440.145,853.656 442.171,847.489 444.197,841.285 446.223,835.044 448.249,828.769 450.276,822.461 452.302,816.122 454.328,809.754 456.354,803.36 458.38,796.94 460.406,790.498 462.432,784.034 464.458,777.55 466.484,771.049 468.51,764.533 470.536,758.003 472.562,751.461 474.588,744.91 476.614,738.351 478.641,731.785 480.667,725.216 482.693,718.645 484.719,712.074 486.745,705.505 488.771,698.94 490.797,692.38 492.823,685.829 494.849,679.286 496.875,672.756 498.901,666.239 500.927,659.737 502.953,653.253 504.979,646.788 507.006,640.345 509.032,633.924 511.058,627.529 513.084,621.16 515.11,614.82 517.136,608.511 519.162,602.234 521.188,595.992 523.214,589.786 525.24,583.618 527.266,577.49 529.292,571.403 531.318,565.36 533.344,559.363 535.37,553.412 537.397,547.51 539.423,541.659 541.449,535.86 543.475,530.115 545.501,524.426 547.527,518.794 549.553,513.221 551.579,507.709 553.605,502.259 555.631,496.873 557.657,491.553 559.683,486.3 561.709,481.115 563.735,476 565.762,470.958 567.788,465.988 569.814,461.093 571.84,456.274 573.866,451.533 575.892,446.871 577.918,442.289 579.944,437.788 581.97,433.371 583.996,429.038 586.022,424.79 588.048,420.63 590.074,416.557 592.1,412.574 594.127,408.681 596.153,404.879 598.179,401.171 600.205,397.556 602.231,394.036 604.257,390.612 606.283,387.285 608.309,384.055 610.335,380.925 612.361,377.894 614.387,374.964 616.413,372.136 618.439,369.41 620.465,366.787 622.492,364.269 624.518,361.854 626.544,359.546 628.57,357.343 630.596,355.247 632.622,353.259 634.648,351.378 636.674,349.606 638.7,347.943 640.726,346.39 642.752,344.946 644.778,343.613 646.804,342.391 648.83,341.28 650.857,340.28 652.883,339.392 654.909,338.616 656.935,337.953 658.961,337.401 660.987,336.963 663.013,336.637 665.039,336.424 667.065,336.324 669.091,336.337 671.117,336.463 673.143,336.702 675.169,337.053 677.195,337.517 679.222,338.094 681.248,338.783 683.274,339.585 685.3,340.498 687.326,341.523 689.352,342.66 691.378,343.907 693.404,345.265 695.43,346.733 697.456,348.312 699.482,349.999 701.508,351.795 703.534,353.7 705.56,355.713 707.587,357.832 709.613,360.058 711.639,362.39 713.665,364.827 715.691,367.369 717.717,370.014 719.743,372.763 721.769,375.613 723.795,378.564 725.821,381.616 727.847,384.768 729.873,388.018 731.899,391.365 733.925,394.809 735.951,398.349 737.978,401.983 740.004,405.711 742.03,409.531 744.056,413.442 746.082,417.443 748.108,421.533 750.134,425.71 752.16,429.974 754.186,434.324 756.212,438.757 758.238,443.272 760.264,447.869 762.29,452.545 764.316,457.3 766.343,462.132 768.369,467.04 770.395,472.022 772.421,477.076 774.447,482.202 776.473,487.397 778.499,492.66 780.525,497.99 782.551,503.385 784.577,508.843 786.603,514.363 788.629,519.944 790.655,525.582 792.681,531.278 794.708,537.028 796.734,542.832 798.76,548.688 800.786,554.593 802.812,560.547 804.838,566.547 806.864,572.592 808.89,578.68 810.916,584.809 812.942,590.977 814.968,597.183 816.994,603.424 819.02,609.698 821.046,616.005 823.073,622.342 825.099,628.707 827.125,635.098 829.151,641.513 831.177,647.951 833.203,654.41 835.229,660.887 837.255,667.381 839.281,673.889 841.307,680.411 843.333,686.943 845.359,693.484 847.385,700.033 849.411,706.586 851.438,713.143 853.464,719.701 855.49,726.258 857.516,732.813 859.542,739.363 861.568,745.906 863.594,752.441 865.62,758.966 867.646,765.478 869.672,771.976 871.698,778.458 873.724,784.921 875.75,791.365 877.776,797.786 879.803,804.184 881.829,810.556 883.855,816.901 885.881,823.216 887.907,829.499 889.933,835.749 891.959,841.965 893.985,848.143 896.011,854.282 898.037,860.381 900.063,866.438 902.089,872.45 904.115,878.417 906.141,884.335 908.168,890.204 910.194,896.022 912.22,901.787 914.246,907.498 916.272,913.152 918.298,918.747 920.324,924.284 922.35,929.759 924.376,935.171 926.402,940.518 928.428,945.799 930.454,951.013 932.48,956.157 934.506,961.231 936.532,966.232 938.559,971.16 940.585,976.012 942.611,980.788 944.637,985.485 946.663,990.103 948.689,994.64 950.715,999.096 952.741,1003.47 954.767,1007.75 956.793,1011.95 958.819,1016.07 960.845,1020.09 962.871,1024.03 964.897,1027.87 966.924,1031.62 968.95,1035.28 970.976,1038.85 973.002,1042.32 975.028,1045.69 977.054,1048.97 979.08,1052.15 981.106,1055.22 983.132,1058.2 985.158,1061.08 987.184,1063.85 989.21,1066.53 991.236,1069.1 993.262,1071.56 995.289,1073.92 997.315,1076.18 999.341,1078.32 1001.37,1080.36 1003.39,1082.3 1005.42,1084.12 1007.44,1085.84 1009.47,1087.45 1011.5,1088.94 1013.52,1090.33 1015.55,1091.61 1017.58,1092.77 1019.6,1093.83 1021.63,1094.77 1023.65,1095.6 1025.68,1096.32 1027.71,1096.93 1029.73,1097.42 1031.76,1097.8 1033.78,1098.07 1035.81,1098.22 1037.84,1098.27 1039.86,1098.2 1041.89,1098.01 1043.91,1097.72 1045.94,1097.31 1047.97,1096.79 1049.99,1096.15 1052.02,1095.41 1054.04,1094.55 1056.07,1093.58 1058.1,1092.49 1060.12,1091.3 1062.15,1090 1064.17,1088.58 1066.2,1087.06 1068.23,1085.42 1070.25,1083.68 1072.28,1081.83 1074.31,1079.87 1076.33,1077.8 1078.36,1075.62 1080.38,1073.34 1082.41,1070.95 1084.44,1068.46 1086.46,1065.87 1088.49,1063.17 1090.51,1060.36 1092.54,1057.46 1094.57,1054.45 1096.59,1051.35 1098.62,1048.15 1100.64,1044.84 1102.67,1041.44 1104.7,1037.95 1106.72,1034.36 1108.75,1030.67 1110.77,1026.89 1112.8,1023.02 1114.83,1019.06 1116.85,1015.01 1118.88,1010.87 1120.9,1006.65 1122.93,1002.34 1124.96,997.94 1126.98,993.46 1129.01,988.898 1131.04,984.255 1133.06,979.533 1135.09,974.733 1137.11,969.857 1139.14,964.905 1141.17,959.88 1143.19,954.783 1145.22,949.615 1147.24,944.378 1149.27,939.073 1151.3,933.703 1153.32,928.268 1155.35,922.77 1157.37,917.211 1159.4,911.593 1161.43,905.917 1163.45,900.184 1165.48,894.397 1167.5,888.558 1169.53,882.667 1171.56,876.727 1173.58,870.739 1175.61,864.706 1177.63,858.628 1179.66,852.509 1181.69,846.349 1183.71,840.15 1185.74,833.915 1187.77,827.644 1189.79,821.341 1191.82,815.007 1193.84,808.643 1195.87,802.252 1197.9,795.835 1199.92,789.394 1201.95,782.932 1203.97,776.45 1206,769.95 1208.03,763.434 1210.05,756.904 1212.08,750.362 1214.1,743.809 1216.13,737.249 1218.16,730.681 1220.18,724.11 1222.21,717.536 1224.23,710.962 1226.26,704.389 1228.29,697.819 1230.31,691.255 1232.34,684.698 1234.36,678.15 1236.39,671.613 1238.42,665.089 1240.44,658.581 1242.47,652.089 1244.5,645.616 1246.52,639.163 1248.55,632.734 1250.57,626.329 1252.6,619.95 1254.63,613.6 1256.65,607.28 1258.68,600.992 1260.7,594.738 1262.73,588.519 1264.76,582.339 1266.78,576.197 1268.81,570.097 1270.83,564.04 1272.86,558.028 1274.89,552.063 1276.91,546.146 1278.94,540.279 1280.96,534.463 1282.99,528.702 1285.02,522.996 1287.04,517.346 1289.07,511.756 1291.09,506.225 1293.12,500.757 1295.15,495.352 1297.17,490.012 1299.2,484.739 1301.23,479.535 1303.25,474.4 1305.28,469.336 1307.3,464.345 1309.33,459.429 1311.36,454.588 1313.38,449.824 1315.41,445.139 1317.43,440.534 1319.46,436.011 1321.49,431.57 1323.51,427.213 1325.54,422.941 1327.56,418.756 1329.59,414.658 1331.62,410.65 1333.64,406.731 1335.67,402.904 1337.69,399.17 1339.72,395.529 1341.75,391.982 1343.77,388.532 1345.8,385.178 1347.82,381.921 1349.85,378.763 1351.88,375.705 1353.9,372.748 1355.93,369.891 1357.96,367.137 1359.98,364.486 1362.01,361.938 1364.03,359.496 1366.06,357.158 1368.09,354.926 1370.11,352.801 1372.14,350.783 1374.16,348.873 1376.19,347.072 1378.22,345.379 1380.24,343.796 1382.27,342.322 1384.29,340.959 1386.32,339.707 1388.35,338.565 1390.37,337.535 1392.4,336.617 1394.42,335.811 1396.45,335.117 1398.48,334.535 1400.5,334.066 1402.53,333.71 1404.55,333.467 1406.58,333.336 1408.61,333.318 1410.63,333.414 1412.66,333.622 1414.69,333.943 1416.71,334.377 1418.74,334.923 1420.76,335.582 1422.79,336.353 1424.82,337.237 1426.84,338.232 1428.87,339.338 1430.89,340.556 1432.92,341.884 1434.95,343.323 1436.97,344.871 1439,346.529 1441.02,348.296 1443.05,350.172 1445.08,352.155 1447.1,354.246 1449.13,356.444 1451.15,358.747 1453.18,361.156 1455.21,363.67 1457.23,366.287 1459.26,369.008 1461.28,371.831 1463.31,374.755 1465.34,377.78 1467.36,380.905 1469.39,384.128 1471.42,387.449 1473.44,390.867 1475.47,394.381 1477.49,397.99 1479.52,401.693 1481.55,405.488 1483.57,409.374 1485.6,413.351 1487.62,417.417 1489.65,421.571 1491.68,425.812 1493.7,430.138 1495.73,434.548 1497.75,439.041 1499.78,443.616 1501.81,448.271 1503.83,453.005 1505.86,457.816 1507.88,462.703 1509.91,467.665 1511.94,472.699 1513.96,477.806 1515.99,482.982 1518.01,488.227 1520.04,493.538 1522.07,498.916 1524.09,504.357 1526.12,509.86 1528.15,515.423 1530.17,521.046 1532.2,526.726 1534.22,532.461 1536.25,538.25 1538.28,544.091 1540.3,549.983 1542.33,555.924 1544.35,561.911 1546.38,567.943 1548.41,574.019 1550.43,580.136 1552.46,586.293 1554.48,592.488 1556.51,598.719 1558.54,604.984 1560.56,611.281 1562.59,617.609 1564.61,623.966 1566.64,630.349 1568.67,636.757 1570.69,643.188 1572.72,649.64 1574.74,656.112 1576.77,662.6 1578.8,669.104 1580.82,675.621 1582.85,682.149 1584.88,688.687 1586.9,695.233 1588.93,701.784 1590.95,708.339 1592.98,714.895 1595.01,721.452 1597.03,728.006 1599.06,734.556 1601.08,741.1 1603.11,747.636 1605.14,754.162 1607.16,760.676 1609.19,767.177 1611.21,773.662 1613.24,780.129 1615.27,786.576 1617.29,793.003 1619.32,799.405 1621.34,805.783 1623.37,812.133 1625.4,818.455 1627.42,824.745 1629.45,831.003 1631.47,837.226 1633.5,843.413 1635.53,849.561 1637.55,855.669 1639.58,861.735 1641.61,867.758 1643.63,873.735 1645.66,879.665 1647.68,885.546 1649.71,891.375 1651.74,897.153 1653.76,902.876 1655.79,908.543 1657.81,914.153 1659.84,919.703 1661.87,925.193 1663.89,930.62 1665.92,935.983 1667.94,941.28 1669.97,946.51 1672,951.671 1674.02,956.761 1676.05,961.78 1678.07,966.725 1680.1,971.596 1682.13,976.39 1684.15,981.106 1686.18,985.744 1688.2,990.3 1690.23,994.775 1692.26,999.167 1694.28,1003.47 1696.31,1007.7 1698.34,1011.83 1700.36,1015.88 1702.39,1019.83 1704.41,1023.7 1706.44,1027.48 1708.47,1031.16 1710.49,1034.75 1712.52,1038.24 1714.54,1041.64 1716.57,1044.93 1718.6,1048.14 1720.62,1051.24 1722.65,1054.24 1724.67,1057.14 1726.7,1059.94 1728.73,1062.64 1730.75,1065.24 1732.78,1067.73 1734.8,1070.11 1736.83,1072.39 1738.86,1074.57 1740.88,1076.63 1742.91,1078.59 1744.93,1080.45 1746.96,1082.19 1748.99,1083.82 1751.01,1085.35 1753.04,1086.76 1755.07,1088.07 1757.09,1089.26 1759.12,1090.34 1761.14,1091.31 1763.17,1092.17 1765.2,1092.92 1767.22,1093.55 1769.25,1094.07 1771.27,1094.48 1773.3,1094.78 1775.33,1094.96 1777.35,1095.03 1779.38,1094.99 1781.4,1094.83 1783.43,1094.57 1785.46,1094.18 1787.48,1093.69 1789.51,1093.08 1791.53,1092.37 1793.56,1091.54 1795.59,1090.59 1797.61,1089.54 1799.64,1088.37 1801.66,1087.1 1803.69,1085.71 1805.72,1084.21 1807.74,1082.6 1809.77,1080.89 1811.8,1079.06 1813.82,1077.13 1815.85,1075.09 1817.87,1072.94 1819.9,1070.68 1821.93,1068.32 1823.95,1065.86 1825.98,1063.29 1828,1060.61 1830.03,1057.84 1832.06,1054.96 1834.08,1051.98 1836.11,1048.9 1838.13,1045.72 1840.16,1042.44 1842.19,1039.07 1844.21,1035.59 1846.24,1032.03 1848.26,1028.37 1850.29,1024.61 1852.32,1020.76 1854.34,1016.83 1856.37,1012.8 1858.39,1008.68 1860.42,1004.48 1862.45,1000.19 1864.47,995.811 1866.5,991.352 1868.53,986.811 1870.55,982.188 1872.58,977.486 1874.6,972.706 1876.63,967.849 1878.66,962.916 1880.68,957.91 1882.71,952.831 1884.73,947.681 1886.76,942.461 1888.79,937.174 1890.81,931.82 1892.84,926.401 1894.86,920.92 1896.89,915.376 1898.92,909.773 1900.94,904.111 1902.97,898.393 1904.99,892.62 1907.02,886.794 1909.05,880.917 1911.07,874.989 1913.1,869.014 1915.12,862.992 1917.15,856.926 1919.18,850.817 1921.2,844.668 1923.23,838.479 1925.25,832.253 1927.28,825.992 1929.31,819.698 1931.33,813.371 1933.36,807.015 1935.39,800.631 1937.41,794.221 1939.44,787.787 1941.46,781.331 1943.49,774.854 1945.52,768.359 1947.54,761.848 1949.57,755.322 1951.59,748.783 1953.62,742.234 1955.65,735.676 1957.67,729.111 1959.7,722.541 1961.72,715.968 1963.75,709.395 1965.78,702.822 1967.8,696.252 1969.83,689.687 1971.85,683.129 1973.88,676.579 1975.91,670.04 1977.93,663.514 1979.96,657.002 1981.98,650.507 1984.01,644.03 1986.04,637.573 1988.06,631.139 1990.09,624.728 1992.12,618.344 1994.14,611.987 1996.17,605.66 1998.19,599.365 2000.22,593.103 2002.25,586.877 2004.27,580.688 2006.3,574.537 2008.32,568.428 2010.35,562.361 2012.38,556.338 2014.4,550.362 2016.43,544.434 2018.45,538.555 2020.48,532.728 2022.51,526.954 2024.53,521.235 2026.56,515.572 2028.58,509.968 2030.61,504.424 2032.64,498.941 2034.66,493.521 2036.69,488.166 2038.71,482.877 2040.74,477.657 2042.77,472.505 2044.79,467.425 2046.82,462.417 2048.85,457.483 2050.87,452.625 2052.9,447.843 2054.92,443.139 2056.95,438.516 2058.98,433.973 2061,429.512 2063.03,425.135 2065.05,420.844 2067.08,416.638 2069.11,412.52 2071.13,408.49 2073.16,404.551 2075.18,400.702 2077.21,396.946 2079.24,393.283 2081.26,389.714 2083.29,386.241 2085.31,382.864 2087.34,379.584 2089.37,376.403 2091.39,373.322 2093.42,370.34 2095.44,367.46 2097.47,364.682 2099.5,362.006 2101.52,359.434 2103.55,356.967 2105.58,354.604 2107.6,352.348 2109.63,350.198 2111.65,348.154 2113.68,346.219 2115.71,344.392 2117.73,342.673 2119.76,341.064 2121.78,339.565 2123.81,338.176 2125.84,336.897 2127.86,335.73 2129.89,334.674 2131.91,333.729 2133.94,332.897 2135.97,332.176 2137.99,331.568 2140.02,331.073 2142.04,330.69 2144.07,330.42 2146.1,330.263 2148.12,330.219 2150.15,330.288 2152.17,330.47 2154.2,330.765 2156.23,331.172 2158.25,331.693 2160.28,332.325 2162.31,333.07 2164.33,333.927 2166.36,334.896 2168.38,335.977 2170.41,337.168 2172.44,338.471 2174.46,339.884 2176.49,341.407 2178.51,343.04 2180.54,344.782 2182.57,346.632 2184.59,348.591 2186.62,350.657 2188.64,352.83 2190.67,355.109 2192.7,357.494 2194.72,359.983 2196.75,362.577 2198.77,365.274 2200.8,368.073 2202.83,370.974 2204.85,373.976 2206.88,377.078 2208.9,380.279 2210.93,383.578 2212.96,386.974 2214.98,390.466 2217.01,394.054 2219.04,397.735 2221.06,401.509 2223.09,405.375 2225.11,409.332 2227.14,413.378 2229.17,417.512 2231.19,421.733 2233.22,426.041 2235.24,430.432 2237.27,434.907 2239.3,439.464 2241.32,444.101 2243.35,448.818 2245.37,453.612 2247.4,458.483 2249.43,463.428 2251.45,468.447 2253.48,473.538 2255.5,478.699 2257.53,483.929 2259.56,489.227 2261.58,494.59 2263.61,500.018 2265.63,505.508 2267.66,511.059 2269.69,516.669 2271.71,522.337 2273.74,528.061 2275.77,533.84 2277.79,539.671 2279.82,545.552 2281.84,551.483 2283.87,557.461 2285.9,563.485 2287.92,569.553 2289.95,575.662 2291.97,581.812 "></polyline>
<polyline clip-path="url(#clip642)" style="stroke:#0000ff; stroke-linecap:round; stroke-linejoin:round; stroke-width:4; stroke-opacity:1; fill:none" points="265.903,1086.91 267.929,1088.61 269.955,1090.19 271.981,1091.67 274.007,1093.03 276.033,1094.28 278.06,1095.43 280.086,1096.46 282.112,1097.37 284.138,1098.18 286.164,1098.88 288.19,1099.46 290.216,1099.93 292.242,1100.29 294.268,1100.53 296.294,1100.66 298.32,1100.68 300.346,1100.59 302.372,1100.38 304.398,1100.06 306.425,1099.62 308.451,1099.08 310.477,1098.42 312.503,1097.65 314.529,1096.77 316.555,1095.77 318.581,1094.67 320.607,1093.45 322.633,1092.12 324.659,1090.68 326.685,1089.13 328.711,1087.48 330.737,1085.71 332.763,1083.83 334.789,1081.85 336.816,1079.76 338.842,1077.56 340.868,1075.26 342.894,1072.85 344.92,1070.33 346.946,1067.72 348.972,1064.99 350.998,1062.17 353.024,1059.24 355.05,1056.22 357.076,1053.09 359.102,1049.87 361.128,1046.54 363.154,1043.13 365.181,1039.61 367.207,1036 369.233,1032.29 371.259,1028.5 373.285,1024.61 375.311,1020.63 377.337,1016.56 379.363,1012.4 381.389,1008.16 383.415,1003.83 385.441,999.415 387.467,994.918 389.493,990.339 391.519,985.68 393.546,980.942 395.572,976.127 397.598,971.235 399.624,966.268 401.65,961.229 403.676,956.117 405.702,950.936 407.728,945.685 409.754,940.368 411.78,934.984 413.806,929.537 415.832,924.028 417.858,918.457 419.884,912.828 421.911,907.141 423.937,901.398 425.963,895.601 427.989,889.752 430.015,883.852 432.041,877.904 434.067,871.908 436.093,865.867 438.119,859.782 440.145,853.656 442.171,847.489 444.197,841.285 446.223,835.044 448.249,828.769 450.276,822.461 452.302,816.122 454.328,809.754 456.354,803.36 458.38,796.94 460.406,790.498 462.432,784.034 464.458,777.55 466.484,771.049 468.51,764.533 470.536,758.003 472.562,751.461 474.588,744.91 476.614,738.351 478.641,731.785 480.667,725.216 482.693,718.645 484.719,712.074 486.745,705.505 488.771,698.94 490.797,692.38 492.823,685.829 494.849,679.286 496.875,672.756 498.901,666.239 500.927,659.737 502.953,653.253 504.979,646.788 507.006,640.345 509.032,633.924 511.058,627.529 513.084,621.16 515.11,614.82 517.136,608.511 519.162,602.234 521.188,595.992 523.214,589.786 525.24,583.618 527.266,577.49 529.292,571.403 531.318,565.36 533.344,559.363 535.37,553.412 537.397,547.51 539.423,541.659 541.449,535.86 543.475,530.115 545.501,524.426 547.527,518.794 549.553,513.221 551.579,507.709 553.605,502.259 555.631,496.873 557.657,491.553 559.683,486.3 561.709,481.115 563.735,476 565.762,470.958 567.788,465.988 569.814,461.093 571.84,456.274 573.866,451.533 575.892,446.871 577.918,442.289 579.944,437.788 581.97,433.371 583.996,429.038 586.022,424.79 588.048,420.63 590.074,416.557 592.1,412.574 594.127,408.681 596.153,404.879 598.179,401.171 600.205,397.556 602.231,394.036 604.257,390.612 606.283,387.285 608.309,384.055 610.335,380.925 612.361,377.894 614.387,374.964 616.413,372.136 618.439,369.41 620.465,366.787 622.492,364.269 624.518,361.854 626.544,359.546 628.57,357.343 630.596,355.247 632.622,353.259 634.648,351.378 636.674,349.606 638.7,347.943 640.726,346.39 642.752,344.946 644.778,343.613 646.804,342.391 648.83,341.28 650.857,340.28 652.883,339.392 654.909,338.616 656.935,337.953 658.961,337.401 660.987,336.963 663.013,336.637 665.039,336.424 667.065,336.324 669.091,336.337 671.117,336.463 673.143,336.702 675.169,337.053 677.195,337.517 679.222,338.094 681.248,338.783 683.274,339.585 685.3,340.498 687.326,341.523 689.352,342.66 691.378,343.907 693.404,345.265 695.43,346.733 697.456,348.312 699.482,349.999 701.508,351.795 703.534,353.7 705.56,355.713 707.587,357.832 709.613,360.058 711.639,362.39 713.665,364.827 715.691,367.369 717.717,370.014 719.743,372.763 721.769,375.613 723.795,378.564 725.821,381.616 727.847,384.768 729.873,388.018 731.899,391.365 733.925,394.809 735.951,398.349 737.978,401.983 740.004,405.711 742.03,409.531 744.056,413.442 746.082,417.443 748.108,421.533 750.134,425.71 752.16,429.974 754.186,434.324 756.212,438.757 758.238,443.272 760.264,447.869 762.29,452.545 764.316,457.3 766.343,462.132 768.369,467.04 770.395,472.022 772.421,477.076 774.447,482.202 776.473,487.397 778.499,492.66 780.525,497.99 782.551,503.385 784.577,508.843 786.603,514.363 788.629,519.944 790.655,525.582 792.681,531.278 794.708,537.028 796.734,542.832 798.76,548.688 800.786,554.593 802.812,560.547 804.838,566.547 806.864,572.592 808.89,578.68 810.916,584.809 812.942,590.977 814.968,597.183 816.994,603.424 819.02,609.698 821.046,616.005 823.073,622.342 825.099,628.707 827.125,635.098 829.151,641.513 831.177,647.951 833.203,654.41 835.229,660.887 837.255,667.381 839.281,673.889 841.307,680.411 843.333,686.943 845.359,693.484 847.385,700.033 849.411,706.586 851.438,713.143 853.464,719.701 855.49,726.258 857.516,732.813 859.542,739.363 861.568,745.906 863.594,752.441 865.62,758.966 867.646,765.478 869.672,771.976 871.698,778.458 873.724,784.921 875.75,791.365 877.776,797.786 879.803,804.184 881.829,810.556 883.855,816.901 885.881,823.216 887.907,829.499 889.933,835.749 891.959,841.965 893.985,848.143 896.011,854.282 898.037,860.381 900.063,866.438 902.089,872.45 904.115,878.417 906.141,884.335 908.168,890.204 910.194,896.022 912.22,901.787 914.246,907.498 916.272,913.152 918.298,918.747 920.324,924.284 922.35,929.759 924.376,935.171 926.402,940.518 928.428,945.799 930.454,951.013 932.48,956.157 934.506,961.231 936.532,966.232 938.559,971.16 940.585,976.012 942.611,980.788 944.637,985.485 946.663,990.103 948.689,994.64 950.715,999.096 952.741,1003.47 954.767,1007.75 956.793,1011.95 958.819,1016.07 960.845,1020.09 962.871,1024.03 964.897,1027.87 966.924,1031.62 968.95,1035.28 970.976,1038.85 973.002,1042.32 975.028,1045.69 977.054,1048.97 979.08,1052.15 981.106,1055.22 983.132,1058.2 985.158,1061.08 987.184,1063.85 989.21,1066.53 991.236,1069.1 993.262,1071.56 995.289,1073.92 997.315,1076.18 999.341,1078.32 1001.37,1080.36 1003.39,1082.3 1005.42,1084.12 1007.44,1085.84 1009.47,1087.45 1011.5,1088.94 1013.52,1090.33 1015.55,1091.61 1017.58,1092.77 1019.6,1093.83 1021.63,1094.77 1023.65,1095.6 1025.68,1096.32 1027.71,1096.93 1029.73,1097.42 1031.76,1097.8 1033.78,1098.07 1035.81,1098.22 1037.84,1098.27 1039.86,1098.2 1041.89,1098.01 1043.91,1097.72 1045.94,1097.31 1047.97,1096.79 1049.99,1096.15 1052.02,1095.41 1054.04,1094.55 1056.07,1093.58 1058.1,1092.49 1060.12,1091.3 1062.15,1090 1064.17,1088.58 1066.2,1087.06 1068.23,1085.42 1070.25,1083.68 1072.28,1081.83 1074.31,1079.87 1076.33,1077.8 1078.36,1075.62 1080.38,1073.34 1082.41,1070.95 1084.44,1068.46 1086.46,1065.87 1088.49,1063.17 1090.51,1060.36 1092.54,1057.46 1094.57,1054.45 1096.59,1051.35 1098.62,1048.15 1100.64,1044.84 1102.67,1041.44 1104.7,1037.95 1106.72,1034.36 1108.75,1030.67 1110.77,1026.89 1112.8,1023.02 1114.83,1019.06 1116.85,1015.01 1118.88,1010.87 1120.9,1006.65 1122.93,1002.34 1124.96,997.94 1126.98,993.46 1129.01,988.898 1131.04,984.255 1133.06,979.533 1135.09,974.733 1137.11,969.857 1139.14,964.905 1141.17,959.88 1143.19,954.783 1145.22,949.615 1147.24,944.378 1149.27,939.073 1151.3,933.703 1153.32,928.268 1155.35,922.77 1157.37,917.211 1159.4,911.593 1161.43,905.917 1163.45,900.184 1165.48,894.397 1167.5,888.558 1169.53,882.667 1171.56,876.727 1173.58,870.739 1175.61,864.706 1177.63,858.628 1179.66,852.509 1181.69,846.349 1183.71,840.15 1185.74,833.915 1187.77,827.644 1189.79,821.341 1191.82,815.007 1193.84,808.643 1195.87,802.252 1197.9,795.835 1199.92,789.394 1201.95,782.932 1203.97,776.45 1206,769.95 1208.03,763.434 1210.05,756.904 1212.08,750.362 1214.1,743.809 1216.13,737.249 1218.16,730.681 1220.18,724.11 1222.21,717.536 1224.23,710.962 1226.26,704.389 1228.29,697.819 1230.31,691.255 1232.34,684.698 1234.36,678.15 1236.39,671.613 1238.42,665.089 1240.44,658.581 1242.47,652.089 1244.5,645.616 1246.52,639.163 1248.55,632.734 1250.57,626.329 1252.6,619.95 1254.63,613.6 1256.65,607.28 1258.68,600.992 1260.7,594.738 1262.73,588.519 1264.76,582.339 1266.78,576.197 1268.81,570.097 1270.83,564.04 1272.86,558.028 1274.89,552.063 1276.91,546.146 1278.94,540.279 1280.96,534.463 1282.99,528.702 1285.02,522.996 1287.04,517.346 1289.07,511.756 1291.09,506.225 1293.12,500.757 1295.15,495.352 1297.17,490.012 1299.2,484.739 1301.23,479.535 1303.25,474.4 1305.28,469.336 1307.3,464.345 1309.33,459.429 1311.36,454.588 1313.38,449.824 1315.41,445.139 1317.43,440.534 1319.46,436.011 1321.49,431.57 1323.51,427.213 1325.54,422.941 1327.56,418.756 1329.59,414.658 1331.62,410.65 1333.64,406.731 1335.67,402.904 1337.69,399.17 1339.72,395.529 1341.75,391.982 1343.77,388.532 1345.8,385.178 1347.82,381.921 1349.85,378.763 1351.88,375.705 1353.9,372.748 1355.93,369.891 1357.96,367.137 1359.98,364.486 1362.01,361.938 1364.03,359.496 1366.06,357.158 1368.09,354.926 1370.11,352.801 1372.14,350.783 1374.16,348.873 1376.19,347.072 1378.22,345.379 1380.24,343.796 1382.27,342.322 1384.29,340.959 1386.32,339.707 1388.35,338.565 1390.37,337.535 1392.4,336.617 1394.42,335.811 1396.45,335.117 1398.48,334.535 1400.5,334.066 1402.53,333.71 1404.55,333.467 1406.58,333.336 1408.61,333.318 1410.63,333.414 1412.66,333.622 1414.69,333.943 1416.71,334.377 1418.74,334.923 1420.76,335.582 1422.79,336.353 1424.82,337.237 1426.84,338.232 1428.87,339.338 1430.89,340.556 1432.92,341.884 1434.95,343.323 1436.97,344.871 1439,346.529 1441.02,348.296 1443.05,350.172 1445.08,352.155 1447.1,354.246 1449.13,356.444 1451.15,358.747 1453.18,361.156 1455.21,363.67 1457.23,366.287 1459.26,369.008 1461.28,371.831 1463.31,374.755 1465.34,377.78 1467.36,380.905 1469.39,384.128 1471.42,387.449 1473.44,390.867 1475.47,394.381 1477.49,397.99 1479.52,401.693 1481.55,405.488 1483.57,409.374 1485.6,413.351 1487.62,417.417 1489.65,421.571 1491.68,425.812 1493.7,430.138 1495.73,434.548 1497.75,439.041 1499.78,443.616 1501.81,448.271 1503.83,453.005 1505.86,457.816 1507.88,462.703 1509.91,467.665 1511.94,472.699 1513.96,477.806 1515.99,482.982 1518.01,488.227 1520.04,493.538 1522.07,498.916 1524.09,504.357 1526.12,509.86 1528.15,515.423 1530.17,521.046 1532.2,526.726 1534.22,532.461 1536.25,538.25 1538.28,544.091 1540.3,549.983 1542.33,555.924 1544.35,561.911 1546.38,567.943 1548.41,574.019 1550.43,580.136 1552.46,586.293 1554.48,592.488 1556.51,598.719 1558.54,604.984 1560.56,611.281 1562.59,617.609 1564.61,623.966 1566.64,630.349 1568.67,636.757 1570.69,643.188 1572.72,649.64 1574.74,656.112 1576.77,662.6 1578.8,669.104 1580.82,675.621 1582.85,682.149 1584.88,688.687 1586.9,695.233 1588.93,701.784 1590.95,708.339 1592.98,714.895 1595.01,721.452 1597.03,728.006 1599.06,734.556 1601.08,741.1 1603.11,747.636 1605.14,754.162 1607.16,760.676 1609.19,767.177 1611.21,773.662 1613.24,780.129 1615.27,786.576 1617.29,793.003 1619.32,799.405 1621.34,805.783 1623.37,812.133 1625.4,818.455 1627.42,824.745 1629.45,831.003 1631.47,837.226 1633.5,843.413 1635.53,849.561 1637.55,855.669 1639.58,861.735 1641.61,867.758 1643.63,873.735 1645.66,879.665 1647.68,885.546 1649.71,891.375 1651.74,897.153 1653.76,902.876 1655.79,908.543 1657.81,914.153 1659.84,919.703 1661.87,925.193 1663.89,930.62 1665.92,935.983 1667.94,941.28 1669.97,946.51 1672,951.671 1674.02,956.761 1676.05,961.78 1678.07,966.725 1680.1,971.596 1682.13,976.39 1684.15,981.106 1686.18,985.744 1688.2,990.3 1690.23,994.775 1692.26,999.167 1694.28,1003.47 1696.31,1007.7 1698.34,1011.83 1700.36,1015.88 1702.39,1019.83 1704.41,1023.7 1706.44,1027.48 1708.47,1031.16 1710.49,1034.75 1712.52,1038.24 1714.54,1041.64 1716.57,1044.93 1718.6,1048.14 1720.62,1051.24 1722.65,1054.24 1724.67,1057.14 1726.7,1059.94 1728.73,1062.64 1730.75,1065.24 1732.78,1067.73 1734.8,1070.11 1736.83,1072.39 1738.86,1074.57 1740.88,1076.63 1742.91,1078.59 1744.93,1080.45 1746.96,1082.19 1748.99,1083.82 1751.01,1085.35 1753.04,1086.76 1755.07,1088.07 1757.09,1089.26 1759.12,1090.34 1761.14,1091.31 1763.17,1092.17 1765.2,1092.92 1767.22,1093.55 1769.25,1094.07 1771.27,1094.48 1773.3,1094.78 1775.33,1094.96 1777.35,1095.03 1779.38,1094.99 1781.4,1094.83 1783.43,1094.57 1785.46,1094.18 1787.48,1093.69 1789.51,1093.08 1791.53,1092.37 1793.56,1091.54 1795.59,1090.59 1797.61,1089.54 1799.64,1088.37 1801.66,1087.1 1803.69,1085.71 1805.72,1084.21 1807.74,1082.6 1809.77,1080.89 1811.8,1079.06 1813.82,1077.13 1815.85,1075.09 1817.87,1072.94 1819.9,1070.68 1821.93,1068.32 1823.95,1065.86 1825.98,1063.29 1828,1060.61 1830.03,1057.84 1832.06,1054.96 1834.08,1051.98 1836.11,1048.9 1838.13,1045.72 1840.16,1042.44 1842.19,1039.07 1844.21,1035.59 1846.24,1032.03 1848.26,1028.37 1850.29,1024.61 1852.32,1020.76 1854.34,1016.83 1856.37,1012.8 1858.39,1008.68 1860.42,1004.48 1862.45,1000.19 1864.47,995.811 1866.5,991.352 1868.53,986.811 1870.55,982.188 1872.58,977.486 1874.6,972.706 1876.63,967.849 1878.66,962.916 1880.68,957.91 1882.71,952.831 1884.73,947.681 1886.76,942.461 1888.79,937.174 1890.81,931.82 1892.84,926.401 1894.86,920.92 1896.89,915.376 1898.92,909.773 1900.94,904.111 1902.97,898.393 1904.99,892.62 1907.02,886.794 1909.05,880.917 1911.07,874.989 1913.1,869.014 1915.12,862.992 1917.15,856.926 1919.18,850.817 1921.2,844.668 1923.23,838.479 1925.25,832.253 1927.28,825.992 1929.31,819.698 1931.33,813.371 1933.36,807.015 1935.39,800.631 1937.41,794.221 1939.44,787.787 1941.46,781.331 1943.49,774.854 1945.52,768.359 1947.54,761.848 1949.57,755.322 1951.59,748.783 1953.62,742.234 1955.65,735.676 1957.67,729.111 1959.7,722.541 1961.72,715.968 1963.75,709.395 1965.78,702.822 1967.8,696.252 1969.83,689.687 1971.85,683.129 1973.88,676.579 1975.91,670.04 1977.93,663.514 1979.96,657.002 1981.98,650.507 1984.01,644.03 1986.04,637.573 1988.06,631.139 1990.09,624.728 1992.12,618.344 1994.14,611.987 1996.17,605.66 1998.19,599.365 2000.22,593.103 2002.25,586.877 2004.27,580.688 2006.3,574.537 2008.32,568.428 2010.35,562.361 2012.38,556.338 2014.4,550.362 2016.43,544.434 2018.45,538.555 2020.48,532.728 2022.51,526.954 2024.53,521.235 2026.56,515.572 2028.58,509.968 2030.61,504.424 2032.64,498.941 2034.66,493.521 2036.69,488.166 2038.71,482.877 2040.74,477.657 2042.77,472.505 2044.79,467.425 2046.82,462.417 2048.85,457.483 2050.87,452.625 2052.9,447.843 2054.92,443.139 2056.95,438.516 2058.98,433.973 2061,429.512 2063.03,425.135 2065.05,420.844 2067.08,416.638 2069.11,412.52 2071.13,408.49 2073.16,404.551 2075.18,400.702 2077.21,396.946 2079.24,393.283 2081.26,389.714 2083.29,386.241 2085.31,382.864 2087.34,379.584 2089.37,376.403 2091.39,373.322 2093.42,370.34 2095.44,367.46 2097.47,364.682 2099.5,362.006 2101.52,359.434 2103.55,356.967 2105.58,354.604 2107.6,352.348 2109.63,350.198 2111.65,348.154 2113.68,346.219 2115.71,344.392 2117.73,342.673 2119.76,341.064 2121.78,339.565 2123.81,338.176 2125.84,336.897 2127.86,335.73 2129.89,334.674 2131.91,333.729 2133.94,332.897 2135.97,332.176 2137.99,331.568 2140.02,331.073 2142.04,330.69 2144.07,330.42 2146.1,330.263 2148.12,330.219 2150.15,330.288 2152.17,330.47 2154.2,330.765 2156.23,331.172 2158.25,331.693 2160.28,332.325 2162.31,333.07 2164.33,333.927 2166.36,334.896 2168.38,335.977 2170.41,337.168 2172.44,338.471 2174.46,339.884 2176.49,341.407 2178.51,343.04 2180.54,344.782 2182.57,346.632 2184.59,348.591 2186.62,350.657 2188.64,352.83 2190.67,355.109 2192.7,357.494 2194.72,359.983 2196.75,362.577 2198.77,365.274 2200.8,368.073 2202.83,370.974 2204.85,373.976 2206.88,377.078 2208.9,380.279 2210.93,383.578 2212.96,386.974 2214.98,390.466 2217.01,394.054 2219.04,397.735 2221.06,401.509 2223.09,405.375 2225.11,409.332 2227.14,413.378 2229.17,417.512 2231.19,421.733 2233.22,426.041 2235.24,430.432 2237.27,434.907 2239.3,439.464 2241.32,444.101 2243.35,448.818 2245.37,453.612 2247.4,458.483 2249.43,463.428 2251.45,468.447 2253.48,473.538 2255.5,478.699 2257.53,483.929 2259.56,489.227 2261.58,494.59 2263.61,500.018 2265.63,505.508 2267.66,511.059 2269.69,516.669 2271.71,522.337 2273.74,528.061 2275.77,533.84 2277.79,539.671 2279.82,545.552 2281.84,551.483 2283.87,557.461 2285.9,563.485 2287.92,569.553 2289.95,575.662 2291.97,581.812 "></polyline>
<path clip-path="url(#clip640)" d="M1726.22 1377.32 L2281.17 1377.32 L2281.17 1169.96 L1726.22 1169.96  Z" fill="#ffffff" fill-rule="evenodd" fill-opacity="1"></path>
<polyline clip-path="url(#clip640)" style="stroke:#000000; stroke-linecap:round; stroke-linejoin:round; stroke-width:4; stroke-opacity:1; fill:none" points="1726.22,1377.32 2281.17,1377.32 2281.17,1169.96 1726.22,1169.96 1726.22,1377.32 "></polyline>
<polyline clip-path="url(#clip640)" style="stroke:#d3d3d3; stroke-linecap:round; stroke-linejoin:round; stroke-width:4; stroke-opacity:1; fill:none" points="1750.08,1221.8 1893.26,1221.8 "></polyline>
<path clip-path="url(#clip640)" d="M1921.8 1208.36 L1921.8 1235.23 L1927.45 1235.23 Q1934.6 1235.23 1937.91 1231.99 Q1941.24 1228.75 1941.24 1221.76 Q1941.24 1214.82 1937.91 1211.6 Q1934.6 1208.36 1927.45 1208.36 L1921.8 1208.36 M1917.12 1204.52 L1926.73 1204.52 Q1936.77 1204.52 1941.47 1208.71 Q1946.17 1212.87 1946.17 1221.76 Q1946.17 1230.7 1941.45 1234.89 Q1936.73 1239.08 1926.73 1239.08 L1917.12 1239.08 L1917.12 1204.52 Z" fill="#000000" fill-rule="nonzero" fill-opacity="1"></path><path clip-path="url(#clip640)" d="M1963.49 1216.14 Q1960.06 1216.14 1958.07 1218.82 Q1956.08 1221.48 1956.08 1226.14 Q1956.08 1230.79 1958.05 1233.47 Q1960.04 1236.14 1963.49 1236.14 Q1966.89 1236.14 1968.88 1233.45 Q1970.87 1230.77 1970.87 1226.14 Q1970.87 1221.53 1968.88 1218.84 Q1966.89 1216.14 1963.49 1216.14 M1963.49 1212.52 Q1969.04 1212.52 1972.21 1216.14 Q1975.39 1219.75 1975.39 1226.14 Q1975.39 1232.5 1972.21 1236.14 Q1969.04 1239.75 1963.49 1239.75 Q1957.91 1239.75 1954.74 1236.14 Q1951.59 1232.5 1951.59 1226.14 Q1951.59 1219.75 1954.74 1216.14 Q1957.91 1212.52 1963.49 1212.52 Z" fill="#000000" fill-rule="nonzero" fill-opacity="1"></path><path clip-path="url(#clip640)" d="M2004 1223.43 L2004 1239.08 L1999.74 1239.08 L1999.74 1223.57 Q1999.74 1219.89 1998.3 1218.06 Q1996.87 1216.23 1994 1216.23 Q1990.55 1216.23 1988.56 1218.43 Q1986.57 1220.63 1986.57 1224.42 L1986.57 1239.08 L1982.28 1239.08 L1982.28 1213.15 L1986.57 1213.15 L1986.57 1217.18 Q1988.09 1214.84 1990.15 1213.68 Q1992.24 1212.52 1994.95 1212.52 Q1999.41 1212.52 2001.7 1215.3 Q2004 1218.06 2004 1223.43 Z" fill="#000000" fill-rule="nonzero" fill-opacity="1"></path><path clip-path="url(#clip640)" d="M2034.04 1223.43 L2034.04 1239.08 L2029.78 1239.08 L2029.78 1223.57 Q2029.78 1219.89 2028.35 1218.06 Q2026.91 1216.23 2024.04 1216.23 Q2020.59 1216.23 2018.6 1218.43 Q2016.61 1220.63 2016.61 1224.42 L2016.61 1239.08 L2012.33 1239.08 L2012.33 1213.15 L2016.61 1213.15 L2016.61 1217.18 Q2018.14 1214.84 2020.2 1213.68 Q2022.28 1212.52 2024.99 1212.52 Q2029.46 1212.52 2031.75 1215.3 Q2034.04 1218.06 2034.04 1223.43 Z" fill="#000000" fill-rule="nonzero" fill-opacity="1"></path><path clip-path="url(#clip640)" d="M2064.71 1225.05 L2064.71 1227.13 L2045.13 1227.13 Q2045.41 1231.53 2047.77 1233.84 Q2050.15 1236.14 2054.39 1236.14 Q2056.84 1236.14 2059.14 1235.53 Q2061.45 1234.93 2063.72 1233.73 L2063.72 1237.76 Q2061.43 1238.73 2059.02 1239.24 Q2056.61 1239.75 2054.14 1239.75 Q2047.93 1239.75 2044.3 1236.14 Q2040.69 1232.52 2040.69 1226.37 Q2040.69 1220 2044.11 1216.27 Q2047.56 1212.52 2053.39 1212.52 Q2058.63 1212.52 2061.66 1215.9 Q2064.71 1219.26 2064.71 1225.05 M2060.45 1223.8 Q2060.41 1220.3 2058.49 1218.22 Q2056.59 1216.14 2053.44 1216.14 Q2049.88 1216.14 2047.72 1218.15 Q2045.59 1220.16 2045.27 1223.82 L2060.45 1223.8 M2056.36 1201.16 L2060.96 1201.16 L2053.42 1209.86 L2049.88 1209.86 L2056.36 1201.16 Z" fill="#000000" fill-rule="nonzero" fill-opacity="1"></path><path clip-path="url(#clip640)" d="M2093.88 1225.05 L2093.88 1227.13 L2074.3 1227.13 Q2074.57 1231.53 2076.94 1233.84 Q2079.32 1236.14 2083.56 1236.14 Q2086.01 1236.14 2088.3 1235.53 Q2090.62 1234.93 2092.89 1233.73 L2092.89 1237.76 Q2090.59 1238.73 2088.19 1239.24 Q2085.78 1239.75 2083.3 1239.75 Q2077.1 1239.75 2073.46 1236.14 Q2069.85 1232.52 2069.85 1226.37 Q2069.85 1220 2073.28 1216.27 Q2076.73 1212.52 2082.56 1212.52 Q2087.79 1212.52 2090.82 1215.9 Q2093.88 1219.26 2093.88 1225.05 M2089.62 1223.8 Q2089.57 1220.3 2087.65 1218.22 Q2085.76 1216.14 2082.61 1216.14 Q2079.04 1216.14 2076.89 1218.15 Q2074.76 1220.16 2074.44 1223.82 L2089.62 1223.8 Z" fill="#000000" fill-rule="nonzero" fill-opacity="1"></path><path clip-path="url(#clip640)" d="M2117.4 1213.91 L2117.4 1217.94 Q2115.59 1217.02 2113.65 1216.55 Q2111.7 1216.09 2109.62 1216.09 Q2106.45 1216.09 2104.85 1217.06 Q2103.28 1218.03 2103.28 1219.98 Q2103.28 1221.46 2104.41 1222.32 Q2105.55 1223.15 2108.97 1223.91 L2110.43 1224.24 Q2114.97 1225.21 2116.87 1226.99 Q2118.79 1228.75 2118.79 1231.92 Q2118.79 1235.53 2115.92 1237.64 Q2113.07 1239.75 2108.07 1239.75 Q2105.99 1239.75 2103.72 1239.33 Q2101.47 1238.94 2098.97 1238.13 L2098.97 1233.73 Q2101.33 1234.95 2103.63 1235.58 Q2105.92 1236.18 2108.16 1236.18 Q2111.17 1236.18 2112.79 1235.16 Q2114.41 1234.12 2114.41 1232.25 Q2114.41 1230.51 2113.23 1229.58 Q2112.07 1228.66 2108.12 1227.8 L2106.63 1227.46 Q2102.68 1226.62 2100.92 1224.91 Q2099.16 1223.17 2099.16 1220.16 Q2099.16 1216.51 2101.75 1214.52 Q2104.34 1212.52 2109.11 1212.52 Q2111.47 1212.52 2113.56 1212.87 Q2115.64 1213.22 2117.4 1213.91 Z" fill="#000000" fill-rule="nonzero" fill-opacity="1"></path><polyline clip-path="url(#clip640)" style="stroke:#ff0000; stroke-linecap:round; stroke-linejoin:round; stroke-width:4; stroke-opacity:1; fill:none" points="1750.08,1273.64 1893.26,1273.64 "></polyline>
<path clip-path="url(#clip640)" d="M1917.12 1256.36 L1924.09 1256.36 L1932.91 1279.87 L1941.77 1256.36 L1948.74 1256.36 L1948.74 1290.92 L1944.18 1290.92 L1944.18 1260.57 L1935.27 1284.27 L1930.57 1284.27 L1921.66 1260.57 L1921.66 1290.92 L1917.12 1290.92 L1917.12 1256.36 Z" fill="#000000" fill-rule="nonzero" fill-opacity="1"></path><path clip-path="url(#clip640)" d="M1967.89 1267.98 Q1964.46 1267.98 1962.47 1270.66 Q1960.48 1273.32 1960.48 1277.98 Q1960.48 1282.63 1962.45 1285.31 Q1964.44 1287.98 1967.89 1287.98 Q1971.29 1287.98 1973.28 1285.29 Q1975.27 1282.61 1975.27 1277.98 Q1975.27 1273.37 1973.28 1270.68 Q1971.29 1267.98 1967.89 1267.98 M1967.89 1264.36 Q1973.44 1264.36 1976.61 1267.98 Q1979.78 1271.59 1979.78 1277.98 Q1979.78 1284.34 1976.61 1287.98 Q1973.44 1291.59 1967.89 1291.59 Q1962.31 1291.59 1959.14 1287.98 Q1955.99 1284.34 1955.99 1277.98 Q1955.99 1271.59 1959.14 1267.98 Q1962.31 1264.36 1967.89 1264.36 Z" fill="#000000" fill-rule="nonzero" fill-opacity="1"></path><path clip-path="url(#clip640)" d="M2003.9 1268.92 L2003.9 1254.9 L2008.16 1254.9 L2008.16 1290.92 L2003.9 1290.92 L2003.9 1287.03 Q2002.56 1289.34 2000.5 1290.48 Q1998.46 1291.59 1995.59 1291.59 Q1990.89 1291.59 1987.93 1287.84 Q1984.99 1284.09 1984.99 1277.98 Q1984.99 1271.86 1987.93 1268.11 Q1990.89 1264.36 1995.59 1264.36 Q1998.46 1264.36 2000.5 1265.5 Q2002.56 1266.61 2003.9 1268.92 M1989.39 1277.98 Q1989.39 1282.67 1991.31 1285.36 Q1993.26 1288.02 1996.64 1288.02 Q2000.02 1288.02 2001.96 1285.36 Q2003.9 1282.67 2003.9 1277.98 Q2003.9 1273.28 2001.96 1270.61 Q2000.02 1267.93 1996.64 1267.93 Q1993.26 1267.93 1991.31 1270.61 Q1989.39 1273.28 1989.39 1277.98 Z" fill="#000000" fill-rule="nonzero" fill-opacity="1"></path><path clip-path="url(#clip640)" d="M2039.11 1276.89 L2039.11 1278.97 L2019.53 1278.97 Q2019.81 1283.37 2022.17 1285.68 Q2024.55 1287.98 2028.79 1287.98 Q2031.24 1287.98 2033.53 1287.37 Q2035.85 1286.77 2038.12 1285.57 L2038.12 1289.6 Q2035.83 1290.57 2033.42 1291.08 Q2031.01 1291.59 2028.53 1291.59 Q2022.33 1291.59 2018.7 1287.98 Q2015.08 1284.36 2015.08 1278.21 Q2015.08 1271.84 2018.51 1268.11 Q2021.96 1264.36 2027.79 1264.36 Q2033.02 1264.36 2036.06 1267.74 Q2039.11 1271.1 2039.11 1276.89 M2034.85 1275.64 Q2034.81 1272.14 2032.89 1270.06 Q2030.99 1267.98 2027.84 1267.98 Q2024.27 1267.98 2022.12 1269.99 Q2019.99 1272 2019.67 1275.66 L2034.85 1275.64 M2024.18 1253 L2030.71 1261.66 L2027.17 1261.66 L2019.62 1253 L2024.18 1253 Z" fill="#000000" fill-rule="nonzero" fill-opacity="1"></path><path clip-path="url(#clip640)" d="M2046.1 1254.9 L2050.36 1254.9 L2050.36 1290.92 L2046.1 1290.92 L2046.1 1254.9 Z" fill="#000000" fill-rule="nonzero" fill-opacity="1"></path><path clip-path="url(#clip640)" d="M2081.45 1276.89 L2081.45 1278.97 L2061.87 1278.97 Q2062.14 1283.37 2064.51 1285.68 Q2066.89 1287.98 2071.13 1287.98 Q2073.58 1287.98 2075.87 1287.37 Q2078.19 1286.77 2080.45 1285.57 L2080.45 1289.6 Q2078.16 1290.57 2075.76 1291.08 Q2073.35 1291.59 2070.87 1291.59 Q2064.67 1291.59 2061.03 1287.98 Q2057.42 1284.36 2057.42 1278.21 Q2057.42 1271.84 2060.85 1268.11 Q2064.3 1264.36 2070.13 1264.36 Q2075.36 1264.36 2078.39 1267.74 Q2081.45 1271.1 2081.45 1276.89 M2077.19 1275.64 Q2077.14 1272.14 2075.22 1270.06 Q2073.32 1267.98 2070.18 1267.98 Q2066.61 1267.98 2064.46 1269.99 Q2062.33 1272 2062.01 1275.66 L2077.19 1275.64 Z" fill="#000000" fill-rule="nonzero" fill-opacity="1"></path><path clip-path="url(#clip640)" d="M2115.25 1260.96 L2108.9 1278.16 L2121.61 1278.16 L2115.25 1260.96 M2112.61 1256.36 L2117.91 1256.36 L2131.08 1290.92 L2126.22 1290.92 L2123.07 1282.05 L2107.49 1282.05 L2104.34 1290.92 L2099.41 1290.92 L2112.61 1256.36 Z" fill="#000000" fill-rule="nonzero" fill-opacity="1"></path><path clip-path="url(#clip640)" d="M2140.8 1260.2 L2140.8 1287.07 L2146.45 1287.07 Q2153.6 1287.07 2156.91 1283.83 Q2160.25 1280.59 2160.25 1273.6 Q2160.25 1266.66 2156.91 1263.44 Q2153.6 1260.2 2146.45 1260.2 L2140.8 1260.2 M2136.13 1256.36 L2145.73 1256.36 Q2155.78 1256.36 2160.48 1260.55 Q2165.18 1264.71 2165.18 1273.6 Q2165.18 1282.54 2160.45 1286.73 Q2155.73 1290.92 2145.73 1290.92 L2136.13 1290.92 L2136.13 1256.36 Z" fill="#000000" fill-rule="nonzero" fill-opacity="1"></path><path clip-path="url(#clip640)" d="M2172.63 1256.36 L2178.93 1256.36 L2194.25 1285.27 L2194.25 1256.36 L2198.79 1256.36 L2198.79 1290.92 L2192.49 1290.92 L2177.17 1262 L2177.17 1290.92 L2172.63 1290.92 L2172.63 1256.36 Z" fill="#000000" fill-rule="nonzero" fill-opacity="1"></path><path clip-path="url(#clip640)" d="M2208.09 1256.36 L2212.77 1256.36 L2212.77 1286.98 L2229.6 1286.98 L2229.6 1290.92 L2208.09 1290.92 L2208.09 1256.36 Z" fill="#000000" fill-rule="nonzero" fill-opacity="1"></path><path clip-path="url(#clip640)" d="M2239.18 1260.2 L2239.18 1273.18 L2245.06 1273.18 Q2248.32 1273.18 2250.11 1271.49 Q2251.89 1269.8 2251.89 1266.68 Q2251.89 1263.58 2250.11 1261.89 Q2248.32 1260.2 2245.06 1260.2 L2239.18 1260.2 M2234.5 1256.36 L2245.06 1256.36 Q2250.87 1256.36 2253.83 1258.99 Q2256.82 1261.61 2256.82 1266.68 Q2256.82 1271.8 2253.83 1274.41 Q2250.87 1277.03 2245.06 1277.03 L2239.18 1277.03 L2239.18 1290.92 L2234.5 1290.92 L2234.5 1256.36 Z" fill="#000000" fill-rule="nonzero" fill-opacity="1"></path><polyline clip-path="url(#clip640)" style="stroke:#0000ff; stroke-linecap:round; stroke-linejoin:round; stroke-width:4; stroke-opacity:1; fill:none" points="1750.08,1325.48 1893.26,1325.48 "></polyline>
<path clip-path="url(#clip640)" d="M1917.12 1308.2 L1924.09 1308.2 L1932.91 1331.71 L1941.77 1308.2 L1948.74 1308.2 L1948.74 1342.76 L1944.18 1342.76 L1944.18 1312.41 L1935.27 1336.11 L1930.57 1336.11 L1921.66 1312.41 L1921.66 1342.76 L1917.12 1342.76 L1917.12 1308.2 Z" fill="#000000" fill-rule="nonzero" fill-opacity="1"></path><path clip-path="url(#clip640)" d="M1967.89 1319.82 Q1964.46 1319.82 1962.47 1322.5 Q1960.48 1325.16 1960.48 1329.82 Q1960.48 1334.47 1962.45 1337.15 Q1964.44 1339.82 1967.89 1339.82 Q1971.29 1339.82 1973.28 1337.13 Q1975.27 1334.45 1975.27 1329.82 Q1975.27 1325.21 1973.28 1322.52 Q1971.29 1319.82 1967.89 1319.82 M1967.89 1316.2 Q1973.44 1316.2 1976.61 1319.82 Q1979.78 1323.43 1979.78 1329.82 Q1979.78 1336.18 1976.61 1339.82 Q1973.44 1343.43 1967.89 1343.43 Q1962.31 1343.43 1959.14 1339.82 Q1955.99 1336.18 1955.99 1329.82 Q1955.99 1323.43 1959.14 1319.82 Q1962.31 1316.2 1967.89 1316.2 Z" fill="#000000" fill-rule="nonzero" fill-opacity="1"></path><path clip-path="url(#clip640)" d="M2003.9 1320.76 L2003.9 1306.74 L2008.16 1306.74 L2008.16 1342.76 L2003.9 1342.76 L2003.9 1338.87 Q2002.56 1341.18 2000.5 1342.32 Q1998.46 1343.43 1995.59 1343.43 Q1990.89 1343.43 1987.93 1339.68 Q1984.99 1335.93 1984.99 1329.82 Q1984.99 1323.7 1987.93 1319.95 Q1990.89 1316.2 1995.59 1316.2 Q1998.46 1316.2 2000.5 1317.34 Q2002.56 1318.45 2003.9 1320.76 M1989.39 1329.82 Q1989.39 1334.51 1991.31 1337.2 Q1993.26 1339.86 1996.64 1339.86 Q2000.02 1339.86 2001.96 1337.2 Q2003.9 1334.51 2003.9 1329.82 Q2003.9 1325.12 2001.96 1322.45 Q2000.02 1319.77 1996.64 1319.77 Q1993.26 1319.77 1991.31 1322.45 Q1989.39 1325.12 1989.39 1329.82 Z" fill="#000000" fill-rule="nonzero" fill-opacity="1"></path><path clip-path="url(#clip640)" d="M2039.11 1328.73 L2039.11 1330.81 L2019.53 1330.81 Q2019.81 1335.21 2022.17 1337.52 Q2024.55 1339.82 2028.79 1339.82 Q2031.24 1339.82 2033.53 1339.21 Q2035.85 1338.61 2038.12 1337.41 L2038.12 1341.44 Q2035.83 1342.41 2033.42 1342.92 Q2031.01 1343.43 2028.53 1343.43 Q2022.33 1343.43 2018.7 1339.82 Q2015.08 1336.2 2015.08 1330.05 Q2015.08 1323.68 2018.51 1319.95 Q2021.96 1316.2 2027.79 1316.2 Q2033.02 1316.2 2036.06 1319.58 Q2039.11 1322.94 2039.11 1328.73 M2034.85 1327.48 Q2034.81 1323.98 2032.89 1321.9 Q2030.99 1319.82 2027.84 1319.82 Q2024.27 1319.82 2022.12 1321.83 Q2019.99 1323.84 2019.67 1327.5 L2034.85 1327.48 M2024.18 1304.84 L2030.71 1313.5 L2027.17 1313.5 L2019.62 1304.84 L2024.18 1304.84 Z" fill="#000000" fill-rule="nonzero" fill-opacity="1"></path><path clip-path="url(#clip640)" d="M2046.1 1306.74 L2050.36 1306.74 L2050.36 1342.76 L2046.1 1342.76 L2046.1 1306.74 Z" fill="#000000" fill-rule="nonzero" fill-opacity="1"></path><path clip-path="url(#clip640)" d="M2081.45 1328.73 L2081.45 1330.81 L2061.87 1330.81 Q2062.14 1335.21 2064.51 1337.52 Q2066.89 1339.82 2071.13 1339.82 Q2073.58 1339.82 2075.87 1339.21 Q2078.19 1338.61 2080.45 1337.41 L2080.45 1341.44 Q2078.16 1342.41 2075.76 1342.92 Q2073.35 1343.43 2070.87 1343.43 Q2064.67 1343.43 2061.03 1339.82 Q2057.42 1336.2 2057.42 1330.05 Q2057.42 1323.68 2060.85 1319.95 Q2064.3 1316.2 2070.13 1316.2 Q2075.36 1316.2 2078.39 1319.58 Q2081.45 1322.94 2081.45 1328.73 M2077.19 1327.48 Q2077.14 1323.98 2075.22 1321.9 Q2073.32 1319.82 2070.18 1319.82 Q2066.61 1319.82 2064.46 1321.83 Q2062.33 1323.84 2062.01 1327.5 L2077.19 1327.48 Z" fill="#000000" fill-rule="nonzero" fill-opacity="1"></path><path clip-path="url(#clip640)" d="M2115.25 1312.8 L2108.9 1330 L2121.61 1330 L2115.25 1312.8 M2112.61 1308.2 L2117.91 1308.2 L2131.08 1342.76 L2126.22 1342.76 L2123.07 1333.89 L2107.49 1333.89 L2104.34 1342.76 L2099.41 1342.76 L2112.61 1308.2 Z" fill="#000000" fill-rule="nonzero" fill-opacity="1"></path><path clip-path="url(#clip640)" d="M2140.8 1312.04 L2140.8 1338.91 L2146.45 1338.91 Q2153.6 1338.91 2156.91 1335.67 Q2160.25 1332.43 2160.25 1325.44 Q2160.25 1318.5 2156.91 1315.28 Q2153.6 1312.04 2146.45 1312.04 L2140.8 1312.04 M2136.13 1308.2 L2145.73 1308.2 Q2155.78 1308.2 2160.48 1312.39 Q2165.18 1316.55 2165.18 1325.44 Q2165.18 1334.38 2160.45 1338.57 Q2155.73 1342.76 2145.73 1342.76 L2136.13 1342.76 L2136.13 1308.2 Z" fill="#000000" fill-rule="nonzero" fill-opacity="1"></path><path clip-path="url(#clip640)" d="M2172.63 1308.2 L2178.93 1308.2 L2194.25 1337.11 L2194.25 1308.2 L2198.79 1308.2 L2198.79 1342.76 L2192.49 1342.76 L2177.17 1313.84 L2177.17 1342.76 L2172.63 1342.76 L2172.63 1308.2 Z" fill="#000000" fill-rule="nonzero" fill-opacity="1"></path><path clip-path="url(#clip640)" d="M2208.09 1308.2 L2212.77 1308.2 L2212.77 1338.82 L2229.6 1338.82 L2229.6 1342.76 L2208.09 1342.76 L2208.09 1308.2 Z" fill="#000000" fill-rule="nonzero" fill-opacity="1"></path><path clip-path="url(#clip640)" d="M2255.22 1309.33 L2255.22 1313.89 Q2252.56 1312.62 2250.2 1311.99 Q2247.84 1311.37 2245.64 1311.37 Q2241.82 1311.37 2239.74 1312.85 Q2237.68 1314.33 2237.68 1317.06 Q2237.68 1319.35 2239.04 1320.53 Q2240.43 1321.69 2244.27 1322.41 L2247.1 1322.99 Q2252.33 1323.98 2254.81 1326.51 Q2257.31 1329.01 2257.31 1333.22 Q2257.31 1338.24 2253.93 1340.83 Q2250.57 1343.43 2244.06 1343.43 Q2241.61 1343.43 2238.83 1342.87 Q2236.08 1342.32 2233.12 1341.23 L2233.12 1336.41 Q2235.96 1338.01 2238.69 1338.82 Q2241.43 1339.63 2244.06 1339.63 Q2248.07 1339.63 2250.25 1338.06 Q2252.42 1336.48 2252.42 1333.57 Q2252.42 1331.02 2250.85 1329.58 Q2249.3 1328.15 2245.73 1327.43 L2242.88 1326.88 Q2237.65 1325.83 2235.31 1323.61 Q2232.98 1321.39 2232.98 1317.43 Q2232.98 1312.85 2236.19 1310.21 Q2239.44 1307.57 2245.11 1307.57 Q2247.54 1307.57 2250.06 1308.01 Q2252.58 1308.45 2255.22 1309.33 Z" fill="#000000" fill-rule="nonzero" fill-opacity="1"></path></svg>