<?xml version="1.0" encoding="utf-8"?>
<svg xmlns="http://www.w3.org/2000/svg" xmlns:xlink="http://www.w3.org/1999/xlink" width="600" height="400" viewBox="0 0 2400 1600">
<defs>
  <clipPath id="clip160">
    <rect x="0" y="0" width="2400" height="1600"/>
  </clipPath>
</defs>
<path clip-path="url(#clip160)" d="M0 1600 L2400 1600 L2400 0 L0 0  Z" fill="#ffffff" fill-rule="evenodd" fill-opacity="1"/>
<defs>
  <clipPath id="clip161">
    <rect x="480" y="0" width="1681" height="1600"/>
  </clipPath>
</defs>
<path clip-path="url(#clip160)" d="M205.121 1423.18 L2352.76 1423.18 L2352.76 47.2441 L205.121 47.2441  Z" fill="#ffffff" fill-rule="evenodd" fill-opacity="1"/>
<defs>
  <clipPath id="clip162">
    <rect x="205" y="47" width="2149" height="1377"/>
  </clipPath>
</defs>
<polyline clip-path="url(#clip162)" style="stroke:#000000; stroke-linecap:round; stroke-linejoin:round; stroke-width:2; stroke-opacity:0.1; fill:none" points="265.903,1423.18 265.903,47.2441 "/>
<polyline clip-path="url(#clip162)" style="stroke:#000000; stroke-linecap:round; stroke-linejoin:round; stroke-width:2; stroke-opacity:0.1; fill:none" points="772.421,1423.18 772.421,47.2441 "/>
<polyline clip-path="url(#clip162)" style="stroke:#000000; stroke-linecap:round; stroke-linejoin:round; stroke-width:2; stroke-opacity:0.1; fill:none" points="1278.94,1423.18 1278.94,47.2441 "/>
<polyline clip-path="url(#clip162)" style="stroke:#000000; stroke-linecap:round; stroke-linejoin:round; stroke-width:2; stroke-opacity:0.1; fill:none" points="1785.46,1423.18 1785.46,47.2441 "/>
<polyline clip-path="url(#clip162)" style="stroke:#000000; stroke-linecap:round; stroke-linejoin:round; stroke-width:2; stroke-opacity:0.1; fill:none" points="2291.97,1423.18 2291.97,47.2441 "/>
<polyline clip-path="url(#clip160)" style="stroke:#000000; stroke-linecap:round; stroke-linejoin:round; stroke-width:4; stroke-opacity:1; fill:none" points="205.121,1423.18 2352.76,1423.18 "/>
<polyline clip-path="url(#clip160)" style="stroke:#000000; stroke-linecap:round; stroke-linejoin:round; stroke-width:4; stroke-opacity:1; fill:none" points="265.903,1423.18 265.903,1404.28 "/>
<polyline clip-path="url(#clip160)" style="stroke:#000000; stroke-linecap:round; stroke-linejoin:round; stroke-width:4; stroke-opacity:1; fill:none" points="772.421,1423.18 772.421,1404.28 "/>
<polyline clip-path="url(#clip160)" style="stroke:#000000; stroke-linecap:round; stroke-linejoin:round; stroke-width:4; stroke-opacity:1; fill:none" points="1278.94,1423.18 1278.94,1404.28 "/>
<polyline clip-path="url(#clip160)" style="stroke:#000000; stroke-linecap:round; stroke-linejoin:round; stroke-width:4; stroke-opacity:1; fill:none" points="1785.46,1423.18 1785.46,1404.28 "/>
<polyline clip-path="url(#clip160)" style="stroke:#000000; stroke-linecap:round; stroke-linejoin:round; stroke-width:4; stroke-opacity:1; fill:none" points="2291.97,1423.18 2291.97,1404.28 "/>
<path clip-path="url(#clip160)" d="M195.348 1481.64 L202.987 1481.64 L202.987 1455.28 L194.677 1456.95 L194.677 1452.69 L202.94 1451.02 L207.616 1451.02 L207.616 1481.64 L215.255 1481.64 L215.255 1485.58 L195.348 1485.58 L195.348 1481.64 Z" fill="#000000" fill-rule="nonzero" fill-opacity="1" /><path clip-path="url(#clip160)" d="M224.839 1484.86 L224.839 1480.6 Q226.598 1481.44 228.403 1481.88 Q230.209 1482.32 231.945 1482.32 Q236.575 1482.32 239.005 1479.21 Q241.459 1476.09 241.806 1469.75 Q240.463 1471.74 238.403 1472.8 Q236.343 1473.87 233.843 1473.87 Q228.658 1473.87 225.626 1470.74 Q222.616 1467.59 222.616 1462.15 Q222.616 1456.83 225.764 1453.61 Q228.913 1450.39 234.144 1450.39 Q240.139 1450.39 243.287 1455 Q246.459 1459.58 246.459 1468.33 Q246.459 1476.51 242.57 1481.39 Q238.704 1486.25 232.153 1486.25 Q230.394 1486.25 228.588 1485.9 Q226.783 1485.56 224.839 1484.86 M234.144 1470.21 Q237.292 1470.21 239.121 1468.06 Q240.973 1465.9 240.973 1462.15 Q240.973 1458.43 239.121 1456.27 Q237.292 1454.1 234.144 1454.1 Q230.996 1454.1 229.144 1456.27 Q227.315 1458.43 227.315 1462.15 Q227.315 1465.9 229.144 1468.06 Q230.996 1470.21 234.144 1470.21 Z" fill="#000000" fill-rule="nonzero" fill-opacity="1" /><path clip-path="url(#clip160)" d="M264.861 1454.1 Q261.25 1454.1 259.422 1457.66 Q257.616 1461.2 257.616 1468.33 Q257.616 1475.44 259.422 1479.01 Q261.25 1482.55 264.861 1482.55 Q268.496 1482.55 270.301 1479.01 Q272.13 1475.44 272.13 1468.33 Q272.13 1461.2 270.301 1457.66 Q268.496 1454.1 264.861 1454.1 M264.861 1450.39 Q270.672 1450.39 273.727 1455 Q276.806 1459.58 276.806 1468.33 Q276.806 1477.06 273.727 1481.67 Q270.672 1486.25 264.861 1486.25 Q259.051 1486.25 255.973 1481.67 Q252.917 1477.06 252.917 1468.33 Q252.917 1459.58 255.973 1455 Q259.051 1450.39 264.861 1450.39 Z" fill="#000000" fill-rule="nonzero" fill-opacity="1" /><path clip-path="url(#clip160)" d="M295.023 1454.1 Q291.412 1454.1 289.584 1457.66 Q287.778 1461.2 287.778 1468.33 Q287.778 1475.44 289.584 1479.01 Q291.412 1482.55 295.023 1482.55 Q298.658 1482.55 300.463 1479.01 Q302.292 1475.44 302.292 1468.33 Q302.292 1461.2 300.463 1457.66 Q298.658 1454.1 295.023 1454.1 M295.023 1450.39 Q300.833 1450.39 303.889 1455 Q306.968 1459.58 306.968 1468.33 Q306.968 1477.06 303.889 1481.67 Q300.833 1486.25 295.023 1486.25 Q289.213 1486.25 286.134 1481.67 Q283.079 1477.06 283.079 1468.33 Q283.079 1459.58 286.134 1455 Q289.213 1450.39 295.023 1450.39 Z" fill="#000000" fill-rule="nonzero" fill-opacity="1" /><path clip-path="url(#clip160)" d="M325.185 1454.1 Q321.574 1454.1 319.745 1457.66 Q317.94 1461.2 317.94 1468.33 Q317.94 1475.44 319.745 1479.01 Q321.574 1482.55 325.185 1482.55 Q328.819 1482.55 330.625 1479.01 Q332.454 1475.44 332.454 1468.33 Q332.454 1461.2 330.625 1457.66 Q328.819 1454.1 325.185 1454.1 M325.185 1450.39 Q330.995 1450.39 334.051 1455 Q337.13 1459.58 337.13 1468.33 Q337.13 1477.06 334.051 1481.67 Q330.995 1486.25 325.185 1486.25 Q319.375 1486.25 316.296 1481.67 Q313.241 1477.06 313.241 1468.33 Q313.241 1459.58 316.296 1455 Q319.375 1450.39 325.185 1450.39 Z" fill="#000000" fill-rule="nonzero" fill-opacity="1" /><path clip-path="url(#clip160)" d="M701.866 1481.64 L709.504 1481.64 L709.504 1455.28 L701.194 1456.95 L701.194 1452.69 L709.458 1451.02 L714.134 1451.02 L714.134 1481.64 L721.773 1481.64 L721.773 1485.58 L701.866 1485.58 L701.866 1481.64 Z" fill="#000000" fill-rule="nonzero" fill-opacity="1" /><path clip-path="url(#clip160)" d="M731.356 1484.86 L731.356 1480.6 Q733.115 1481.44 734.921 1481.88 Q736.727 1482.32 738.463 1482.32 Q743.092 1482.32 745.523 1479.21 Q747.976 1476.09 748.324 1469.75 Q746.981 1471.74 744.921 1472.8 Q742.861 1473.87 740.361 1473.87 Q735.176 1473.87 732.143 1470.74 Q729.134 1467.59 729.134 1462.15 Q729.134 1456.83 732.282 1453.61 Q735.43 1450.39 740.662 1450.39 Q746.657 1450.39 749.805 1455 Q752.976 1459.58 752.976 1468.33 Q752.976 1476.51 749.088 1481.39 Q745.222 1486.25 738.671 1486.25 Q736.912 1486.25 735.106 1485.9 Q733.301 1485.56 731.356 1484.86 M740.662 1470.21 Q743.81 1470.21 745.639 1468.06 Q747.49 1465.9 747.49 1462.15 Q747.49 1458.43 745.639 1456.27 Q743.81 1454.1 740.662 1454.1 Q737.514 1454.1 735.662 1456.27 Q733.833 1458.43 733.833 1462.15 Q733.833 1465.9 735.662 1468.06 Q737.514 1470.21 740.662 1470.21 Z" fill="#000000" fill-rule="nonzero" fill-opacity="1" /><path clip-path="url(#clip160)" d="M765.407 1481.64 L781.726 1481.64 L781.726 1485.58 L759.782 1485.58 L759.782 1481.64 Q762.444 1478.89 767.027 1474.26 Q771.634 1469.61 772.814 1468.27 Q775.06 1465.74 775.939 1464.01 Q776.842 1462.25 776.842 1460.56 Q776.842 1457.8 774.898 1456.07 Q772.976 1454.33 769.874 1454.33 Q767.675 1454.33 765.222 1455.09 Q762.791 1455.86 760.013 1457.41 L760.013 1452.69 Q762.837 1451.55 765.291 1450.97 Q767.745 1450.39 769.782 1450.39 Q775.152 1450.39 778.347 1453.08 Q781.541 1455.77 781.541 1460.26 Q781.541 1462.39 780.731 1464.31 Q779.944 1466.2 777.837 1468.8 Q777.259 1469.47 774.157 1472.69 Q771.055 1475.88 765.407 1481.64 Z" fill="#000000" fill-rule="nonzero" fill-opacity="1" /><path clip-path="url(#clip160)" d="M791.587 1451.02 L809.944 1451.02 L809.944 1454.96 L795.87 1454.96 L795.87 1463.43 Q796.888 1463.08 797.907 1462.92 Q798.925 1462.73 799.944 1462.73 Q805.731 1462.73 809.11 1465.9 Q812.49 1469.08 812.49 1474.49 Q812.49 1480.07 809.018 1483.17 Q805.546 1486.25 799.226 1486.25 Q797.05 1486.25 794.782 1485.88 Q792.536 1485.51 790.129 1484.77 L790.129 1480.07 Q792.212 1481.2 794.435 1481.76 Q796.657 1482.32 799.134 1482.32 Q803.138 1482.32 805.476 1480.21 Q807.814 1478.1 807.814 1474.49 Q807.814 1470.88 805.476 1468.77 Q803.138 1466.67 799.134 1466.67 Q797.259 1466.67 795.384 1467.08 Q793.532 1467.5 791.587 1468.38 L791.587 1451.02 Z" fill="#000000" fill-rule="nonzero" fill-opacity="1" /><path clip-path="url(#clip160)" d="M831.703 1454.1 Q828.092 1454.1 826.263 1457.66 Q824.458 1461.2 824.458 1468.33 Q824.458 1475.44 826.263 1479.01 Q828.092 1482.55 831.703 1482.55 Q835.337 1482.55 837.143 1479.01 Q838.971 1475.44 838.971 1468.33 Q838.971 1461.2 837.143 1457.66 Q835.337 1454.1 831.703 1454.1 M831.703 1450.39 Q837.513 1450.39 840.569 1455 Q843.647 1459.58 843.647 1468.33 Q843.647 1477.06 840.569 1481.67 Q837.513 1486.25 831.703 1486.25 Q825.893 1486.25 822.814 1481.67 Q819.758 1477.06 819.758 1468.33 Q819.758 1459.58 822.814 1455 Q825.893 1450.39 831.703 1450.39 Z" fill="#000000" fill-rule="nonzero" fill-opacity="1" /><path clip-path="url(#clip160)" d="M1208.38 1481.64 L1216.02 1481.64 L1216.02 1455.28 L1207.71 1456.95 L1207.71 1452.69 L1215.98 1451.02 L1220.65 1451.02 L1220.65 1481.64 L1228.29 1481.64 L1228.29 1485.58 L1208.38 1485.58 L1208.38 1481.64 Z" fill="#000000" fill-rule="nonzero" fill-opacity="1" /><path clip-path="url(#clip160)" d="M1237.87 1484.86 L1237.87 1480.6 Q1239.63 1481.44 1241.44 1481.88 Q1243.24 1482.32 1244.98 1482.32 Q1249.61 1482.32 1252.04 1479.21 Q1254.49 1476.09 1254.84 1469.75 Q1253.5 1471.74 1251.44 1472.8 Q1249.38 1473.87 1246.88 1473.87 Q1241.69 1473.87 1238.66 1470.74 Q1235.65 1467.59 1235.65 1462.15 Q1235.65 1456.83 1238.8 1453.61 Q1241.95 1450.39 1247.18 1450.39 Q1253.17 1450.39 1256.32 1455 Q1259.49 1459.58 1259.49 1468.33 Q1259.49 1476.51 1255.61 1481.39 Q1251.74 1486.25 1245.19 1486.25 Q1243.43 1486.25 1241.62 1485.9 Q1239.82 1485.56 1237.87 1484.86 M1247.18 1470.21 Q1250.33 1470.21 1252.16 1468.06 Q1254.01 1465.9 1254.01 1462.15 Q1254.01 1458.43 1252.16 1456.27 Q1250.33 1454.1 1247.18 1454.1 Q1244.03 1454.1 1242.18 1456.27 Q1240.35 1458.43 1240.35 1462.15 Q1240.35 1465.9 1242.18 1468.06 Q1244.03 1470.21 1247.18 1470.21 Z" fill="#000000" fill-rule="nonzero" fill-opacity="1" /><path clip-path="url(#clip160)" d="M1267.94 1451.02 L1286.3 1451.02 L1286.3 1454.96 L1272.23 1454.96 L1272.23 1463.43 Q1273.24 1463.08 1274.26 1462.92 Q1275.28 1462.73 1276.3 1462.73 Q1282.09 1462.73 1285.47 1465.9 Q1288.85 1469.08 1288.85 1474.49 Q1288.85 1480.07 1285.37 1483.17 Q1281.9 1486.25 1275.58 1486.25 Q1273.41 1486.25 1271.14 1485.88 Q1268.89 1485.51 1266.48 1484.77 L1266.48 1480.07 Q1268.57 1481.2 1270.79 1481.76 Q1273.01 1482.32 1275.49 1482.32 Q1279.49 1482.32 1281.83 1480.21 Q1284.17 1478.1 1284.17 1474.49 Q1284.17 1470.88 1281.83 1468.77 Q1279.49 1466.67 1275.49 1466.67 Q1273.61 1466.67 1271.74 1467.08 Q1269.89 1467.5 1267.94 1468.38 L1267.94 1451.02 Z" fill="#000000" fill-rule="nonzero" fill-opacity="1" /><path clip-path="url(#clip160)" d="M1308.06 1454.1 Q1304.45 1454.1 1302.62 1457.66 Q1300.81 1461.2 1300.81 1468.33 Q1300.81 1475.44 1302.62 1479.01 Q1304.45 1482.55 1308.06 1482.55 Q1311.69 1482.55 1313.5 1479.01 Q1315.33 1475.44 1315.33 1468.33 Q1315.33 1461.2 1313.5 1457.66 Q1311.69 1454.1 1308.06 1454.1 M1308.06 1450.39 Q1313.87 1450.39 1316.92 1455 Q1320 1459.58 1320 1468.33 Q1320 1477.06 1316.92 1481.67 Q1313.87 1486.25 1308.06 1486.25 Q1302.25 1486.25 1299.17 1481.67 Q1296.11 1477.06 1296.11 1468.33 Q1296.11 1459.58 1299.17 1455 Q1302.25 1450.39 1308.06 1450.39 Z" fill="#000000" fill-rule="nonzero" fill-opacity="1" /><path clip-path="url(#clip160)" d="M1338.22 1454.1 Q1334.61 1454.1 1332.78 1457.66 Q1330.98 1461.2 1330.98 1468.33 Q1330.98 1475.44 1332.78 1479.01 Q1334.61 1482.55 1338.22 1482.55 Q1341.85 1482.55 1343.66 1479.01 Q1345.49 1475.44 1345.49 1468.33 Q1345.49 1461.2 1343.66 1457.66 Q1341.85 1454.1 1338.22 1454.1 M1338.22 1450.39 Q1344.03 1450.39 1347.09 1455 Q1350.16 1459.58 1350.16 1468.33 Q1350.16 1477.06 1347.09 1481.67 Q1344.03 1486.25 1338.22 1486.25 Q1332.41 1486.25 1329.33 1481.67 Q1326.28 1477.06 1326.28 1468.33 Q1326.28 1459.58 1329.33 1455 Q1332.41 1450.39 1338.22 1450.39 Z" fill="#000000" fill-rule="nonzero" fill-opacity="1" /><path clip-path="url(#clip160)" d="M1714.9 1481.64 L1722.54 1481.64 L1722.54 1455.28 L1714.23 1456.95 L1714.23 1452.69 L1722.49 1451.02 L1727.17 1451.02 L1727.17 1481.64 L1734.81 1481.64 L1734.81 1485.58 L1714.9 1485.58 L1714.9 1481.64 Z" fill="#000000" fill-rule="nonzero" fill-opacity="1" /><path clip-path="url(#clip160)" d="M1744.39 1484.86 L1744.39 1480.6 Q1746.15 1481.44 1747.96 1481.88 Q1749.76 1482.32 1751.5 1482.32 Q1756.13 1482.32 1758.56 1479.21 Q1761.01 1476.09 1761.36 1469.75 Q1760.02 1471.74 1757.96 1472.8 Q1755.9 1473.87 1753.4 1473.87 Q1748.21 1473.87 1745.18 1470.74 Q1742.17 1467.59 1742.17 1462.15 Q1742.17 1456.83 1745.32 1453.61 Q1748.47 1450.39 1753.7 1450.39 Q1759.69 1450.39 1762.84 1455 Q1766.01 1459.58 1766.01 1468.33 Q1766.01 1476.51 1762.12 1481.39 Q1758.26 1486.25 1751.71 1486.25 Q1749.95 1486.25 1748.14 1485.9 Q1746.34 1485.56 1744.39 1484.86 M1753.7 1470.21 Q1756.85 1470.21 1758.67 1468.06 Q1760.53 1465.9 1760.53 1462.15 Q1760.53 1458.43 1758.67 1456.27 Q1756.85 1454.1 1753.7 1454.1 Q1750.55 1454.1 1748.7 1456.27 Q1746.87 1458.43 1746.87 1462.15 Q1746.87 1465.9 1748.7 1468.06 Q1750.55 1470.21 1753.7 1470.21 Z" fill="#000000" fill-rule="nonzero" fill-opacity="1" /><path clip-path="url(#clip160)" d="M1773.23 1451.02 L1795.46 1451.02 L1795.46 1453.01 L1782.91 1485.58 L1778.03 1485.58 L1789.83 1454.96 L1773.23 1454.96 L1773.23 1451.02 Z" fill="#000000" fill-rule="nonzero" fill-opacity="1" /><path clip-path="url(#clip160)" d="M1804.62 1451.02 L1822.98 1451.02 L1822.98 1454.96 L1808.91 1454.96 L1808.91 1463.43 Q1809.92 1463.08 1810.94 1462.92 Q1811.96 1462.73 1812.98 1462.73 Q1818.77 1462.73 1822.15 1465.9 Q1825.53 1469.08 1825.53 1474.49 Q1825.53 1480.07 1822.05 1483.17 Q1818.58 1486.25 1812.26 1486.25 Q1810.09 1486.25 1807.82 1485.88 Q1805.57 1485.51 1803.16 1484.77 L1803.16 1480.07 Q1805.25 1481.2 1807.47 1481.76 Q1809.69 1482.32 1812.17 1482.32 Q1816.17 1482.32 1818.51 1480.21 Q1820.85 1478.1 1820.85 1474.49 Q1820.85 1470.88 1818.51 1468.77 Q1816.17 1466.67 1812.17 1466.67 Q1810.29 1466.67 1808.42 1467.08 Q1806.57 1467.5 1804.62 1468.38 L1804.62 1451.02 Z" fill="#000000" fill-rule="nonzero" fill-opacity="1" /><path clip-path="url(#clip160)" d="M1844.74 1454.1 Q1841.13 1454.1 1839.3 1457.66 Q1837.49 1461.2 1837.49 1468.33 Q1837.49 1475.44 1839.3 1479.01 Q1841.13 1482.55 1844.74 1482.55 Q1848.37 1482.55 1850.18 1479.01 Q1852.01 1475.44 1852.01 1468.33 Q1852.01 1461.2 1850.18 1457.66 Q1848.37 1454.1 1844.74 1454.1 M1844.74 1450.39 Q1850.55 1450.39 1853.6 1455 Q1856.68 1459.58 1856.68 1468.33 Q1856.68 1477.06 1853.6 1481.67 Q1850.55 1486.25 1844.74 1486.25 Q1838.93 1486.25 1835.85 1481.67 Q1832.79 1477.06 1832.79 1468.33 Q1832.79 1459.58 1835.85 1455 Q1838.93 1450.39 1844.74 1450.39 Z" fill="#000000" fill-rule="nonzero" fill-opacity="1" /><path clip-path="url(#clip160)" d="M2225.5 1481.64 L2241.82 1481.64 L2241.82 1485.58 L2219.88 1485.58 L2219.88 1481.64 Q2222.54 1478.89 2227.12 1474.26 Q2231.73 1469.61 2232.91 1468.27 Q2235.16 1465.74 2236.04 1464.01 Q2236.94 1462.25 2236.94 1460.56 Q2236.94 1457.8 2234.99 1456.07 Q2233.07 1454.33 2229.97 1454.33 Q2227.77 1454.33 2225.32 1455.09 Q2222.89 1455.86 2220.11 1457.41 L2220.11 1452.69 Q2222.93 1451.55 2225.39 1450.97 Q2227.84 1450.39 2229.88 1450.39 Q2235.25 1450.39 2238.44 1453.08 Q2241.64 1455.77 2241.64 1460.26 Q2241.64 1462.39 2240.83 1464.31 Q2240.04 1466.2 2237.93 1468.8 Q2237.36 1469.47 2234.25 1472.69 Q2231.15 1475.88 2225.5 1481.64 Z" fill="#000000" fill-rule="nonzero" fill-opacity="1" /><path clip-path="url(#clip160)" d="M2261.64 1454.1 Q2258.03 1454.1 2256.2 1457.66 Q2254.39 1461.2 2254.39 1468.33 Q2254.39 1475.44 2256.2 1479.01 Q2258.03 1482.55 2261.64 1482.55 Q2265.27 1482.55 2267.08 1479.01 Q2268.91 1475.44 2268.91 1468.33 Q2268.91 1461.2 2267.08 1457.66 Q2265.27 1454.1 2261.64 1454.1 M2261.64 1450.39 Q2267.45 1450.39 2270.5 1455 Q2273.58 1459.58 2273.58 1468.33 Q2273.58 1477.06 2270.5 1481.67 Q2267.45 1486.25 2261.64 1486.25 Q2255.83 1486.25 2252.75 1481.67 Q2249.69 1477.06 2249.69 1468.33 Q2249.69 1459.58 2252.75 1455 Q2255.83 1450.39 2261.64 1450.39 Z" fill="#000000" fill-rule="nonzero" fill-opacity="1" /><path clip-path="url(#clip160)" d="M2291.8 1454.1 Q2288.19 1454.1 2286.36 1457.66 Q2284.55 1461.2 2284.55 1468.33 Q2284.55 1475.44 2286.36 1479.01 Q2288.19 1482.55 2291.8 1482.55 Q2295.43 1482.55 2297.24 1479.01 Q2299.07 1475.44 2299.07 1468.33 Q2299.07 1461.2 2297.24 1457.66 Q2295.43 1454.1 2291.8 1454.1 M2291.8 1450.39 Q2297.61 1450.39 2300.67 1455 Q2303.74 1459.58 2303.74 1468.33 Q2303.74 1477.06 2300.67 1481.67 Q2297.61 1486.25 2291.8 1486.25 Q2285.99 1486.25 2282.91 1481.67 Q2279.86 1477.06 2279.86 1468.33 Q2279.86 1459.58 2282.91 1455 Q2285.99 1450.39 2291.8 1450.39 Z" fill="#000000" fill-rule="nonzero" fill-opacity="1" /><path clip-path="url(#clip160)" d="M2321.96 1454.1 Q2318.35 1454.1 2316.52 1457.66 Q2314.72 1461.2 2314.72 1468.33 Q2314.72 1475.44 2316.52 1479.01 Q2318.35 1482.55 2321.96 1482.55 Q2325.6 1482.55 2327.4 1479.01 Q2329.23 1475.44 2329.23 1468.33 Q2329.23 1461.2 2327.4 1457.66 Q2325.6 1454.1 2321.96 1454.1 M2321.96 1450.39 Q2327.77 1450.39 2330.83 1455 Q2333.91 1459.58 2333.91 1468.33 Q2333.91 1477.06 2330.83 1481.67 Q2327.77 1486.25 2321.96 1486.25 Q2316.15 1486.25 2313.07 1481.67 Q2310.02 1477.06 2310.02 1468.33 Q2310.02 1459.58 2313.07 1455 Q2316.15 1450.39 2321.96 1450.39 Z" fill="#000000" fill-rule="nonzero" fill-opacity="1" /><path clip-path="url(#clip160)" d="M2352.12 1454.1 Q2348.51 1454.1 2346.68 1457.66 Q2344.88 1461.2 2344.88 1468.33 Q2344.88 1475.44 2346.68 1479.01 Q2348.51 1482.55 2352.12 1482.55 Q2355.76 1482.55 2357.56 1479.01 Q2359.39 1475.44 2359.39 1468.33 Q2359.39 1461.2 2357.56 1457.66 Q2355.76 1454.1 2352.12 1454.1 M2352.12 1450.39 Q2357.93 1450.39 2360.99 1455 Q2364.07 1459.58 2364.07 1468.33 Q2364.07 1477.06 2360.99 1481.67 Q2357.93 1486.25 2352.12 1486.25 Q2346.31 1486.25 2343.24 1481.67 Q2340.18 1477.06 2340.18 1468.33 Q2340.18 1459.58 2343.24 1455 Q2346.31 1450.39 2352.12 1450.39 Z" fill="#000000" fill-rule="nonzero" fill-opacity="1" /><path clip-path="url(#clip160)" d="M1223.41 1520.52 L1229.84 1520.52 L1229.84 1564.73 Q1229.84 1573.33 1226.56 1577.21 Q1223.32 1581.09 1216.09 1581.09 L1213.64 1581.09 L1213.64 1575.68 L1215.65 1575.68 Q1219.91 1575.68 1221.66 1573.3 Q1223.41 1570.91 1223.41 1564.73 L1223.41 1520.52 Z" fill="#000000" fill-rule="nonzero" fill-opacity="1" /><path clip-path="url(#clip160)" d="M1256.2 1536.5 Q1251.49 1536.5 1248.75 1540.19 Q1246.01 1543.85 1246.01 1550.25 Q1246.01 1556.65 1248.72 1560.34 Q1251.45 1564 1256.2 1564 Q1260.88 1564 1263.61 1560.31 Q1266.35 1556.62 1266.35 1550.25 Q1266.35 1543.92 1263.61 1540.23 Q1260.88 1536.5 1256.2 1536.5 M1256.2 1531.54 Q1263.84 1531.54 1268.2 1536.5 Q1272.56 1541.47 1272.56 1550.25 Q1272.56 1559 1268.2 1564 Q1263.84 1568.97 1256.2 1568.97 Q1248.53 1568.97 1244.17 1564 Q1239.84 1559 1239.84 1550.25 Q1239.84 1541.47 1244.17 1536.5 Q1248.53 1531.54 1256.2 1531.54 Z" fill="#000000" fill-rule="nonzero" fill-opacity="1" /><path clip-path="url(#clip160)" d="M1281.66 1553.98 L1281.66 1532.4 L1287.52 1532.4 L1287.52 1553.75 Q1287.52 1558.81 1289.49 1561.36 Q1291.46 1563.87 1295.41 1563.87 Q1300.15 1563.87 1302.89 1560.85 Q1305.66 1557.83 1305.66 1552.61 L1305.66 1532.4 L1311.51 1532.4 L1311.51 1568.04 L1305.66 1568.04 L1305.66 1562.57 Q1303.53 1565.82 1300.69 1567.41 Q1297.89 1568.97 1294.17 1568.97 Q1288.03 1568.97 1284.84 1565.15 Q1281.66 1561.33 1281.66 1553.98 M1296.4 1531.54 L1296.4 1531.54 Z" fill="#000000" fill-rule="nonzero" fill-opacity="1" /><path clip-path="url(#clip160)" d="M1344.23 1537.87 Q1343.25 1537.3 1342.07 1537.04 Q1340.92 1536.76 1339.52 1536.76 Q1334.56 1536.76 1331.89 1540 Q1329.24 1543.22 1329.24 1549.27 L1329.24 1568.04 L1323.36 1568.04 L1323.36 1532.4 L1329.24 1532.4 L1329.24 1537.93 Q1331.09 1534.69 1334.05 1533.13 Q1337.01 1531.54 1341.24 1531.54 Q1341.85 1531.54 1342.58 1531.63 Q1343.31 1531.7 1344.2 1531.85 L1344.23 1537.87 Z" fill="#000000" fill-rule="nonzero" fill-opacity="1" /><polyline clip-path="url(#clip162)" style="stroke:#000000; stroke-linecap:round; stroke-linejoin:round; stroke-width:2; stroke-opacity:0.1; fill:none" points="205.121,1228.47 2352.76,1228.47 "/>
<polyline clip-path="url(#clip162)" style="stroke:#000000; stroke-linecap:round; stroke-linejoin:round; stroke-width:2; stroke-opacity:0.1; fill:none" points="205.121,882.325 2352.76,882.325 "/>
<polyline clip-path="url(#clip162)" style="stroke:#000000; stroke-linecap:round; stroke-linejoin:round; stroke-width:2; stroke-opacity:0.1; fill:none" points="205.121,536.177 2352.76,536.177 "/>
<polyline clip-path="url(#clip162)" style="stroke:#000000; stroke-linecap:round; stroke-linejoin:round; stroke-width:2; stroke-opacity:0.1; fill:none" points="205.121,190.03 2352.76,190.03 "/>
<polyline clip-path="url(#clip160)" style="stroke:#000000; stroke-linecap:round; stroke-linejoin:round; stroke-width:4; stroke-opacity:1; fill:none" points="205.121,1423.18 205.121,47.2441 "/>
<polyline clip-path="url(#clip160)" style="stroke:#000000; stroke-linecap:round; stroke-linejoin:round; stroke-width:4; stroke-opacity:1; fill:none" points="205.121,1228.47 224.019,1228.47 "/>
<polyline clip-path="url(#clip160)" style="stroke:#000000; stroke-linecap:round; stroke-linejoin:round; stroke-width:4; stroke-opacity:1; fill:none" points="205.121,882.325 224.019,882.325 "/>
<polyline clip-path="url(#clip160)" style="stroke:#000000; stroke-linecap:round; stroke-linejoin:round; stroke-width:4; stroke-opacity:1; fill:none" points="205.121,536.177 224.019,536.177 "/>
<polyline clip-path="url(#clip160)" style="stroke:#000000; stroke-linecap:round; stroke-linejoin:round; stroke-width:4; stroke-opacity:1; fill:none" points="205.121,190.03 224.019,190.03 "/>
<path clip-path="url(#clip160)" d="M121.043 1241.82 L137.362 1241.82 L137.362 1245.75 L115.418 1245.75 L115.418 1241.82 Q118.08 1239.06 122.663 1234.43 Q127.269 1229.78 128.45 1228.44 Q130.695 1225.91 131.575 1224.18 Q132.478 1222.42 132.478 1220.73 Q132.478 1217.97 130.533 1216.24 Q128.612 1214.5 125.51 1214.5 Q123.311 1214.5 120.857 1215.27 Q118.427 1216.03 115.649 1217.58 L115.649 1212.86 Q118.473 1211.72 120.927 1211.15 Q123.38 1210.57 125.418 1210.57 Q130.788 1210.57 133.982 1213.25 Q137.177 1215.94 137.177 1220.43 Q137.177 1222.56 136.367 1224.48 Q135.579 1226.38 133.473 1228.97 Q132.894 1229.64 129.792 1232.86 Q126.691 1236.05 121.043 1241.82 Z" fill="#000000" fill-rule="nonzero" fill-opacity="1" /><path clip-path="url(#clip160)" d="M157.177 1214.27 Q153.566 1214.27 151.737 1217.84 Q149.931 1221.38 149.931 1228.51 Q149.931 1235.61 151.737 1239.18 Q153.566 1242.72 157.177 1242.72 Q160.811 1242.72 162.616 1239.18 Q164.445 1235.61 164.445 1228.51 Q164.445 1221.38 162.616 1217.84 Q160.811 1214.27 157.177 1214.27 M157.177 1210.57 Q162.987 1210.57 166.042 1215.17 Q169.121 1219.76 169.121 1228.51 Q169.121 1237.23 166.042 1241.84 Q162.987 1246.42 157.177 1246.42 Q151.366 1246.42 148.288 1241.84 Q145.232 1237.23 145.232 1228.51 Q145.232 1219.76 148.288 1215.17 Q151.366 1210.57 157.177 1210.57 Z" fill="#000000" fill-rule="nonzero" fill-opacity="1" /><path clip-path="url(#clip160)" d="M129.862 869.119 L118.056 887.568 L129.862 887.568 L129.862 869.119 M128.635 865.045 L134.515 865.045 L134.515 887.568 L139.445 887.568 L139.445 891.456 L134.515 891.456 L134.515 899.605 L129.862 899.605 L129.862 891.456 L114.26 891.456 L114.26 886.943 L128.635 865.045 Z" fill="#000000" fill-rule="nonzero" fill-opacity="1" /><path clip-path="url(#clip160)" d="M157.177 868.123 Q153.566 868.123 151.737 871.688 Q149.931 875.23 149.931 882.359 Q149.931 889.466 151.737 893.031 Q153.566 896.572 157.177 896.572 Q160.811 896.572 162.616 893.031 Q164.445 889.466 164.445 882.359 Q164.445 875.23 162.616 871.688 Q160.811 868.123 157.177 868.123 M157.177 864.42 Q162.987 864.42 166.042 869.026 Q169.121 873.609 169.121 882.359 Q169.121 891.086 166.042 895.693 Q162.987 900.276 157.177 900.276 Q151.366 900.276 148.288 895.693 Q145.232 891.086 145.232 882.359 Q145.232 873.609 148.288 869.026 Q151.366 864.42 157.177 864.42 Z" fill="#000000" fill-rule="nonzero" fill-opacity="1" /><path clip-path="url(#clip160)" d="M127.593 534.314 Q124.445 534.314 122.593 536.467 Q120.765 538.619 120.765 542.369 Q120.765 546.096 122.593 548.272 Q124.445 550.425 127.593 550.425 Q130.742 550.425 132.57 548.272 Q134.422 546.096 134.422 542.369 Q134.422 538.619 132.57 536.467 Q130.742 534.314 127.593 534.314 M136.876 519.661 L136.876 523.92 Q135.117 523.087 133.311 522.647 Q131.529 522.207 129.769 522.207 Q125.14 522.207 122.686 525.332 Q120.255 528.457 119.908 534.777 Q121.274 532.763 123.334 531.698 Q125.394 530.61 127.871 530.61 Q133.08 530.61 136.089 533.781 Q139.121 536.93 139.121 542.369 Q139.121 547.693 135.973 550.911 Q132.825 554.129 127.593 554.129 Q121.598 554.129 118.427 549.545 Q115.256 544.939 115.256 536.212 Q115.256 528.018 119.144 523.156 Q123.033 518.272 129.584 518.272 Q131.343 518.272 133.126 518.619 Q134.931 518.967 136.876 519.661 Z" fill="#000000" fill-rule="nonzero" fill-opacity="1" /><path clip-path="url(#clip160)" d="M157.177 521.976 Q153.566 521.976 151.737 525.541 Q149.931 529.082 149.931 536.212 Q149.931 543.318 151.737 546.883 Q153.566 550.425 157.177 550.425 Q160.811 550.425 162.616 546.883 Q164.445 543.318 164.445 536.212 Q164.445 529.082 162.616 525.541 Q160.811 521.976 157.177 521.976 M157.177 518.272 Q162.987 518.272 166.042 522.879 Q169.121 527.462 169.121 536.212 Q169.121 544.939 166.042 549.545 Q162.987 554.129 157.177 554.129 Q151.366 554.129 148.288 549.545 Q145.232 544.939 145.232 536.212 Q145.232 527.462 148.288 522.879 Q151.366 518.272 157.177 518.272 Z" fill="#000000" fill-rule="nonzero" fill-opacity="1" /><path clip-path="url(#clip160)" d="M127.015 190.898 Q123.681 190.898 121.76 192.68 Q119.862 194.463 119.862 197.588 Q119.862 200.713 121.76 202.495 Q123.681 204.277 127.015 204.277 Q130.348 204.277 132.269 202.495 Q134.191 200.69 134.191 197.588 Q134.191 194.463 132.269 192.68 Q130.371 190.898 127.015 190.898 M122.339 188.907 Q119.33 188.166 117.64 186.106 Q115.973 184.046 115.973 181.083 Q115.973 176.94 118.913 174.532 Q121.876 172.125 127.015 172.125 Q132.177 172.125 135.117 174.532 Q138.056 176.94 138.056 181.083 Q138.056 184.046 136.367 186.106 Q134.7 188.166 131.714 188.907 Q135.093 189.694 136.968 191.986 Q138.867 194.278 138.867 197.588 Q138.867 202.611 135.788 205.296 Q132.732 207.981 127.015 207.981 Q121.297 207.981 118.218 205.296 Q115.163 202.611 115.163 197.588 Q115.163 194.278 117.061 191.986 Q118.959 189.694 122.339 188.907 M120.626 181.523 Q120.626 184.208 122.293 185.713 Q123.982 187.217 127.015 187.217 Q130.024 187.217 131.714 185.713 Q133.427 184.208 133.427 181.523 Q133.427 178.838 131.714 177.333 Q130.024 175.829 127.015 175.829 Q123.982 175.829 122.293 177.333 Q120.626 178.838 120.626 181.523 Z" fill="#000000" fill-rule="nonzero" fill-opacity="1" /><path clip-path="url(#clip160)" d="M157.177 175.829 Q153.566 175.829 151.737 179.393 Q149.931 182.935 149.931 190.065 Q149.931 197.171 151.737 200.736 Q153.566 204.277 157.177 204.277 Q160.811 204.277 162.616 200.736 Q164.445 197.171 164.445 190.065 Q164.445 182.935 162.616 179.393 Q160.811 175.829 157.177 175.829 M157.177 172.125 Q162.987 172.125 166.042 176.731 Q169.121 181.315 169.121 190.065 Q169.121 198.791 166.042 203.398 Q162.987 207.981 157.177 207.981 Q151.366 207.981 148.288 203.398 Q145.232 198.791 145.232 190.065 Q145.232 181.315 148.288 176.731 Q151.366 172.125 157.177 172.125 Z" fill="#000000" fill-rule="nonzero" fill-opacity="1" /><path clip-path="url(#clip160)" d="M16.4842 940.029 L16.4842 899.829 L21.895 899.829 L21.895 916.698 L64.0042 916.698 L64.0042 923.159 L21.895 923.159 L21.895 940.029 L16.4842 940.029 Z" fill="#000000" fill-rule="nonzero" fill-opacity="1" /><path clip-path="url(#clip160)" d="M44.7161 874.462 L47.5806 874.462 L47.5806 901.389 Q53.6281 901.007 56.8109 897.76 Q59.9619 894.482 59.9619 888.657 Q59.9619 885.284 59.1344 882.132 Q58.3069 878.95 56.6518 875.83 L62.1899 875.83 Q63.5267 878.981 64.227 882.292 Q64.9272 885.602 64.9272 889.007 Q64.9272 897.537 59.9619 902.535 Q54.9967 907.5 46.5303 907.5 Q37.7774 907.5 32.6531 902.789 Q27.4968 898.047 27.4968 890.026 Q27.4968 882.833 32.1438 878.663 Q36.7589 874.462 44.7161 874.462 M42.9973 880.318 Q38.1912 880.382 35.3266 883.024 Q32.4621 885.634 32.4621 889.962 Q32.4621 894.864 35.2312 897.824 Q38.0002 900.752 43.0292 901.198 L42.9973 880.318 Z" fill="#000000" fill-rule="nonzero" fill-opacity="1" /><path clip-path="url(#clip160)" d="M35.1993 837.095 Q31.2526 834.899 29.3747 831.843 Q27.4968 828.788 27.4968 824.65 Q27.4968 819.08 31.4117 816.056 Q35.2948 813.033 42.4881 813.033 L64.0042 813.033 L64.0042 818.921 L42.679 818.921 Q37.5546 818.921 35.072 820.735 Q32.5894 822.549 32.5894 826.273 Q32.5894 830.825 35.6131 833.467 Q38.6368 836.108 43.8567 836.108 L64.0042 836.108 L64.0042 841.997 L42.679 841.997 Q37.5228 841.997 35.072 843.811 Q32.5894 845.625 32.5894 849.413 Q32.5894 853.901 35.6449 856.542 Q38.6686 859.184 43.8567 859.184 L64.0042 859.184 L64.0042 865.072 L28.3562 865.072 L28.3562 859.184 L33.8944 859.184 Q30.616 857.179 29.0564 854.378 Q27.4968 851.577 27.4968 847.726 Q27.4968 843.843 29.4702 841.137 Q31.4436 838.4 35.1993 837.095 Z" fill="#000000" fill-rule="nonzero" fill-opacity="1" /><path clip-path="url(#clip160)" d="M58.657 795.686 L77.5631 795.686 L77.5631 801.574 L28.3562 801.574 L28.3562 795.686 L33.7671 795.686 Q30.5842 793.84 29.0564 791.039 Q27.4968 788.206 27.4968 784.292 Q27.4968 777.799 32.6531 773.756 Q37.8093 769.682 46.212 769.682 Q54.6147 769.682 59.771 773.756 Q64.9272 777.799 64.9272 784.292 Q64.9272 788.206 63.3994 791.039 Q61.8398 793.84 58.657 795.686 M46.212 775.762 Q39.7508 775.762 36.0905 778.435 Q32.3984 781.077 32.3984 785.724 Q32.3984 790.371 36.0905 793.044 Q39.7508 795.686 46.212 795.686 Q52.6732 795.686 56.3653 793.044 Q60.0256 790.371 60.0256 785.724 Q60.0256 781.077 56.3653 778.435 Q52.6732 775.762 46.212 775.762 Z" fill="#000000" fill-rule="nonzero" fill-opacity="1" /><path clip-path="url(#clip160)" d="M44.7161 729.483 L47.5806 729.483 L47.5806 756.41 Q53.6281 756.028 56.8109 752.781 Q59.9619 749.503 59.9619 743.678 Q59.9619 740.305 59.1344 737.154 Q58.3069 733.971 56.6518 730.851 L62.1899 730.851 Q63.5267 734.002 64.227 737.313 Q64.9272 740.623 64.9272 744.028 Q64.9272 752.559 59.9619 757.556 Q54.9967 762.521 46.5303 762.521 Q37.7774 762.521 32.6531 757.81 Q27.4968 753.068 27.4968 745.047 Q27.4968 737.854 32.1438 733.684 Q36.7589 729.483 44.7161 729.483 M42.9973 735.339 Q38.1912 735.403 35.3266 738.045 Q32.4621 740.655 32.4621 744.983 Q32.4621 749.885 35.2312 752.845 Q38.0002 755.773 43.0292 756.219 L42.9973 735.339 M11.869 740.973 L11.869 734.639 L23.8365 745.015 L23.8365 749.885 L11.869 740.973 Z" fill="#000000" fill-rule="nonzero" fill-opacity="1" /><path clip-path="url(#clip160)" d="M33.8307 699.214 Q33.2578 700.201 33.0032 701.378 Q32.7167 702.524 32.7167 703.925 Q32.7167 708.89 35.9632 711.563 Q39.1779 714.205 45.2253 714.205 L64.0042 714.205 L64.0042 720.093 L28.3562 720.093 L28.3562 714.205 L33.8944 714.205 Q30.6479 712.359 29.0883 709.399 Q27.4968 706.439 27.4968 702.206 Q27.4968 701.601 27.5923 700.869 Q27.656 700.137 27.8151 699.246 L33.8307 699.214 Z" fill="#000000" fill-rule="nonzero" fill-opacity="1" /><path clip-path="url(#clip160)" d="M46.0847 676.87 Q46.0847 683.968 47.7079 686.705 Q49.3312 689.443 53.2461 689.443 Q56.3653 689.443 58.2114 687.406 Q60.0256 685.337 60.0256 681.804 Q60.0256 676.934 56.5881 674.006 Q53.1188 671.046 47.3897 671.046 L46.0847 671.046 L46.0847 676.87 M43.6657 665.189 L64.0042 665.189 L64.0042 671.046 L58.5933 671.046 Q61.8398 673.051 63.3994 676.043 Q64.9272 679.035 64.9272 683.363 Q64.9272 688.838 61.8716 692.084 Q58.7843 695.299 53.6281 695.299 Q47.6125 695.299 44.5569 691.289 Q41.5014 687.246 41.5014 679.257 L41.5014 671.046 L40.9285 671.046 Q36.8862 671.046 34.6901 673.719 Q32.4621 676.361 32.4621 681.167 Q32.4621 684.223 33.1941 687.119 Q33.9262 690.015 35.3903 692.689 L29.9795 692.689 Q28.7381 689.474 28.1334 686.451 Q27.4968 683.427 27.4968 680.562 Q27.4968 672.828 31.5072 669.009 Q35.5176 665.189 43.6657 665.189 Z" fill="#000000" fill-rule="nonzero" fill-opacity="1" /><path clip-path="url(#clip160)" d="M18.2347 647.333 L28.3562 647.333 L28.3562 635.27 L32.9077 635.27 L32.9077 647.333 L52.2594 647.333 Q56.6199 647.333 57.8613 646.156 Q59.1026 644.946 59.1026 641.286 L59.1026 635.27 L64.0042 635.27 L64.0042 641.286 Q64.0042 648.065 61.4897 650.644 Q58.9434 653.222 52.2594 653.222 L32.9077 653.222 L32.9077 657.519 L28.3562 657.519 L28.3562 653.222 L18.2347 653.222 L18.2347 647.333 Z" fill="#000000" fill-rule="nonzero" fill-opacity="1" /><path clip-path="url(#clip160)" d="M49.9359 628.173 L28.3562 628.173 L28.3562 622.316 L49.7131 622.316 Q54.7739 622.316 57.3202 620.343 Q59.8346 618.369 59.8346 614.423 Q59.8346 609.68 56.8109 606.943 Q53.7872 604.174 48.5673 604.174 L28.3562 604.174 L28.3562 598.317 L64.0042 598.317 L64.0042 604.174 L58.5296 604.174 Q61.7762 606.306 63.3676 609.139 Q64.9272 611.94 64.9272 615.664 Q64.9272 621.807 61.1078 624.99 Q57.2883 628.173 49.9359 628.173 M27.4968 613.436 L27.4968 613.436 Z" fill="#000000" fill-rule="nonzero" fill-opacity="1" /><path clip-path="url(#clip160)" d="M33.8307 565.598 Q33.2578 566.584 33.0032 567.762 Q32.7167 568.908 32.7167 570.308 Q32.7167 575.274 35.9632 577.947 Q39.1779 580.589 45.2253 580.589 L64.0042 580.589 L64.0042 586.477 L28.3562 586.477 L28.3562 580.589 L33.8944 580.589 Q30.6479 578.743 29.0883 575.783 Q27.4968 572.823 27.4968 568.59 Q27.4968 567.985 27.5923 567.253 Q27.656 566.521 27.8151 565.63 L33.8307 565.598 Z" fill="#000000" fill-rule="nonzero" fill-opacity="1" /><path clip-path="url(#clip160)" d="M44.7161 530.395 L47.5806 530.395 L47.5806 557.322 Q53.6281 556.94 56.8109 553.694 Q59.9619 550.416 59.9619 544.591 Q59.9619 541.217 59.1344 538.066 Q58.3069 534.883 56.6518 531.764 L62.1899 531.764 Q63.5267 534.915 64.227 538.225 Q64.9272 541.535 64.9272 544.941 Q64.9272 553.471 59.9619 558.468 Q54.9967 563.433 46.5303 563.433 Q37.7774 563.433 32.6531 558.723 Q27.4968 553.98 27.4968 545.96 Q27.4968 538.766 32.1438 534.597 Q36.7589 530.395 44.7161 530.395 M42.9973 536.252 Q38.1912 536.315 35.3266 538.957 Q32.4621 541.567 32.4621 545.896 Q32.4621 550.797 35.2312 553.758 Q38.0002 556.686 43.0292 557.131 L42.9973 536.252 Z" fill="#000000" fill-rule="nonzero" fill-opacity="1" /><polyline clip-path="url(#clip162)" style="stroke:#d3d3d3; stroke-linecap:round; stroke-linejoin:round; stroke-width:4; stroke-opacity:1; fill:none" points="265.903,1067.51 267.929,903.093 269.955,672.905 271.981,709.251 274.007,724.828 276.033,693.674 278.06,1133.28 280.086,1135.01 282.112,970.592 284.138,1022.51 286.164,1164.43 288.19,1115.97 290.216,1003.48 292.242,1012.13 294.268,1045.01 296.294,1264.82 298.32,1084.82 300.346,937.708 302.372,1098.67 304.398,1135.01 306.425,1079.63 308.451,1109.05 310.477,1005.21 312.503,1058.86 314.529,1167.9 316.555,1309.82 318.581,1325.39 320.607,1259.63 322.633,1230.2 324.659,1181.74 326.685,1119.44 328.711,1164.43 330.737,1050.21 332.763,1067.51 334.789,1086.55 336.816,1261.36 338.842,1250.97 340.868,1138.47 342.894,1046.74 344.92,1212.9 346.946,920.401 348.972,840.787 350.998,982.707 353.024,961.938 355.05,1079.63 357.076,1039.82 359.102,1003.48 361.128,930.785 363.154,897.901 365.181,937.708 367.207,674.636 369.233,851.171 371.259,922.132 373.285,967.131 375.311,1185.2 377.337,1271.74 379.363,1216.36 381.389,1114.24 383.415,882.325 385.441,736.943 387.467,842.518 389.493,749.058 391.519,558.677 393.546,541.369 395.572,955.016 397.598,1055.4 399.624,1025.98 401.65,955.016 403.676,749.058 405.702,958.477 407.728,712.712 409.754,570.792 411.78,721.366 413.806,764.634 415.832,828.672 417.858,534.447 419.884,550.023 421.911,743.866 423.937,740.404 425.963,738.673 427.989,814.826 430.015,724.828 432.041,743.866 434.067,833.864 436.093,873.671 438.119,944.631 440.145,960.208 442.171,967.131 444.197,910.016 446.223,861.556 448.249,877.132 450.276,813.095 452.302,775.019 454.328,794.057 456.354,740.404 458.38,852.902 460.406,821.749 462.432,799.249 464.458,755.981 466.484,665.982 468.51,619.253 470.536,475.601 472.562,446.179 474.588,331.95 476.614,556.946 478.641,698.866 480.667,671.175 482.693,524.062 484.719,546.562 486.745,477.332 488.771,510.216 490.797,541.369 492.823,446.179 494.849,598.484 496.875,570.792 498.901,614.06 500.927,724.828 502.953,633.098 504.979,451.371 507.006,378.68 509.032,389.065 511.058,411.564 513.084,546.562 515.11,581.176 517.136,444.448 519.162,290.413 521.188,506.755 523.214,665.982 525.24,655.598 527.266,510.216 529.292,527.524 531.318,534.447 533.344,499.832 535.37,451.371 537.397,337.143 539.423,259.259 541.449,281.759 543.475,321.566 545.501,368.296 547.527,401.18 549.553,276.567 551.579,240.221 553.605,274.836 555.631,373.488 557.657,432.333 559.683,318.104 561.709,425.41 563.735,470.409 565.762,307.72 567.788,226.375 569.814,425.41 571.84,344.065 573.866,325.027 575.892,444.448 577.918,563.869 579.944,492.909 581.97,394.257 583.996,283.49 586.022,235.029 588.048,305.989 590.074,311.181 592.1,349.258 594.127,354.45 596.153,456.563 598.179,397.718 600.205,357.911 602.231,214.26 604.257,151.954 606.283,193.491 608.309,328.489 610.335,357.911 612.361,404.641 614.387,465.217 616.413,415.026 618.439,406.372 620.465,335.412 622.492,267.913 624.518,286.951 626.544,212.529 628.57,145.031 630.596,155.415 632.622,210.799 634.648,283.49 636.674,286.951 638.7,300.797 640.726,202.145 642.752,241.952 644.778,262.721 646.804,278.297 648.83,250.606 650.857,257.529 652.883,354.45 654.909,314.643 656.935,440.987 658.961,390.795 660.987,318.104 663.013,276.567 665.039,266.182 667.065,241.952 669.091,309.451 671.117,300.797 673.143,231.568 675.169,221.183 677.195,170.992 679.222,184.838 681.248,193.491 683.274,285.22 685.3,273.105 687.326,176.184 689.352,115.608 691.378,205.607 693.404,316.374 695.43,437.525 697.456,280.028 699.482,221.183 701.508,305.989 703.534,264.452 705.56,214.26 707.587,215.991 709.613,395.988 711.639,466.948 713.665,484.255 715.691,527.524 717.717,529.254 719.743,439.256 721.769,331.95 723.795,226.375 725.821,222.914 727.847,311.181 729.873,331.95 731.899,347.527 733.925,330.22 735.951,359.642 737.978,425.41 740.004,392.526 742.03,382.142 744.056,389.065 746.082,347.527 748.108,267.913 750.134,252.336 752.16,280.028 754.186,222.914 756.212,321.566 758.238,383.872 760.264,473.871 762.29,418.487 764.316,447.91 766.343,614.06 768.369,612.33 770.395,588.099 772.421,520.601 774.447,477.332 776.473,404.641 778.499,378.68 780.525,333.681 782.551,420.218 784.577,404.641 786.603,286.951 788.629,297.336 790.655,325.027 792.681,447.91 794.708,505.024 796.734,511.947 798.76,508.485 800.786,356.181 802.812,307.72 804.838,349.258 806.864,380.411 808.89,302.528 810.916,286.951 812.942,305.989 814.968,418.487 816.994,496.37 819.02,600.214 821.046,688.482 823.073,641.752 825.099,615.791 827.125,537.908 829.151,492.909 831.177,430.602 833.203,342.335 835.229,434.064 837.255,508.485 839.281,485.986 841.307,363.104 843.333,409.833 845.359,640.021 847.385,607.137 849.411,432.333 851.438,640.021 853.464,816.557 855.49,747.327 857.516,705.789 859.542,581.176 861.568,761.173 863.594,733.481 865.62,736.943 867.646,771.557 869.672,707.52 871.698,851.171 873.724,923.862 875.75,930.785 877.776,885.786 879.803,920.401 881.829,840.787 883.855,695.405 885.881,768.096 887.907,633.098 889.933,830.402 891.959,897.901 893.985,871.94 896.011,844.248 898.037,814.826 900.063,681.559 902.089,550.023 904.115,873.671 906.141,1058.86 908.168,975.784 910.194,794.057 912.22,596.753 914.246,892.709 916.272,903.093 918.298,901.363 920.324,996.553 922.35,1081.36 924.376,823.48 926.402,989.63 928.428,1074.44 930.454,1121.17 932.48,1140.2 934.506,934.247 936.532,965.4 938.559,884.055 940.585,901.363 942.611,716.174 944.637,987.9 946.663,946.362 948.689,1013.86 950.715,887.517 952.741,993.092 954.767,1032.9 956.793,982.707 958.819,930.785 960.845,967.131 962.871,913.478 964.897,726.558 966.924,780.211 968.95,899.632 970.976,1034.63 973.002,934.247 975.028,918.67 977.054,736.943 979.08,951.554 981.106,890.978 983.132,922.132 985.158,993.092 987.184,1235.39 989.21,1188.67 991.236,1022.51 993.262,899.632 995.289,752.519 997.315,636.56 999.341,539.639 1001.37,795.788 1003.39,726.558 1005.42,800.98 1007.44,927.324 1009.47,913.478 1011.5,993.092 1013.52,1005.21 1015.55,1043.28 1017.58,877.132 1019.6,977.515 1021.63,1088.28 1023.65,1228.47 1025.68,1140.2 1027.71,960.208 1029.73,1122.9 1031.76,1117.7 1033.78,1095.21 1035.81,1043.28 1037.84,1027.71 1039.86,1012.13 1041.89,842.518 1043.91,1020.78 1045.94,946.362 1047.97,830.402 1049.99,977.515 1052.02,910.016 1054.04,726.558 1056.07,560.408 1058.1,646.944 1060.12,887.517 1062.15,939.439 1064.17,892.709 1066.2,1297.7 1068.23,1225.01 1070.25,783.673 1072.28,970.592 1074.31,922.132 1076.33,1003.48 1078.36,1005.21 1080.38,567.33 1082.41,908.286 1084.44,1086.55 1086.46,1133.28 1088.49,1077.9 1090.51,1012.13 1092.54,1058.86 1094.57,955.016 1096.59,897.901 1098.62,858.094 1100.64,1129.82 1102.67,1154.05 1104.7,941.17 1106.72,963.669 1108.75,849.441 1110.77,570.792 1112.8,620.983 1114.83,873.671 1116.85,925.593 1118.88,683.29 1120.9,935.977 1122.93,953.285 1124.96,861.556 1126.98,839.056 1129.01,906.555 1131.04,799.249 1133.06,755.981 1135.09,826.941 1137.11,890.978 1139.14,889.248 1141.17,816.557 1143.19,683.29 1145.22,884.055 1147.24,840.787 1149.27,925.593 1151.3,935.977 1153.32,925.593 1155.35,707.52 1157.37,807.903 1159.4,740.404 1161.43,884.055 1163.45,951.554 1165.48,814.826 1167.5,520.601 1169.53,690.213 1171.56,887.517 1173.58,762.904 1175.61,641.752 1177.63,768.096 1179.66,823.48 1181.69,787.134 1183.71,781.942 1185.74,593.292 1187.77,506.755 1189.79,460.025 1191.82,619.253 1193.84,766.365 1195.87,766.365 1197.9,762.904 1199.92,653.867 1201.95,525.793 1203.97,456.563 1206,534.447 1208.03,636.56 1210.05,615.791 1212.08,527.524 1214.1,423.679 1216.13,524.062 1218.16,570.792 1220.18,698.866 1222.21,650.406 1224.23,638.291 1226.26,742.135 1228.29,712.712 1230.31,570.792 1232.34,659.06 1234.36,596.753 1236.39,511.947 1238.42,513.678 1240.44,461.756 1242.47,363.104 1244.5,591.561 1246.52,659.06 1248.55,648.675 1250.57,754.25 1252.6,626.176 1254.63,577.715 1256.65,485.986 1258.68,562.138 1260.7,579.446 1262.73,499.832 1264.76,641.752 1266.78,731.75 1268.81,620.983 1270.83,622.714 1272.86,577.715 1274.89,517.139 1276.91,489.447 1278.94,435.795 1280.96,319.835 1282.99,498.101 1285.02,541.369 1287.04,420.218 1289.07,371.757 1291.09,316.374 1293.12,397.718 1295.15,354.45 1297.17,395.988 1299.2,418.487 1301.23,406.372 1303.25,257.529 1305.28,112.147 1307.3,86.1857 1309.33,87.9164 1311.36,222.914 1313.38,250.606 1315.41,316.374 1317.43,259.259 1319.46,269.644 1321.49,286.951 1323.51,361.373 1325.54,423.679 1327.56,463.486 1329.59,389.065 1331.62,299.066 1333.64,276.567 1335.67,276.567 1337.69,316.374 1339.72,292.143 1341.75,250.606 1343.77,183.107 1345.8,250.606 1347.82,172.723 1349.85,240.221 1351.88,257.529 1353.9,250.606 1355.93,236.76 1357.96,271.375 1359.98,323.297 1362.01,342.335 1364.03,302.528 1366.06,212.529 1368.09,235.029 1370.11,259.259 1372.14,297.336 1374.16,264.452 1376.19,262.721 1378.22,312.912 1380.24,271.375 1382.27,254.067 1384.29,210.799 1386.32,186.568 1388.35,146.761 1390.37,129.454 1392.4,151.954 1394.42,170.992 1396.45,214.26 1398.48,299.066 1400.5,281.759 1402.53,269.644 1404.55,314.643 1406.58,342.335 1408.61,236.76 1410.63,224.645 1412.66,200.414 1414.69,212.529 1416.71,267.913 1418.74,311.181 1420.76,269.644 1422.79,269.644 1424.82,241.952 1426.84,254.067 1428.87,328.489 1430.89,347.527 1432.92,430.602 1434.95,453.102 1436.97,394.257 1439,364.834 1441.02,292.143 1443.05,383.872 1445.08,347.527 1447.1,316.374 1449.13,278.297 1451.15,250.606 1453.18,428.872 1455.21,390.795 1457.23,375.219 1459.26,380.411 1461.28,337.143 1463.31,286.951 1465.34,383.872 1467.36,447.91 1469.39,408.103 1471.42,333.681 1473.44,278.297 1475.47,281.759 1477.49,338.873 1479.52,295.605 1481.55,304.259 1483.57,245.413 1485.6,238.491 1487.62,259.259 1489.65,307.72 1491.68,342.335 1493.7,371.757 1495.73,409.833 1497.75,487.717 1499.78,444.448 1501.81,292.143 1503.83,214.26 1505.86,188.299 1507.88,432.333 1509.91,479.063 1511.94,456.563 1513.96,572.523 1515.99,575.984 1518.01,522.331 1520.04,477.332 1522.07,544.831 1524.09,562.138 1526.12,577.715 1528.15,484.255 1530.17,383.872 1532.2,383.872 1534.22,411.564 1536.25,492.909 1538.28,470.409 1540.3,562.138 1542.33,619.253 1544.35,619.253 1546.38,575.984 1548.41,607.137 1550.43,705.789 1552.46,678.098 1554.48,444.448 1556.51,477.332 1558.54,582.907 1560.56,575.984 1562.59,487.717 1564.61,492.909 1566.64,444.448 1568.67,406.372 1570.69,614.06 1572.72,726.558 1574.74,773.288 1576.77,799.249 1578.8,717.905 1580.82,754.25 1582.85,800.98 1584.88,847.71 1586.9,560.408 1588.93,624.445 1590.95,719.635 1592.98,880.594 1595.01,804.441 1597.03,875.402 1599.06,811.364 1601.08,638.291 1603.11,733.481 1605.14,736.943 1607.16,672.905 1609.19,593.292 1611.21,544.831 1613.24,539.639 1615.27,569.061 1617.29,707.52 1619.32,773.288 1621.34,880.594 1623.37,849.441 1625.4,780.211 1627.42,633.098 1629.45,551.754 1631.47,702.328 1633.5,871.94 1635.53,942.9 1637.55,1053.67 1639.58,1017.32 1641.61,1000.01 1643.63,1084.82 1645.66,1084.82 1647.68,1013.86 1649.71,811.364 1651.74,927.324 1653.76,922.132 1655.79,923.862 1657.81,946.362 1659.84,935.977 1661.87,679.828 1663.89,889.248 1665.92,1000.01 1667.94,865.017 1669.97,911.747 1672,1076.17 1674.02,1015.59 1676.05,1190.4 1678.07,935.977 1680.1,530.985 1682.13,818.287 1684.15,818.287 1686.18,1025.98 1688.2,1027.71 1690.23,653.867 1692.26,773.288 1694.28,929.054 1696.31,956.746 1698.34,977.515 1700.36,1057.13 1702.39,1065.78 1704.41,1174.82 1706.44,1185.2 1708.47,937.708 1710.49,742.135 1712.52,998.284 1714.54,845.979 1716.57,567.33 1718.6,797.518 1720.62,885.786 1722.65,1010.4 1724.67,1197.32 1726.7,1122.9 1728.73,1008.67 1730.75,1034.63 1732.78,859.825 1734.8,953.285 1736.83,892.709 1738.86,923.862 1740.88,1055.4 1742.91,1069.24 1744.93,1001.75 1746.96,1109.05 1748.99,1107.32 1751.01,1114.24 1753.04,1204.24 1755.07,1330.59 1757.09,1384.24 1759.12,1098.67 1761.14,1005.21 1763.17,1180.01 1765.2,1216.36 1767.22,1128.09 1769.25,993.092 1771.27,913.478 1773.3,1205.97 1775.33,1174.82 1777.35,1100.4 1779.38,930.785 1781.4,1039.82 1783.43,1154.05 1785.46,1167.9 1787.48,958.477 1789.51,835.595 1791.53,975.784 1793.56,1057.13 1795.59,1261.36 1797.61,1219.82 1799.64,1046.74 1801.66,671.175 1803.69,916.939 1805.72,878.863 1807.74,650.406 1809.77,631.368 1811.8,833.864 1813.82,975.784 1815.85,982.707 1817.87,1032.9 1819.9,1043.28 1821.93,1039.82 1823.95,814.826 1825.98,1090.01 1828,1031.17 1830.03,974.054 1832.06,1038.09 1834.08,1096.94 1836.11,1043.28 1838.13,927.324 1840.16,709.251 1842.19,800.98 1844.21,968.861 1846.24,1022.51 1848.26,1270.01 1850.29,1195.59 1852.32,1096.94 1854.34,833.864 1856.37,615.791 1858.39,513.678 1860.42,679.828 1862.45,835.595 1864.47,717.905 1866.5,828.672 1868.53,972.323 1870.55,935.977 1872.58,852.902 1874.6,811.364 1876.63,807.903 1878.66,794.057 1880.68,768.096 1882.71,908.286 1884.73,968.861 1886.76,873.671 1888.79,916.939 1890.81,975.784 1892.84,906.555 1894.86,859.825 1896.89,705.789 1898.92,733.481 1900.94,695.405 1902.97,717.905 1904.99,781.942 1907.02,814.826 1909.05,674.636 1911.07,645.214 1913.1,619.253 1915.12,655.598 1917.15,693.674 1919.18,806.172 1921.2,863.286 1923.23,750.789 1925.25,695.405 1927.28,750.789 1929.31,842.518 1931.33,842.518 1933.36,804.441 1935.39,823.48 1937.41,785.403 1939.44,724.828 1941.46,511.947 1943.49,572.523 1945.52,768.096 1947.54,660.79 1949.57,695.405 1951.59,735.212 1953.62,627.906 1955.65,446.179 1957.67,240.221 1959.7,222.914 1961.72,247.144 1963.75,529.254 1965.78,695.405 1967.8,556.946 1969.83,506.755 1971.85,629.637 1973.88,691.944 1975.91,730.02 1977.93,669.444 1979.96,550.023 1981.98,468.679 1984.01,331.95 1986.04,415.026 1988.06,581.176 1990.09,567.33 1992.12,608.868 1994.14,508.485 1996.17,475.601 1998.19,518.87 2000.22,503.293 2002.25,652.137 2004.27,646.944 2006.3,525.793 2008.32,421.949 2010.35,390.795 2012.38,370.027 2014.4,363.104 2016.43,331.95 2018.45,575.984 2020.48,574.253 2022.51,582.907 2024.53,569.061 2026.56,409.833 2028.58,460.025 2030.61,511.947 2032.64,397.718 2034.66,454.833 2036.69,586.369 2038.71,629.637 2040.74,505.024 2042.77,356.181 2044.79,390.795 2046.82,565.6 2048.85,477.332 2050.87,513.678 2052.9,418.487 2054.92,349.258 2056.95,463.486 2058.98,484.255 2061,522.331 2063.03,546.562 2065.05,501.563 2067.08,428.872 2069.11,425.41 2071.13,411.564 2073.16,383.872 2075.18,352.719 2077.21,390.795 2079.24,468.679 2081.26,274.836 2083.29,460.025 2085.31,328.489 2087.34,305.989 2089.37,305.989 2091.39,352.719 2093.42,380.411 2095.44,326.758 2097.47,323.297 2099.5,342.335 2101.52,342.335 2103.55,311.181 2105.58,368.296 2107.6,425.41 2109.63,446.179 2111.65,385.603 2113.68,271.375 2115.71,366.565 2117.73,383.872 2119.76,349.258 2121.78,254.067 2123.81,238.491 2125.84,266.182 2127.86,338.873 2129.89,338.873 2131.91,375.219 2133.94,359.642 2135.97,466.948 2137.99,359.642 2140.02,302.528 2142.04,217.722 2144.07,238.491 2146.1,238.491 2148.12,203.876 2150.15,233.298 2152.17,250.606 2154.2,295.605 2156.23,383.872 2158.25,307.72 2160.28,276.567 2162.31,278.297 2164.33,349.258 2166.36,357.911 2168.38,373.488 2170.41,325.027 2172.44,186.568 2174.46,165.8 2176.49,262.721 2178.51,338.873 2180.54,350.988 2182.57,271.375 2184.59,238.491 2186.62,202.145 2188.64,255.798 2190.67,214.26 2192.7,179.645 2194.72,170.992 2196.75,274.836 2198.77,248.875 2200.8,269.644 2202.83,290.413 2204.85,257.529 2206.88,312.912 2208.9,415.026 2210.93,345.796 2212.96,354.45 2214.98,416.756 2217.01,485.986 2219.04,479.063 2221.06,463.486 2223.09,364.834 2225.11,304.259 2227.14,416.756 2229.17,420.218 2231.19,447.91 2233.22,418.487 2235.24,473.871 2237.27,506.755 2239.3,477.332 2241.32,370.027 2243.35,371.757 2245.37,402.911 2247.4,468.679 2249.43,524.062 2251.45,503.293 2253.48,498.101 2255.5,574.253 2257.53,520.601 2259.56,468.679 2261.58,350.988 2263.61,300.797 2265.63,434.064 2267.66,582.907 2269.69,475.601 2271.71,437.525 2273.74,551.754 2275.77,586.369 2277.79,683.29 2279.82,685.021 2281.84,420.218 2283.87,541.369 2285.9,560.408 2287.92,617.522 2289.95,470.409 2291.97,574.253 "/>
<polyline clip-path="url(#clip162)" style="stroke:#ff0000; stroke-linecap:round; stroke-linejoin:round; stroke-width:4; stroke-opacity:1; fill:none" points="265.903,1020.54 267.929,1022.31 269.955,1023.97 271.981,1025.52 274.007,1026.96 276.033,1028.29 278.06,1029.51 280.086,1030.61 282.112,1031.6 284.138,1032.47 286.164,1033.24 288.19,1033.89 290.216,1034.42 292.242,1034.85 294.268,1035.15 296.294,1035.35 298.32,1035.43 300.346,1035.39 302.372,1035.25 304.398,1034.98 306.425,1034.61 308.451,1034.12 310.477,1033.51 312.503,1032.79 314.529,1031.96 316.555,1031.02 318.581,1029.96 320.607,1028.79 322.633,1027.51 324.659,1026.12 326.685,1024.61 328.711,1022.99 330.737,1021.27 332.763,1019.43 334.789,1017.48 336.816,1015.43 338.842,1013.27 340.868,1011 342.894,1008.62 344.92,1006.13 346.946,1003.54 348.972,1000.85 350.998,998.052 353.024,995.151 355.05,992.148 357.076,989.043 359.102,985.838 361.128,982.533 363.154,979.13 365.181,975.629 367.207,972.032 369.233,968.339 371.259,964.552 373.285,960.672 375.311,956.7 377.337,952.637 379.363,948.484 381.389,944.243 383.415,939.915 385.441,935.5 387.467,931.002 389.493,926.42 391.519,921.756 393.546,917.011 395.572,912.188 397.598,907.286 399.624,902.309 401.65,897.256 403.676,892.131 405.702,886.934 407.728,881.666 409.754,876.33 411.78,870.927 413.806,865.458 415.832,859.925 417.858,854.331 419.884,848.675 421.911,842.961 423.937,837.189 425.963,831.362 427.989,825.482 430.015,819.549 432.041,813.566 434.067,807.534 436.093,801.456 438.119,795.333 440.145,789.167 442.171,782.959 444.197,776.712 446.223,770.427 448.249,764.107 450.276,757.753 452.302,751.367 454.328,744.95 456.354,738.506 458.38,732.035 460.406,725.54 462.432,719.022 464.458,712.484 466.484,705.928 468.51,699.354 470.536,692.766 472.562,686.165 474.588,679.554 476.614,672.933 478.641,666.306 480.667,659.674 482.693,653.038 484.719,646.402 486.745,639.767 488.771,633.135 490.797,626.507 492.823,619.886 494.849,613.275 496.875,606.674 498.901,600.085 500.927,593.512 502.953,586.955 504.979,580.416 507.006,573.898 509.032,567.403 511.058,560.932 513.084,554.487 515.11,548.07 517.136,541.683 519.162,535.329 521.188,529.008 523.214,522.722 525.24,516.475 527.266,510.267 529.292,504.1 531.318,497.976 533.344,491.897 535.37,485.864 537.397,479.881 539.423,473.947 541.449,468.065 543.475,462.237 545.501,456.465 547.527,450.75 549.553,445.093 551.579,439.498 553.605,433.964 555.631,428.494 557.657,423.09 559.683,417.752 561.709,412.484 563.735,407.285 565.762,402.158 567.788,397.105 569.814,392.126 571.84,387.224 573.866,382.399 575.892,377.653 577.918,372.987 579.944,368.404 581.97,363.904 583.996,359.488 586.022,355.158 588.048,350.915 590.074,346.761 592.1,342.696 594.127,338.723 596.153,334.841 598.179,331.052 600.205,327.358 602.231,323.759 604.257,320.256 606.283,316.851 608.309,313.545 610.335,310.337 612.361,307.231 614.387,304.225 616.413,301.322 618.439,298.522 620.465,295.826 622.492,293.234 624.518,290.748 626.544,288.368 628.57,286.096 630.596,283.93 632.622,281.873 634.648,279.925 636.674,278.086 638.7,276.357 640.726,274.738 642.752,273.231 644.778,271.835 646.804,270.55 648.83,269.378 650.857,268.319 652.883,267.372 654.909,266.538 656.935,265.818 658.961,265.211 660.987,264.718 663.013,264.339 665.039,264.074 667.065,263.923 669.091,263.886 671.117,263.963 673.143,264.155 675.169,264.46 677.195,264.88 679.222,265.413 681.248,266.06 683.274,266.82 685.3,267.694 687.326,268.681 689.352,269.781 691.378,270.992 693.404,272.316 695.43,273.752 697.456,275.299 699.482,276.957 701.508,278.724 703.534,280.602 705.56,282.589 707.587,284.684 709.613,286.888 711.639,289.198 713.665,291.616 715.691,294.139 717.717,296.768 719.743,299.501 721.769,302.337 723.795,305.276 725.821,308.318 727.847,311.46 729.873,314.702 731.899,318.043 733.925,321.483 735.951,325.019 737.978,328.652 740.004,332.379 742.03,336.201 744.056,340.115 746.082,344.121 748.108,348.217 750.134,352.402 752.16,356.675 754.186,361.035 756.212,365.481 758.238,370.01 760.264,374.622 762.29,379.315 764.316,384.089 766.343,388.941 768.369,393.87 770.395,398.875 772.421,403.954 774.447,409.105 776.473,414.328 778.499,419.62 780.525,424.981 782.551,430.408 784.577,435.899 786.603,441.454 788.629,447.071 790.655,452.747 792.681,458.482 794.708,464.273 796.734,470.119 798.76,476.018 800.786,481.969 802.812,487.969 804.838,494.017 806.864,500.111 808.89,506.249 810.916,512.429 812.942,518.65 814.968,524.91 816.994,531.207 819.02,537.538 821.046,543.903 823.073,550.299 825.099,556.725 827.125,563.178 829.151,569.656 831.177,576.158 833.203,582.682 835.229,589.225 837.255,595.787 839.281,602.364 841.307,608.955 843.333,615.558 845.359,622.172 847.385,628.793 849.411,635.42 851.438,642.052 853.464,648.686 855.49,655.32 857.516,661.952 859.542,668.581 861.568,675.204 863.594,681.819 865.62,688.425 867.646,695.019 869.672,701.6 871.698,708.165 873.724,714.713 875.75,721.242 877.776,727.75 879.803,734.234 881.829,740.693 883.855,747.125 885.881,753.528 887.907,759.901 889.933,766.241 891.959,772.546 893.985,778.815 896.011,785.045 898.037,791.236 900.063,797.384 902.089,803.489 904.115,809.548 906.141,815.559 908.168,821.522 910.194,827.433 912.22,833.292 914.246,839.097 916.272,844.845 918.298,850.536 920.324,856.167 922.35,861.736 924.376,867.243 926.402,872.686 928.428,878.062 930.454,883.371 932.48,888.61 934.506,893.779 936.532,898.876 938.559,903.898 940.585,908.845 942.611,913.716 944.637,918.508 946.663,923.221 948.689,927.852 950.715,932.402 952.741,936.867 954.767,941.247 956.793,945.541 958.819,949.748 960.845,953.865 962.871,957.892 964.897,961.828 966.924,965.672 968.95,969.422 970.976,973.077 973.002,976.636 975.028,980.099 977.054,983.464 979.08,986.729 981.106,989.895 983.132,992.961 985.158,995.924 987.184,998.785 989.21,1001.54 991.236,1004.2 993.262,1006.74 995.289,1009.19 997.315,1011.52 999.341,1013.75 1001.37,1015.87 1003.39,1017.88 1005.42,1019.79 1007.44,1021.58 1009.47,1023.27 1011.5,1024.84 1013.52,1026.3 1015.55,1027.65 1017.58,1028.89 1019.6,1030.01 1021.63,1031.03 1023.65,1031.93 1025.68,1032.71 1027.71,1033.39 1029.73,1033.95 1031.76,1034.39 1033.78,1034.73 1035.81,1034.94 1037.84,1035.05 1039.86,1035.04 1041.89,1034.91 1043.91,1034.67 1045.94,1034.32 1047.97,1033.85 1049.99,1033.27 1052.02,1032.58 1054.04,1031.77 1056.07,1030.85 1058.1,1029.82 1060.12,1028.67 1062.15,1027.41 1064.17,1026.04 1066.2,1024.56 1068.23,1022.97 1070.25,1021.26 1072.28,1019.45 1074.31,1017.53 1076.33,1015.49 1078.36,1013.35 1080.38,1011.1 1082.41,1008.75 1084.44,1006.29 1086.46,1003.72 1088.49,1001.05 1090.51,998.268 1092.54,995.388 1094.57,992.406 1096.59,989.321 1098.62,986.136 1100.64,982.852 1102.67,979.468 1104.7,975.987 1106.72,972.409 1108.75,968.736 1110.77,964.967 1112.8,961.106 1114.83,957.152 1116.85,953.107 1118.88,948.972 1120.9,944.748 1122.93,940.437 1124.96,936.039 1126.98,931.557 1129.01,926.99 1131.04,922.342 1133.06,917.613 1135.09,912.804 1137.11,907.918 1139.14,902.954 1141.17,897.916 1143.19,892.804 1145.22,887.62 1147.24,882.365 1149.27,877.041 1151.3,871.65 1153.32,866.193 1155.35,860.671 1157.37,855.087 1159.4,849.442 1161.43,843.738 1163.45,837.976 1165.48,832.158 1167.5,826.286 1169.53,820.361 1171.56,814.386 1173.58,808.361 1175.61,802.29 1177.63,796.173 1179.66,790.013 1181.69,783.811 1183.71,777.569 1185.74,771.289 1187.77,764.972 1189.79,758.622 1191.82,752.239 1193.84,745.825 1195.87,739.383 1197.9,732.914 1199.92,726.42 1201.95,719.903 1203.97,713.365 1206,706.808 1208.03,700.234 1210.05,693.645 1212.08,687.043 1214.1,680.429 1216.13,673.806 1218.16,667.175 1220.18,660.539 1222.21,653.9 1224.23,647.259 1226.26,640.619 1228.29,633.981 1230.31,627.347 1232.34,620.72 1234.36,614.101 1236.39,607.493 1238.42,600.897 1240.44,594.314 1242.47,587.749 1244.5,581.201 1246.52,574.673 1248.55,568.167 1250.57,561.685 1252.6,555.228 1254.63,548.8 1256.65,542.401 1258.68,536.033 1260.7,529.699 1262.73,523.4 1264.76,517.138 1266.78,510.915 1268.81,504.733 1270.83,498.594 1272.86,492.499 1274.89,486.45 1276.91,480.449 1278.94,474.498 1280.96,468.599 1282.99,462.753 1285.02,456.962 1287.04,451.227 1289.07,445.552 1291.09,439.936 1293.12,434.382 1295.15,428.891 1297.17,423.466 1299.2,418.107 1301.23,412.816 1303.25,407.596 1305.28,402.446 1307.3,397.37 1309.33,392.367 1311.36,387.441 1313.38,382.592 1315.41,377.822 1317.43,373.131 1319.46,368.523 1321.49,363.997 1323.51,359.555 1325.54,355.199 1327.56,350.93 1329.59,346.749 1331.62,342.657 1333.64,338.656 1335.67,334.747 1337.69,330.93 1339.72,327.207 1341.75,323.58 1343.77,320.049 1345.8,316.614 1347.82,313.279 1349.85,310.042 1351.88,306.905 1353.9,303.87 1355.93,300.937 1357.96,298.106 1359.98,295.379 1362.01,292.757 1364.03,290.24 1366.06,287.829 1368.09,285.525 1370.11,283.328 1372.14,281.239 1374.16,279.259 1376.19,277.388 1378.22,275.627 1380.24,273.977 1382.27,272.437 1384.29,271.008 1386.32,269.691 1388.35,268.486 1390.37,267.394 1392.4,266.415 1394.42,265.548 1396.45,264.795 1398.48,264.155 1400.5,263.629 1402.53,263.217 1404.55,262.919 1406.58,262.735 1408.61,262.665 1410.63,262.709 1412.66,262.868 1414.69,263.14 1416.71,263.527 1418.74,264.027 1420.76,264.641 1422.79,265.369 1424.82,266.21 1426.84,267.164 1428.87,268.231 1430.89,269.41 1432.92,270.702 1434.95,272.105 1436.97,273.62 1439,275.245 1441.02,276.981 1443.05,278.827 1445.08,280.782 1447.1,282.846 1449.13,285.018 1451.15,287.297 1453.18,289.684 1455.21,292.176 1457.23,294.774 1459.26,297.476 1461.28,300.283 1463.31,303.192 1465.34,306.203 1467.36,309.316 1469.39,312.529 1471.42,315.841 1473.44,319.252 1475.47,322.759 1477.49,326.364 1479.52,330.063 1481.55,333.857 1483.57,337.743 1485.6,341.722 1487.62,345.791 1489.65,349.95 1491.68,354.197 1493.7,358.531 1495.73,362.95 1497.75,367.455 1499.78,372.042 1501.81,376.71 1503.83,381.46 1505.86,386.288 1507.88,391.193 1509.91,396.175 1511.94,401.231 1513.96,406.36 1515.99,411.561 1518.01,416.832 1520.04,422.171 1522.07,427.577 1524.09,433.048 1526.12,438.583 1528.15,444.18 1530.17,449.837 1532.2,455.553 1534.22,461.326 1536.25,467.154 1538.28,473.036 1540.3,478.969 1542.33,484.953 1544.35,490.985 1546.38,497.063 1548.41,503.186 1550.43,509.352 1552.46,515.558 1554.48,521.804 1556.51,528.088 1558.54,534.406 1560.56,540.759 1562.59,547.143 1564.61,553.557 1566.64,559.999 1568.67,566.467 1570.69,572.959 1572.72,579.473 1574.74,586.007 1576.77,592.56 1578.8,599.129 1580.82,605.713 1582.85,612.309 1584.88,618.916 1586.9,625.531 1588.93,632.153 1590.95,638.779 1592.98,645.409 1595.01,652.039 1597.03,658.667 1599.06,665.293 1601.08,671.913 1603.11,678.526 1605.14,685.13 1607.16,691.723 1609.19,698.304 1611.21,704.869 1613.24,711.417 1615.27,717.947 1617.29,724.455 1619.32,730.941 1621.34,737.403 1623.37,743.838 1625.4,750.244 1627.42,756.62 1629.45,762.964 1631.47,769.274 1633.5,775.548 1635.53,781.784 1637.55,787.98 1639.58,794.135 1641.61,800.247 1643.63,806.313 1645.66,812.333 1647.68,818.303 1649.71,824.224 1651.74,830.092 1653.76,835.906 1655.79,841.664 1657.81,847.365 1659.84,853.007 1661.87,858.588 1663.89,864.107 1665.92,869.562 1667.94,874.95 1669.97,880.272 1672,885.525 1674.02,890.707 1676.05,895.818 1678.07,900.855 1680.1,905.817 1682.13,910.703 1684.15,915.511 1686.18,920.239 1688.2,924.887 1690.23,929.453 1692.26,933.935 1694.28,938.333 1696.31,942.645 1698.34,946.869 1700.36,951.005 1702.39,955.05 1704.41,959.005 1706.44,962.868 1708.47,966.637 1710.49,970.312 1712.52,973.892 1714.54,977.375 1716.57,980.76 1718.6,984.046 1720.62,987.233 1722.65,990.32 1724.67,993.305 1726.7,996.187 1728.73,998.967 1730.75,1001.64 1732.78,1004.21 1734.8,1006.68 1736.83,1009.04 1738.86,1011.29 1740.88,1013.43 1742.91,1015.47 1744.93,1017.39 1746.96,1019.21 1748.99,1020.92 1751.01,1022.52 1753.04,1024 1755.07,1025.37 1757.09,1026.64 1759.12,1027.79 1761.14,1028.82 1763.17,1029.75 1765.2,1030.56 1767.22,1031.26 1769.25,1031.84 1771.27,1032.31 1773.3,1032.67 1775.33,1032.91 1777.35,1033.04 1779.38,1033.06 1781.4,1032.96 1783.43,1032.74 1785.46,1032.41 1787.48,1031.97 1789.51,1031.42 1791.53,1030.75 1793.56,1029.96 1795.59,1029.07 1797.61,1028.06 1799.64,1026.93 1801.66,1025.7 1803.69,1024.35 1805.72,1022.9 1807.74,1021.33 1809.77,1019.65 1811.8,1017.86 1813.82,1015.96 1815.85,1013.95 1817.87,1011.83 1819.9,1009.6 1821.93,1007.27 1823.95,1004.83 1825.98,1002.29 1828,999.635 1830.03,996.881 1832.06,994.022 1834.08,991.061 1836.11,987.999 1838.13,984.835 1840.16,981.571 1842.19,978.209 1844.21,974.748 1846.24,971.191 1848.26,967.537 1850.29,963.789 1852.32,959.947 1854.34,956.012 1856.37,951.986 1858.39,947.869 1860.42,943.664 1862.45,939.37 1864.47,934.99 1866.5,930.525 1868.53,925.976 1870.55,921.345 1872.58,916.632 1874.6,911.839 1876.63,906.968 1878.66,902.02 1880.68,896.997 1882.71,891.9 1884.73,886.73 1886.76,881.489 1888.79,876.178 1890.81,870.8 1892.84,865.355 1894.86,859.846 1896.89,854.274 1898.92,848.64 1900.94,842.947 1902.97,837.196 1904.99,831.388 1907.02,825.525 1909.05,819.61 1911.07,813.644 1913.1,807.628 1915.12,801.564 1917.15,795.455 1919.18,789.302 1921.2,783.107 1923.23,776.871 1925.25,770.596 1927.28,764.286 1929.31,757.94 1931.33,751.561 1933.36,745.151 1935.39,738.712 1937.41,732.246 1939.44,725.755 1941.46,719.24 1943.49,712.704 1945.52,706.148 1947.54,699.574 1949.57,692.985 1951.59,686.382 1953.62,679.768 1955.65,673.143 1957.67,666.511 1959.7,659.873 1961.72,653.231 1963.75,646.586 1965.78,639.942 1967.8,633.3 1969.83,626.662 1971.85,620.029 1973.88,613.405 1975.91,606.79 1977.93,600.187 1979.96,593.598 1981.98,587.024 1984.01,580.468 1986.04,573.932 1988.06,567.417 1990.09,560.925 1992.12,554.459 1994.14,548.019 1996.17,541.609 1998.19,535.23 2000.22,528.884 2002.25,522.573 2004.27,516.298 2006.3,510.062 2008.32,503.866 2010.35,497.713 2012.38,491.603 2014.4,485.539 2016.43,479.523 2018.45,473.556 2020.48,467.64 2022.51,461.777 2024.53,455.969 2026.56,450.217 2028.58,444.523 2030.61,438.889 2032.64,433.316 2034.66,427.806 2036.69,422.361 2038.71,416.982 2040.74,411.671 2042.77,406.429 2044.79,401.258 2046.82,396.16 2048.85,391.136 2050.87,386.187 2052.9,381.315 2054.92,376.522 2056.95,371.808 2058.98,367.176 2061,362.626 2063.03,358.16 2065.05,353.779 2067.08,349.485 2069.11,345.279 2071.13,341.161 2073.16,337.134 2075.18,333.198 2077.21,329.355 2079.24,325.606 2081.26,321.951 2083.29,318.392 2085.31,314.931 2087.34,311.567 2089.37,308.302 2091.39,305.138 2093.42,302.074 2095.44,299.112 2097.47,296.252 2099.5,293.496 2101.52,290.845 2103.55,288.298 2105.58,285.857 2107.6,283.523 2109.63,281.296 2111.65,279.177 2113.68,277.167 2115.71,275.266 2117.73,273.474 2119.76,271.793 2121.78,270.222 2123.81,268.762 2125.84,267.415 2127.86,266.179 2129.89,265.055 2131.91,264.044 2133.94,263.146 2135.97,262.362 2137.99,261.691 2140.02,261.133 2142.04,260.69 2144.07,260.36 2146.1,260.145 2148.12,260.043 2150.15,260.056 2152.17,260.183 2154.2,260.424 2156.23,260.779 2158.25,261.248 2160.28,261.83 2162.31,262.527 2164.33,263.336 2166.36,264.259 2168.38,265.295 2170.41,266.443 2172.44,267.704 2174.46,269.077 2176.49,270.56 2178.51,272.155 2180.54,273.861 2182.57,275.676 2184.59,277.601 2186.62,279.635 2188.64,281.777 2190.67,284.027 2192.7,286.384 2194.72,288.847 2196.75,291.416 2198.77,294.089 2200.8,296.867 2202.83,299.748 2204.85,302.731 2206.88,305.815 2208.9,309 2210.93,312.285 2212.96,315.668 2214.98,319.149 2217.01,322.726 2219.04,326.399 2221.06,330.167 2223.09,334.028 2225.11,337.98 2227.14,342.024 2229.17,346.158 2231.19,350.38 2233.22,354.69 2235.24,359.086 2237.27,363.566 2239.3,368.13 2241.32,372.775 2243.35,377.502 2245.37,382.308 2247.4,387.191 2249.43,392.151 2251.45,397.186 2253.48,402.295 2255.5,407.475 2257.53,412.726 2259.56,418.045 2261.58,423.432 2263.61,428.885 2265.63,434.401 2267.66,439.98 2269.69,445.62 2271.71,451.319 2273.74,457.075 2275.77,462.887 2277.79,468.752 2279.82,474.671 2281.84,480.639 2283.87,486.656 2285.9,492.721 2287.92,498.83 2289.95,504.982 2291.97,511.177 "/>
<polyline clip-path="url(#clip162)" style="stroke:#0000ff; stroke-linecap:round; stroke-linejoin:round; stroke-width:4; stroke-opacity:1; fill:none" points="265.903,1014.49 267.929,1016.17 269.955,1017.74 271.981,1019.2 274.007,1020.55 276.033,1021.79 278.06,1022.91 280.086,1023.93 282.112,1024.83 284.138,1025.62 286.164,1026.29 288.19,1026.86 290.216,1027.31 292.242,1027.65 294.268,1027.87 296.294,1027.98 298.32,1027.98 300.346,1027.86 302.372,1027.63 304.398,1027.29 306.425,1026.83 308.451,1026.26 310.477,1025.58 312.503,1024.78 314.529,1023.87 316.555,1022.85 318.581,1021.72 320.607,1020.48 322.633,1019.12 324.659,1017.66 326.685,1016.08 328.711,1014.4 330.737,1012.6 332.763,1010.7 334.789,1008.69 336.816,1006.57 338.842,1004.34 340.868,1002 342.894,999.565 344.92,997.021 346.946,994.373 348.972,991.621 350.998,988.767 353.024,985.81 355.05,982.753 357.076,979.596 359.102,976.34 361.128,972.986 363.154,969.534 365.181,965.987 367.207,962.344 369.233,958.608 371.259,954.779 373.285,950.858 375.311,946.847 377.337,942.746 379.363,938.557 381.389,934.281 383.415,929.92 385.441,925.475 387.467,920.946 389.493,916.336 391.519,911.645 393.546,906.876 395.572,902.029 397.598,897.106 399.624,892.109 401.65,887.038 403.676,881.896 405.702,876.684 407.728,871.403 409.754,866.055 411.78,860.642 413.806,855.165 415.832,849.626 417.858,844.027 419.884,838.368 421.911,832.653 423.937,826.882 425.963,821.057 427.989,815.18 430.015,809.253 432.041,803.277 434.067,797.255 436.093,791.188 438.119,785.077 440.145,778.925 442.171,772.734 444.197,766.505 446.223,760.24 448.249,753.941 450.276,747.61 452.302,741.248 454.328,734.858 456.354,728.442 458.38,722.001 460.406,715.538 462.432,709.053 464.458,702.55 466.484,696.03 468.51,689.495 470.536,682.947 472.562,676.388 474.588,669.82 476.614,663.244 478.641,656.663 480.667,650.079 482.693,643.494 484.719,636.909 486.745,630.327 488.771,623.749 490.797,617.178 492.823,610.615 494.849,604.062 496.875,597.522 498.901,590.995 500.927,584.485 502.953,577.994 504.979,571.522 507.006,565.072 509.032,558.645 511.058,552.245 513.084,545.872 515.11,539.529 517.136,533.217 519.162,526.939 521.188,520.695 523.214,514.489 525.24,508.321 527.266,502.194 529.292,496.109 531.318,490.069 533.344,484.075 535.37,478.129 537.397,472.232 539.423,466.386 541.449,460.594 543.475,454.856 545.501,449.175 547.527,443.552 549.553,437.989 551.579,432.488 553.605,427.049 555.631,421.676 557.657,416.368 559.683,411.129 561.709,405.959 563.735,400.86 565.762,395.834 567.788,390.881 569.814,386.004 571.84,381.204 573.866,376.482 575.892,371.84 577.918,367.279 579.944,362.8 581.97,358.406 583.996,354.096 586.022,349.873 588.048,345.737 590.074,341.69 592.1,337.733 594.127,333.868 596.153,330.095 598.179,326.415 600.205,322.83 602.231,319.34 604.257,315.948 606.283,312.652 608.309,309.456 610.335,306.359 612.361,303.363 614.387,300.468 616.413,297.675 618.439,294.985 620.465,292.4 622.492,289.919 624.518,287.543 626.544,285.274 628.57,283.111 630.596,281.056 632.622,279.108 634.648,277.27 636.674,275.54 638.7,273.92 640.726,272.411 642.752,271.012 644.778,269.724 646.804,268.547 648.83,267.482 650.857,266.53 652.883,265.689 654.909,264.961 656.935,264.346 658.961,263.844 660.987,263.456 663.013,263.18 665.039,263.018 667.065,262.969 669.091,263.034 671.117,263.212 673.143,263.504 675.169,263.908 677.195,264.426 679.222,265.057 681.248,265.801 683.274,266.657 685.3,267.626 687.326,268.707 689.352,269.899 691.378,271.203 693.404,272.618 695.43,274.144 697.456,275.78 699.482,277.525 701.508,279.38 703.534,281.343 705.56,283.414 707.587,285.593 709.613,287.879 711.639,290.27 713.665,292.767 715.691,295.369 717.717,298.074 719.743,300.883 721.769,303.794 723.795,306.806 725.821,309.919 727.847,313.132 729.873,316.443 731.899,319.852 733.925,323.357 735.951,326.958 737.978,330.654 740.004,334.443 742.03,338.325 744.056,342.297 746.082,346.36 748.108,350.512 750.134,354.751 752.16,359.077 754.186,363.488 756.212,367.982 758.238,372.559 760.264,377.217 762.29,381.955 764.316,386.771 766.343,391.664 768.369,396.633 770.395,401.675 772.421,406.79 774.447,411.976 776.473,417.231 778.499,422.555 780.525,427.944 782.551,433.399 784.577,438.916 786.603,444.495 788.629,450.134 790.655,455.831 792.681,461.585 794.708,467.393 796.734,473.255 798.76,479.167 800.786,485.13 802.812,491.14 804.838,497.196 806.864,503.297 808.89,509.44 810.916,515.623 812.942,521.846 814.968,528.105 816.994,534.4 819.02,540.728 821.046,547.087 823.073,553.476 825.099,559.892 827.125,566.334 829.151,572.8 831.177,579.288 833.203,585.796 835.229,592.322 837.255,598.864 839.281,605.421 841.307,611.989 843.333,618.568 845.359,625.156 847.385,631.749 849.411,638.348 851.438,644.949 853.464,651.55 855.49,658.15 857.516,664.747 859.542,671.338 861.568,677.923 863.594,684.498 865.62,691.062 867.646,697.613 869.672,704.149 871.698,710.668 873.724,717.168 875.75,723.648 877.776,730.104 879.803,736.537 881.829,742.942 883.855,749.32 885.881,755.667 887.907,761.982 889.933,768.263 891.959,774.508 893.985,780.715 896.011,786.883 898.037,793.01 900.063,799.093 902.089,805.131 904.115,811.123 906.141,817.066 908.168,822.958 910.194,828.799 912.22,834.586 914.246,840.317 916.272,845.992 918.298,851.607 920.324,857.162 922.35,862.655 924.376,868.084 926.402,873.448 928.428,878.744 930.454,883.972 932.48,889.131 934.506,894.217 936.532,899.23 938.559,904.169 940.585,909.032 942.611,913.817 944.637,918.524 946.663,923.15 948.689,927.694 950.715,932.156 952.741,936.533 954.767,940.824 956.793,945.029 958.819,949.146 960.845,953.173 962.871,957.11 964.897,960.955 966.924,964.707 968.95,968.365 970.976,971.928 973.002,975.395 975.028,978.765 977.054,982.037 979.08,985.21 981.106,988.283 983.132,991.255 985.158,994.126 987.184,996.893 989.21,999.557 991.236,1002.12 993.262,1004.57 995.289,1006.92 997.315,1009.16 999.341,1011.3 1001.37,1013.33 1003.39,1015.25 1005.42,1017.06 1007.44,1018.76 1009.47,1020.35 1011.5,1021.83 1013.52,1023.2 1015.55,1024.46 1017.58,1025.61 1019.6,1026.65 1021.63,1027.57 1023.65,1028.38 1025.68,1029.08 1027.71,1029.66 1029.73,1030.14 1031.76,1030.5 1033.78,1030.74 1035.81,1030.87 1037.84,1030.89 1039.86,1030.8 1041.89,1030.59 1043.91,1030.27 1045.94,1029.83 1047.97,1029.29 1049.99,1028.62 1052.02,1027.85 1054.04,1026.96 1056.07,1025.97 1058.1,1024.85 1060.12,1023.63 1062.15,1022.3 1064.17,1020.85 1066.2,1019.3 1068.23,1017.63 1070.25,1015.86 1072.28,1013.98 1074.31,1011.98 1076.33,1009.88 1078.36,1007.68 1080.38,1005.36 1082.41,1002.94 1084.44,1000.42 1086.46,997.79 1088.49,995.058 1090.51,992.222 1092.54,989.284 1094.57,986.246 1096.59,983.107 1098.62,979.868 1100.64,976.532 1102.67,973.098 1104.7,969.568 1106.72,965.942 1108.75,962.222 1110.77,958.409 1112.8,954.505 1114.83,950.509 1116.85,946.424 1118.88,942.25 1120.9,937.989 1122.93,933.642 1124.96,929.211 1126.98,924.696 1129.01,920.099 1131.04,915.421 1133.06,910.665 1135.09,905.83 1137.11,900.919 1139.14,895.933 1141.17,890.874 1143.19,885.743 1145.22,880.541 1147.24,875.27 1149.27,869.932 1151.3,864.528 1153.32,859.06 1155.35,853.53 1157.37,847.938 1159.4,842.287 1161.43,836.579 1163.45,830.815 1165.48,824.996 1167.5,819.125 1169.53,813.203 1171.56,807.233 1173.58,801.215 1175.61,795.152 1177.63,789.045 1179.66,782.896 1181.69,776.707 1183.71,770.48 1185.74,764.217 1187.77,757.919 1189.79,751.589 1191.82,745.228 1193.84,738.838 1195.87,732.421 1197.9,725.979 1199.92,719.513 1201.95,713.027 1203.97,706.521 1206,699.998 1208.03,693.46 1210.05,686.907 1212.08,680.344 1214.1,673.77 1216.13,667.189 1218.16,660.602 1220.18,654.012 1222.21,647.419 1224.23,640.827 1226.26,634.237 1228.29,627.65 1230.31,621.07 1232.34,614.497 1234.36,607.935 1236.39,601.384 1238.42,594.847 1240.44,588.325 1242.47,581.821 1244.5,575.337 1246.52,568.874 1248.55,562.434 1250.57,556.02 1252.6,549.633 1254.63,543.275 1256.65,536.948 1258.68,530.653 1260.7,524.393 1262.73,518.17 1264.76,511.985 1266.78,505.841 1268.81,499.738 1270.83,493.679 1272.86,487.666 1274.89,481.7 1276.91,475.783 1278.94,469.917 1280.96,464.104 1282.99,458.345 1285.02,452.643 1287.04,446.998 1289.07,441.412 1291.09,435.888 1293.12,430.426 1295.15,425.028 1297.17,419.697 1299.2,414.433 1301.23,409.238 1303.25,404.113 1305.28,399.061 1307.3,394.083 1309.33,389.179 1311.36,384.352 1313.38,379.603 1315.41,374.933 1317.43,370.345 1319.46,365.838 1321.49,361.414 1323.51,357.076 1325.54,352.823 1327.56,348.658 1329.59,344.581 1331.62,340.594 1333.64,336.698 1335.67,332.894 1337.69,329.184 1339.72,325.567 1341.75,322.046 1343.77,318.621 1345.8,315.294 1347.82,312.065 1349.85,308.936 1351.88,305.907 1353.9,302.979 1355.93,300.153 1357.96,297.43 1359.98,294.81 1362.01,292.295 1364.03,289.886 1366.06,287.582 1368.09,285.385 1370.11,283.295 1372.14,281.313 1374.16,279.44 1376.19,277.675 1378.22,276.02 1380.24,274.475 1382.27,273.041 1384.29,271.717 1386.32,270.505 1388.35,269.405 1390.37,268.416 1392.4,267.54 1394.42,266.776 1396.45,266.125 1398.48,265.587 1400.5,265.163 1402.53,264.851 1404.55,264.653 1406.58,264.568 1408.61,264.597 1410.63,264.739 1412.66,264.994 1414.69,265.363 1416.71,265.844 1418.74,266.439 1420.76,267.147 1422.79,267.968 1424.82,268.901 1426.84,269.946 1428.87,271.102 1430.89,272.371 1432.92,273.75 1434.95,275.24 1436.97,276.841 1439,278.551 1441.02,280.371 1443.05,282.299 1445.08,284.335 1447.1,286.48 1449.13,288.731 1451.15,291.088 1453.18,293.551 1455.21,296.118 1457.23,298.79 1459.26,301.565 1461.28,304.443 1463.31,307.422 1465.34,310.502 1467.36,313.682 1469.39,316.96 1471.42,320.337 1473.44,323.81 1475.47,327.38 1477.49,331.044 1479.52,334.802 1481.55,338.653 1483.57,342.595 1485.6,346.627 1487.62,350.749 1489.65,354.959 1491.68,359.255 1493.7,363.636 1495.73,368.102 1497.75,372.651 1499.78,377.281 1501.81,381.991 1503.83,386.779 1505.86,391.645 1507.88,396.587 1509.91,401.603 1511.94,406.692 1513.96,411.853 1515.99,417.083 1518.01,422.381 1520.04,427.747 1522.07,433.177 1524.09,438.671 1526.12,444.227 1528.15,449.843 1530.17,455.517 1532.2,461.249 1534.22,467.036 1536.25,472.876 1538.28,478.768 1540.3,484.71 1542.33,490.7 1544.35,496.737 1546.38,502.819 1548.41,508.943 1550.43,515.109 1552.46,521.314 1554.48,527.556 1556.51,533.834 1558.54,540.146 1560.56,546.489 1562.59,552.863 1564.61,559.264 1566.64,565.692 1568.67,572.144 1570.69,578.619 1572.72,585.114 1574.74,591.627 1576.77,598.157 1578.8,604.702 1580.82,611.26 1582.85,617.828 1584.88,624.406 1586.9,630.99 1588.93,637.579 1590.95,644.171 1592.98,650.765 1595.01,657.357 1597.03,663.947 1599.06,670.532 1601.08,677.11 1603.11,683.679 1605.14,690.238 1607.16,696.784 1609.19,703.316 1611.21,709.831 1613.24,716.328 1615.27,722.805 1617.29,729.26 1619.32,735.69 1621.34,742.094 1623.37,748.471 1625.4,754.818 1627.42,761.133 1629.45,767.414 1631.47,773.66 1633.5,779.869 1635.53,786.039 1637.55,792.167 1639.58,798.253 1641.61,804.295 1643.63,810.29 1645.66,816.237 1647.68,822.135 1649.71,827.98 1651.74,833.772 1653.76,839.51 1655.79,845.19 1657.81,850.812 1659.84,856.374 1661.87,861.875 1663.89,867.311 1665.92,872.683 1667.94,877.989 1669.97,883.226 1672,888.393 1674.02,893.49 1676.05,898.513 1678.07,903.463 1680.1,908.336 1682.13,913.133 1684.15,917.851 1686.18,922.489 1688.2,927.046 1690.23,931.52 1692.26,935.91 1694.28,940.215 1696.31,944.433 1698.34,948.563 1700.36,952.605 1702.39,956.556 1704.41,960.416 1706.44,964.183 1708.47,967.856 1710.49,971.435 1712.52,974.918 1714.54,978.304 1716.57,981.593 1718.6,984.782 1720.62,987.872 1722.65,990.861 1724.67,993.748 1726.7,996.533 1728.73,999.215 1730.75,1001.79 1732.78,1004.27 1734.8,1006.63 1736.83,1008.89 1738.86,1011.05 1740.88,1013.1 1742.91,1015.03 1744.93,1016.86 1746.96,1018.58 1748.99,1020.2 1751.01,1021.7 1753.04,1023.09 1755.07,1024.36 1757.09,1025.53 1759.12,1026.59 1761.14,1027.53 1763.17,1028.36 1765.2,1029.08 1767.22,1029.69 1769.25,1030.18 1771.27,1030.56 1773.3,1030.82 1775.33,1030.97 1777.35,1031.01 1779.38,1030.94 1781.4,1030.75 1783.43,1030.45 1785.46,1030.03 1787.48,1029.51 1789.51,1028.86 1791.53,1028.11 1793.56,1027.24 1795.59,1026.27 1797.61,1025.17 1799.64,1023.97 1801.66,1022.66 1803.69,1021.23 1805.72,1019.7 1807.74,1018.05 1809.77,1016.29 1811.8,1014.43 1813.82,1012.46 1815.85,1010.38 1817.87,1008.19 1819.9,1005.89 1821.93,1003.49 1823.95,1000.98 1825.98,998.371 1828,995.656 1830.03,992.838 1832.06,989.917 1834.08,986.895 1836.11,983.773 1838.13,980.551 1840.16,977.231 1842.19,973.813 1844.21,970.298 1846.24,966.688 1848.26,962.983 1850.29,959.185 1852.32,955.295 1854.34,951.313 1856.37,947.242 1858.39,943.082 1860.42,938.834 1862.45,934.5 1864.47,930.082 1866.5,925.579 1868.53,920.994 1870.55,916.328 1872.58,911.583 1874.6,906.759 1876.63,901.859 1878.66,896.883 1880.68,891.834 1882.71,886.712 1884.73,881.519 1886.76,876.257 1888.79,870.928 1890.81,865.532 1892.84,860.071 1894.86,854.548 1896.89,848.963 1898.92,843.318 1900.94,837.616 1902.97,831.857 1904.99,826.043 1907.02,820.177 1909.05,814.26 1911.07,808.293 1913.1,802.278 1915.12,796.218 1917.15,790.113 1919.18,783.966 1921.2,777.779 1923.23,771.553 1925.25,765.29 1927.28,758.992 1929.31,752.662 1931.33,746.3 1933.36,739.908 1935.39,733.49 1937.41,727.045 1939.44,720.577 1941.46,714.088 1943.49,707.578 1945.52,701.051 1947.54,694.508 1949.57,687.95 1951.59,681.381 1953.62,674.801 1955.65,668.214 1957.67,661.62 1959.7,655.022 1961.72,648.421 1963.75,641.82 1965.78,635.221 1967.8,628.625 1969.83,622.034 1971.85,615.451 1973.88,608.878 1975.91,602.315 1977.93,595.766 1979.96,589.232 1981.98,582.716 1984.01,576.218 1986.04,569.741 1988.06,563.287 1990.09,556.858 1992.12,550.455 1994.14,544.081 1996.17,537.738 1998.19,531.427 2000.22,525.15 2002.25,518.909 2004.27,512.706 2006.3,506.543 2008.32,500.421 2010.35,494.343 2012.38,488.31 2014.4,482.323 2016.43,476.386 2018.45,470.499 2020.48,464.664 2022.51,458.883 2024.53,453.158 2026.56,447.49 2028.58,441.881 2030.61,436.333 2032.64,430.847 2034.66,425.425 2036.69,420.068 2038.71,414.779 2040.74,409.558 2042.77,404.408 2044.79,399.329 2046.82,394.324 2048.85,389.393 2050.87,384.538 2052.9,379.761 2054.92,375.063 2056.95,370.446 2058.98,365.91 2061,361.458 2063.03,357.089 2065.05,352.807 2067.08,348.611 2069.11,344.504 2071.13,340.486 2073.16,336.559 2075.18,332.724 2077.21,328.981 2079.24,325.333 2081.26,321.78 2083.29,318.323 2085.31,314.963 2087.34,311.701 2089.37,308.538 2091.39,305.475 2093.42,302.514 2095.44,299.654 2097.47,296.897 2099.5,294.243 2101.52,291.694 2103.55,289.25 2105.58,286.911 2107.6,284.679 2109.63,282.554 2111.65,280.537 2113.68,278.628 2115.71,276.828 2117.73,275.137 2119.76,273.557 2121.78,272.086 2123.81,270.727 2125.84,269.478 2127.86,268.342 2129.89,267.317 2131.91,266.404 2133.94,265.604 2135.97,264.917 2137.99,264.343 2140.02,263.881 2142.04,263.533 2144.07,263.298 2146.1,263.177 2148.12,263.169 2150.15,263.274 2152.17,263.493 2154.2,263.825 2156.23,264.271 2158.25,264.829 2160.28,265.501 2162.31,266.285 2164.33,267.182 2166.36,268.19 2168.38,269.311 2170.41,270.544 2172.44,271.887 2174.46,273.341 2176.49,274.906 2178.51,276.581 2180.54,278.365 2182.57,280.258 2184.59,282.259 2186.62,284.368 2188.64,286.585 2190.67,288.907 2192.7,291.336 2194.72,293.869 2196.75,296.507 2198.77,299.248 2200.8,302.092 2202.83,305.038 2204.85,308.084 2206.88,311.231 2208.9,314.477 2210.93,317.821 2212.96,321.262 2214.98,324.8 2217.01,328.432 2219.04,332.159 2221.06,335.978 2223.09,339.89 2225.11,343.892 2227.14,347.983 2229.17,352.163 2231.19,356.429 2233.22,360.781 2235.24,365.218 2237.27,369.738 2239.3,374.34 2241.32,379.022 2243.35,383.783 2245.37,388.622 2247.4,393.537 2249.43,398.526 2251.45,403.589 2253.48,408.724 2255.5,413.929 2257.53,419.202 2259.56,424.543 2261.58,429.949 2263.61,435.419 2265.63,440.952 2267.66,446.545 2269.69,452.197 2271.71,457.906 2273.74,463.672 2275.77,469.491 2277.79,475.362 2279.82,481.284 2281.84,487.254 2283.87,493.272 2285.9,499.334 2287.92,505.44 2289.95,511.588 2291.97,517.775 "/>
<path clip-path="url(#clip160)" d="M1726.22 1377.32 L2281.17 1377.32 L2281.17 1169.96 L1726.22 1169.96  Z" fill="#ffffff" fill-rule="evenodd" fill-opacity="1"/>
<polyline clip-path="url(#clip160)" style="stroke:#000000; stroke-linecap:round; stroke-linejoin:round; stroke-width:4; stroke-opacity:1; fill:none" points="1726.22,1377.32 2281.17,1377.32 2281.17,1169.96 1726.22,1169.96 1726.22,1377.32 "/>
<polyline clip-path="url(#clip160)" style="stroke:#d3d3d3; stroke-linecap:round; stroke-linejoin:round; stroke-width:4; stroke-opacity:1; fill:none" points="1750.08,1221.8 1893.26,1221.8 "/>
<path clip-path="url(#clip160)" d="M1921.8 1208.36 L1921.8 1235.23 L1927.45 1235.23 Q1934.6 1235.23 1937.91 1231.99 Q1941.24 1228.75 1941.24 1221.76 Q1941.24 1214.82 1937.91 1211.6 Q1934.6 1208.36 1927.45 1208.36 L1921.8 1208.36 M1917.12 1204.52 L1926.73 1204.52 Q1936.77 1204.52 1941.47 1208.71 Q1946.17 1212.87 1946.17 1221.76 Q1946.17 1230.7 1941.45 1234.89 Q1936.73 1239.08 1926.73 1239.08 L1917.12 1239.08 L1917.12 1204.52 Z" fill="#000000" fill-rule="nonzero" fill-opacity="1" /><path clip-path="url(#clip160)" d="M1963.49 1216.14 Q1960.06 1216.14 1958.07 1218.82 Q1956.08 1221.48 1956.08 1226.14 Q1956.08 1230.79 1958.05 1233.47 Q1960.04 1236.14 1963.49 1236.14 Q1966.89 1236.14 1968.88 1233.45 Q1970.87 1230.77 1970.87 1226.14 Q1970.87 1221.53 1968.88 1218.84 Q1966.89 1216.14 1963.49 1216.14 M1963.49 1212.52 Q1969.04 1212.52 1972.21 1216.14 Q1975.39 1219.75 1975.39 1226.14 Q1975.39 1232.5 1972.21 1236.14 Q1969.04 1239.75 1963.49 1239.75 Q1957.91 1239.75 1954.74 1236.14 Q1951.59 1232.5 1951.59 1226.14 Q1951.59 1219.75 1954.74 1216.14 Q1957.91 1212.52 1963.49 1212.52 Z" fill="#000000" fill-rule="nonzero" fill-opacity="1" /><path clip-path="url(#clip160)" d="M2004 1223.43 L2004 1239.08 L1999.74 1239.08 L1999.74 1223.57 Q1999.74 1219.89 1998.3 1218.06 Q1996.87 1216.23 1994 1216.23 Q1990.55 1216.23 1988.56 1218.43 Q1986.57 1220.63 1986.57 1224.42 L1986.57 1239.08 L1982.28 1239.08 L1982.28 1213.15 L1986.57 1213.15 L1986.57 1217.18 Q1988.09 1214.84 1990.15 1213.68 Q1992.24 1212.52 1994.95 1212.52 Q1999.41 1212.52 2001.7 1215.3 Q2004 1218.06 2004 1223.43 Z" fill="#000000" fill-rule="nonzero" fill-opacity="1" /><path clip-path="url(#clip160)" d="M2034.04 1223.43 L2034.04 1239.08 L2029.78 1239.08 L2029.78 1223.57 Q2029.78 1219.89 2028.35 1218.06 Q2026.91 1216.23 2024.04 1216.23 Q2020.59 1216.23 2018.6 1218.43 Q2016.61 1220.63 2016.61 1224.42 L2016.61 1239.08 L2012.33 1239.08 L2012.33 1213.15 L2016.61 1213.15 L2016.61 1217.18 Q2018.14 1214.84 2020.2 1213.68 Q2022.28 1212.52 2024.99 1212.52 Q2029.46 1212.52 2031.75 1215.3 Q2034.04 1218.06 2034.04 1223.43 Z" fill="#000000" fill-rule="nonzero" fill-opacity="1" /><path clip-path="url(#clip160)" d="M2064.71 1225.05 L2064.71 1227.13 L2045.13 1227.13 Q2045.41 1231.53 2047.77 1233.84 Q2050.15 1236.14 2054.39 1236.14 Q2056.84 1236.14 2059.14 1235.53 Q2061.45 1234.93 2063.72 1233.73 L2063.72 1237.76 Q2061.43 1238.73 2059.02 1239.24 Q2056.61 1239.75 2054.14 1239.75 Q2047.93 1239.75 2044.3 1236.14 Q2040.69 1232.52 2040.69 1226.37 Q2040.69 1220 2044.11 1216.27 Q2047.56 1212.52 2053.39 1212.52 Q2058.63 1212.52 2061.66 1215.9 Q2064.71 1219.26 2064.71 1225.05 M2060.45 1223.8 Q2060.41 1220.3 2058.49 1218.22 Q2056.59 1216.14 2053.44 1216.14 Q2049.88 1216.14 2047.72 1218.15 Q2045.59 1220.16 2045.27 1223.82 L2060.45 1223.8 M2056.36 1201.16 L2060.96 1201.16 L2053.42 1209.86 L2049.88 1209.86 L2056.36 1201.16 Z" fill="#000000" fill-rule="nonzero" fill-opacity="1" /><path clip-path="url(#clip160)" d="M2093.88 1225.05 L2093.88 1227.13 L2074.3 1227.13 Q2074.57 1231.53 2076.94 1233.84 Q2079.32 1236.14 2083.56 1236.14 Q2086.01 1236.14 2088.3 1235.53 Q2090.62 1234.93 2092.89 1233.73 L2092.89 1237.76 Q2090.59 1238.73 2088.19 1239.24 Q2085.78 1239.75 2083.3 1239.75 Q2077.1 1239.75 2073.46 1236.14 Q2069.85 1232.52 2069.85 1226.37 Q2069.85 1220 2073.28 1216.27 Q2076.73 1212.52 2082.56 1212.52 Q2087.79 1212.52 2090.82 1215.9 Q2093.88 1219.26 2093.88 1225.05 M2089.62 1223.8 Q2089.57 1220.3 2087.65 1218.22 Q2085.76 1216.14 2082.61 1216.14 Q2079.04 1216.14 2076.89 1218.15 Q2074.76 1220.16 2074.44 1223.82 L2089.62 1223.8 Z" fill="#000000" fill-rule="nonzero" fill-opacity="1" /><path clip-path="url(#clip160)" d="M2117.4 1213.91 L2117.4 1217.94 Q2115.59 1217.02 2113.65 1216.55 Q2111.7 1216.09 2109.62 1216.09 Q2106.45 1216.09 2104.85 1217.06 Q2103.28 1218.03 2103.28 1219.98 Q2103.28 1221.46 2104.41 1222.32 Q2105.55 1223.15 2108.97 1223.91 L2110.43 1224.24 Q2114.97 1225.21 2116.87 1226.99 Q2118.79 1228.75 2118.79 1231.92 Q2118.79 1235.53 2115.92 1237.64 Q2113.07 1239.75 2108.07 1239.75 Q2105.99 1239.75 2103.72 1239.33 Q2101.47 1238.94 2098.97 1238.13 L2098.97 1233.73 Q2101.33 1234.95 2103.63 1235.58 Q2105.92 1236.18 2108.16 1236.18 Q2111.17 1236.18 2112.79 1235.16 Q2114.41 1234.12 2114.41 1232.25 Q2114.41 1230.51 2113.23 1229.58 Q2112.07 1228.66 2108.12 1227.8 L2106.63 1227.46 Q2102.68 1226.62 2100.92 1224.91 Q2099.16 1223.17 2099.16 1220.16 Q2099.16 1216.51 2101.75 1214.52 Q2104.34 1212.52 2109.11 1212.52 Q2111.47 1212.52 2113.56 1212.87 Q2115.64 1213.22 2117.4 1213.91 Z" fill="#000000" fill-rule="nonzero" fill-opacity="1" /><polyline clip-path="url(#clip160)" style="stroke:#ff0000; stroke-linecap:round; stroke-linejoin:round; stroke-width:4; stroke-opacity:1; fill:none" points="1750.08,1273.64 1893.26,1273.64 "/>
<path clip-path="url(#clip160)" d="M1917.12 1256.36 L1924.09 1256.36 L1932.91 1279.87 L1941.77 1256.36 L1948.74 1256.36 L1948.74 1290.92 L1944.18 1290.92 L1944.18 1260.57 L1935.27 1284.27 L1930.57 1284.27 L1921.66 1260.57 L1921.66 1290.92 L1917.12 1290.92 L1917.12 1256.36 Z" fill="#000000" fill-rule="nonzero" fill-opacity="1" /><path clip-path="url(#clip160)" d="M1967.89 1267.98 Q1964.46 1267.98 1962.47 1270.66 Q1960.48 1273.32 1960.48 1277.98 Q1960.48 1282.63 1962.45 1285.31 Q1964.44 1287.98 1967.89 1287.98 Q1971.29 1287.98 1973.28 1285.29 Q1975.27 1282.61 1975.27 1277.98 Q1975.27 1273.37 1973.28 1270.68 Q1971.29 1267.98 1967.89 1267.98 M1967.89 1264.36 Q1973.44 1264.36 1976.61 1267.98 Q1979.78 1271.59 1979.78 1277.98 Q1979.78 1284.34 1976.61 1287.98 Q1973.44 1291.59 1967.89 1291.59 Q1962.31 1291.59 1959.14 1287.98 Q1955.99 1284.34 1955.99 1277.98 Q1955.99 1271.59 1959.14 1267.98 Q1962.31 1264.36 1967.89 1264.36 Z" fill="#000000" fill-rule="nonzero" fill-opacity="1" /><path clip-path="url(#clip160)" d="M2003.9 1268.92 L2003.9 1254.9 L2008.16 1254.9 L2008.16 1290.92 L2003.9 1290.92 L2003.9 1287.03 Q2002.56 1289.34 2000.5 1290.48 Q1998.46 1291.59 1995.59 1291.59 Q1990.89 1291.59 1987.93 1287.84 Q1984.99 1284.09 1984.99 1277.98 Q1984.99 1271.86 1987.93 1268.11 Q1990.89 1264.36 1995.59 1264.36 Q1998.46 1264.36 2000.5 1265.5 Q2002.56 1266.61 2003.9 1268.92 M1989.39 1277.98 Q1989.39 1282.67 1991.31 1285.36 Q1993.26 1288.02 1996.64 1288.02 Q2000.02 1288.02 2001.96 1285.36 Q2003.9 1282.67 2003.9 1277.98 Q2003.9 1273.28 2001.96 1270.61 Q2000.02 1267.93 1996.64 1267.93 Q1993.26 1267.93 1991.31 1270.61 Q1989.39 1273.28 1989.39 1277.98 Z" fill="#000000" fill-rule="nonzero" fill-opacity="1" /><path clip-path="url(#clip160)" d="M2039.11 1276.89 L2039.11 1278.97 L2019.53 1278.97 Q2019.81 1283.37 2022.17 1285.68 Q2024.55 1287.98 2028.79 1287.98 Q2031.24 1287.98 2033.53 1287.37 Q2035.85 1286.77 2038.12 1285.57 L2038.12 1289.6 Q2035.83 1290.57 2033.42 1291.08 Q2031.01 1291.59 2028.53 1291.59 Q2022.33 1291.59 2018.7 1287.98 Q2015.08 1284.36 2015.08 1278.21 Q2015.08 1271.84 2018.51 1268.11 Q2021.96 1264.36 2027.79 1264.36 Q2033.02 1264.36 2036.06 1267.74 Q2039.11 1271.1 2039.11 1276.89 M2034.85 1275.64 Q2034.81 1272.14 2032.89 1270.06 Q2030.99 1267.98 2027.84 1267.98 Q2024.27 1267.98 2022.12 1269.99 Q2019.99 1272 2019.67 1275.66 L2034.85 1275.64 M2024.18 1253 L2030.71 1261.66 L2027.17 1261.66 L2019.62 1253 L2024.18 1253 Z" fill="#000000" fill-rule="nonzero" fill-opacity="1" /><path clip-path="url(#clip160)" d="M2046.1 1254.9 L2050.36 1254.9 L2050.36 1290.92 L2046.1 1290.92 L2046.1 1254.9 Z" fill="#000000" fill-rule="nonzero" fill-opacity="1" /><path clip-path="url(#clip160)" d="M2081.45 1276.89 L2081.45 1278.97 L2061.87 1278.97 Q2062.14 1283.37 2064.51 1285.68 Q2066.89 1287.98 2071.13 1287.98 Q2073.58 1287.98 2075.87 1287.37 Q2078.19 1286.77 2080.45 1285.57 L2080.45 1289.6 Q2078.16 1290.57 2075.76 1291.08 Q2073.35 1291.59 2070.87 1291.59 Q2064.67 1291.59 2061.03 1287.98 Q2057.42 1284.36 2057.42 1278.21 Q2057.42 1271.84 2060.85 1268.11 Q2064.3 1264.36 2070.13 1264.36 Q2075.36 1264.36 2078.39 1267.74 Q2081.45 1271.1 2081.45 1276.89 M2077.19 1275.64 Q2077.14 1272.14 2075.22 1270.06 Q2073.32 1267.98 2070.18 1267.98 Q2066.61 1267.98 2064.46 1269.99 Q2062.33 1272 2062.01 1275.66 L2077.19 1275.64 Z" fill="#000000" fill-rule="nonzero" fill-opacity="1" /><path clip-path="url(#clip160)" d="M2115.25 1260.96 L2108.9 1278.16 L2121.61 1278.16 L2115.25 1260.96 M2112.61 1256.36 L2117.91 1256.36 L2131.08 1290.92 L2126.22 1290.92 L2123.07 1282.05 L2107.49 1282.05 L2104.34 1290.92 L2099.41 1290.92 L2112.61 1256.36 Z" fill="#000000" fill-rule="nonzero" fill-opacity="1" /><path clip-path="url(#clip160)" d="M2140.8 1260.2 L2140.8 1287.07 L2146.45 1287.07 Q2153.6 1287.07 2156.91 1283.83 Q2160.25 1280.59 2160.25 1273.6 Q2160.25 1266.66 2156.91 1263.44 Q2153.6 1260.2 2146.45 1260.2 L2140.8 1260.2 M2136.13 1256.36 L2145.73 1256.36 Q2155.78 1256.36 2160.48 1260.55 Q2165.18 1264.71 2165.18 1273.6 Q2165.18 1282.54 2160.45 1286.73 Q2155.73 1290.92 2145.73 1290.92 L2136.13 1290.92 L2136.13 1256.36 Z" fill="#000000" fill-rule="nonzero" fill-opacity="1" /><path clip-path="url(#clip160)" d="M2172.63 1256.36 L2178.93 1256.36 L2194.25 1285.27 L2194.25 1256.36 L2198.79 1256.36 L2198.79 1290.92 L2192.49 1290.92 L2177.17 1262 L2177.17 1290.92 L2172.63 1290.92 L2172.63 1256.36 Z" fill="#000000" fill-rule="nonzero" fill-opacity="1" /><path clip-path="url(#clip160)" d="M2208.09 1256.36 L2212.77 1256.36 L2212.77 1286.98 L2229.6 1286.98 L2229.6 1290.92 L2208.09 1290.92 L2208.09 1256.36 Z" fill="#000000" fill-rule="nonzero" fill-opacity="1" /><path clip-path="url(#clip160)" d="M2239.18 1260.2 L2239.18 1273.18 L2245.06 1273.18 Q2248.32 1273.18 2250.11 1271.49 Q2251.89 1269.8 2251.89 1266.68 Q2251.89 1263.58 2250.11 1261.89 Q2248.32 1260.2 2245.06 1260.2 L2239.18 1260.2 M2234.5 1256.36 L2245.06 1256.36 Q2250.87 1256.36 2253.83 1258.99 Q2256.82 1261.61 2256.82 1266.68 Q2256.82 1271.8 2253.83 1274.41 Q2250.87 1277.03 2245.06 1277.03 L2239.18 1277.03 L2239.18 1290.92 L2234.5 1290.92 L2234.5 1256.36 Z" fill="#000000" fill-rule="nonzero" fill-opacity="1" /><polyline clip-path="url(#clip160)" style="stroke:#0000ff; stroke-linecap:round; stroke-linejoin:round; stroke-width:4; stroke-opacity:1; fill:none" points="1750.08,1325.48 1893.26,1325.48 "/>
<path clip-path="url(#clip160)" d="M1917.12 1308.2 L1924.09 1308.2 L1932.91 1331.71 L1941.77 1308.2 L1948.74 1308.2 L1948.74 1342.76 L1944.18 1342.76 L1944.18 1312.41 L1935.27 1336.11 L1930.57 1336.11 L1921.66 1312.41 L1921.66 1342.76 L1917.12 1342.76 L1917.12 1308.2 Z" fill="#000000" fill-rule="nonzero" fill-opacity="1" /><path clip-path="url(#clip160)" d="M1967.89 1319.82 Q1964.46 1319.82 1962.47 1322.5 Q1960.48 1325.16 1960.48 1329.82 Q1960.48 1334.47 1962.45 1337.15 Q1964.44 1339.82 1967.89 1339.82 Q1971.29 1339.82 1973.28 1337.13 Q1975.27 1334.45 1975.27 1329.82 Q1975.27 1325.21 1973.28 1322.52 Q1971.29 1319.82 1967.89 1319.82 M1967.89 1316.2 Q1973.44 1316.2 1976.61 1319.82 Q1979.78 1323.43 1979.78 1329.82 Q1979.78 1336.18 1976.61 1339.82 Q1973.44 1343.43 1967.89 1343.43 Q1962.31 1343.43 1959.14 1339.82 Q1955.99 1336.18 1955.99 1329.82 Q1955.99 1323.43 1959.14 1319.82 Q1962.31 1316.2 1967.89 1316.2 Z" fill="#000000" fill-rule="nonzero" fill-opacity="1" /><path clip-path="url(#clip160)" d="M2003.9 1320.76 L2003.9 1306.74 L2008.16 1306.74 L2008.16 1342.76 L2003.9 1342.76 L2003.9 1338.87 Q2002.56 1341.18 2000.5 1342.32 Q1998.46 1343.43 1995.59 1343.43 Q1990.89 1343.43 1987.93 1339.68 Q1984.99 1335.93 1984.99 1329.82 Q1984.99 1323.7 1987.93 1319.95 Q1990.89 1316.2 1995.59 1316.2 Q1998.46 1316.2 2000.5 1317.34 Q2002.56 1318.45 2003.9 1320.76 M1989.39 1329.82 Q1989.39 1334.51 1991.31 1337.2 Q1993.26 1339.86 1996.64 1339.86 Q2000.02 1339.86 2001.96 1337.2 Q2003.9 1334.51 2003.9 1329.82 Q2003.9 1325.12 2001.96 1322.45 Q2000.02 1319.77 1996.64 1319.77 Q1993.26 1319.77 1991.31 1322.45 Q1989.39 1325.12 1989.39 1329.82 Z" fill="#000000" fill-rule="nonzero" fill-opacity="1" /><path clip-path="url(#clip160)" d="M2039.11 1328.73 L2039.11 1330.81 L2019.53 1330.81 Q2019.81 1335.21 2022.17 1337.52 Q2024.55 1339.82 2028.79 1339.82 Q2031.24 1339.82 2033.53 1339.21 Q2035.85 1338.61 2038.12 1337.41 L2038.12 1341.44 Q2035.83 1342.41 2033.42 1342.92 Q2031.01 1343.43 2028.53 1343.43 Q2022.33 1343.43 2018.7 1339.82 Q2015.08 1336.2 2015.08 1330.05 Q2015.08 1323.68 2018.51 1319.95 Q2021.96 1316.2 2027.79 1316.2 Q2033.02 1316.2 2036.06 1319.58 Q2039.11 1322.94 2039.11 1328.73 M2034.85 1327.48 Q2034.81 1323.98 2032.89 1321.9 Q2030.99 1319.82 2027.84 1319.82 Q2024.27 1319.82 2022.12 1321.83 Q2019.99 1323.84 2019.67 1327.5 L2034.85 1327.48 M2024.18 1304.84 L2030.71 1313.5 L2027.17 1313.5 L2019.62 1304.84 L2024.18 1304.84 Z" fill="#000000" fill-rule="nonzero" fill-opacity="1" /><path clip-path="url(#clip160)" d="M2046.1 1306.74 L2050.36 1306.74 L2050.36 1342.76 L2046.1 1342.76 L2046.1 1306.74 Z" fill="#000000" fill-rule="nonzero" fill-opacity="1" /><path clip-path="url(#clip160)" d="M2081.45 1328.73 L2081.45 1330.81 L2061.87 1330.81 Q2062.14 1335.21 2064.51 1337.52 Q2066.89 1339.82 2071.13 1339.82 Q2073.58 1339.82 2075.87 1339.21 Q2078.19 1338.61 2080.45 1337.41 L2080.45 1341.44 Q2078.16 1342.41 2075.76 1342.92 Q2073.35 1343.43 2070.87 1343.43 Q2064.67 1343.43 2061.03 1339.82 Q2057.42 1336.2 2057.42 1330.05 Q2057.42 1323.68 2060.85 1319.95 Q2064.3 1316.2 2070.13 1316.2 Q2075.36 1316.2 2078.39 1319.58 Q2081.45 1322.94 2081.45 1328.73 M2077.19 1327.48 Q2077.14 1323.98 2075.22 1321.9 Q2073.32 1319.82 2070.18 1319.82 Q2066.61 1319.82 2064.46 1321.83 Q2062.33 1323.84 2062.01 1327.5 L2077.19 1327.48 Z" fill="#000000" fill-rule="nonzero" fill-opacity="1" /><path clip-path="url(#clip160)" d="M2115.25 1312.8 L2108.9 1330 L2121.61 1330 L2115.25 1312.8 M2112.61 1308.2 L2117.91 1308.2 L2131.08 1342.76 L2126.22 1342.76 L2123.07 1333.89 L2107.49 1333.89 L2104.34 1342.76 L2099.41 1342.76 L2112.61 1308.2 Z" fill="#000000" fill-rule="nonzero" fill-opacity="1" /><path clip-path="url(#clip160)" d="M2140.8 1312.04 L2140.8 1338.91 L2146.45 1338.91 Q2153.6 1338.91 2156.91 1335.67 Q2160.25 1332.43 2160.25 1325.44 Q2160.25 1318.5 2156.91 1315.28 Q2153.6 1312.04 2146.45 1312.04 L2140.8 1312.04 M2136.13 1308.2 L2145.73 1308.2 Q2155.78 1308.2 2160.48 1312.39 Q2165.18 1316.55 2165.18 1325.44 Q2165.18 1334.38 2160.45 1338.57 Q2155.73 1342.76 2145.73 1342.76 L2136.13 1342.76 L2136.13 1308.2 Z" fill="#000000" fill-rule="nonzero" fill-opacity="1" /><path clip-path="url(#clip160)" d="M2172.63 1308.2 L2178.93 1308.2 L2194.25 1337.11 L2194.25 1308.2 L2198.79 1308.2 L2198.79 1342.76 L2192.49 1342.76 L2177.17 1313.84 L2177.17 1342.76 L2172.63 1342.76 L2172.63 1308.2 Z" fill="#000000" fill-rule="nonzero" fill-opacity="1" /><path clip-path="url(#clip160)" d="M2208.09 1308.2 L2212.77 1308.2 L2212.77 1338.82 L2229.6 1338.82 L2229.6 1342.76 L2208.09 1342.76 L2208.09 1308.2 Z" fill="#000000" fill-rule="nonzero" fill-opacity="1" /><path clip-path="url(#clip160)" d="M2255.22 1309.33 L2255.22 1313.89 Q2252.56 1312.62 2250.2 1311.99 Q2247.84 1311.37 2245.64 1311.37 Q2241.82 1311.37 2239.74 1312.85 Q2237.68 1314.33 2237.68 1317.06 Q2237.68 1319.35 2239.04 1320.53 Q2240.43 1321.69 2244.27 1322.41 L2247.1 1322.99 Q2252.33 1323.98 2254.81 1326.51 Q2257.31 1329.01 2257.31 1333.22 Q2257.31 1338.24 2253.93 1340.83 Q2250.57 1343.43 2244.06 1343.43 Q2241.61 1343.43 2238.83 1342.87 Q2236.08 1342.32 2233.12 1341.23 L2233.12 1336.41 Q2235.96 1338.01 2238.69 1338.82 Q2241.43 1339.63 2244.06 1339.63 Q2248.07 1339.63 2250.25 1338.06 Q2252.42 1336.48 2252.42 1333.57 Q2252.42 1331.02 2250.85 1329.58 Q2249.3 1328.15 2245.73 1327.43 L2242.88 1326.88 Q2237.65 1325.83 2235.31 1323.61 Q2232.98 1321.39 2232.98 1317.43 Q2232.98 1312.85 2236.19 1310.21 Q2239.44 1307.57 2245.11 1307.57 Q2247.54 1307.57 2250.06 1308.01 Q2252.58 1308.45 2255.22 1309.33 Z" fill="#000000" fill-rule="nonzero" fill-opacity="1" /></svg>
